<ttFont>
<head>
    <!-- Most of this table will be recalculated by the compiler -->
    <tableVersion value="1.0"/>
    <fontRevision value="1.002"/>
    <checkSumAdjustment value="0x78c18dbf"/>
    <magicNumber value="0x5f0f3cf5"/>
    <flags value="00000000 00001111"/>
    <unitsPerEm value="1000"/>
    <created value="Sat Jan  4 16:14:24 2020"/>
    <modified value="Wed Feb  3 17:20:25 2021"/>
    <xMin value="-212"/>
    <yMin value="-456"/>
    <xMax value="1438"/>
    <yMax value="1258"/>
    <macStyle value="00000000 00000000"/>
    <lowestRecPPEM value="6"/>
    <fontDirectionHint value="2"/>
    <indexToLocFormat value="1"/>
    <glyphDataFormat value="0"/>
  </head>
    <TTGlyph name=".notdef" xMin="40" yMin="0" xMax="544" yMax="700">
      <contour>
        <pt x="40" y="35" on="1"/>
        <pt x="40" y="665" on="1"/>
        <pt x="40" y="682" on="0"/>
        <pt x="58" y="700" on="0"/>
        <pt x="75" y="700" on="1"/>
        <pt x="509" y="700" on="1"/>
        <pt x="526" y="700" on="0"/>
        <pt x="544" y="682" on="0"/>
        <pt x="544" y="665" on="1"/>
        <pt x="544" y="35" on="1"/>
        <pt x="544" y="18" on="0"/>
        <pt x="526" y="0" on="0"/>
        <pt x="509" y="0" on="1"/>
        <pt x="75" y="0" on="1"/>
        <pt x="58" y="0" on="0"/>
        <pt x="40" y="18" on="0"/>
      </contour>
      <contour>
        <pt x="509" y="670" on="1"/>
        <pt x="95" y="670" on="1"/>
        <pt x="92" y="670" on="0"/>
        <pt x="90" y="666" on="0"/>
        <pt x="92" y="664" on="1"/>
        <pt x="508" y="65" on="1"/>
        <pt x="510" y="62" on="0"/>
        <pt x="514" y="63" on="0"/>
        <pt x="514" y="67" on="1"/>
        <pt x="514" y="665" on="1"/>
        <pt x="514" y="667" on="0"/>
        <pt x="511" y="670" on="0"/>
      </contour>
      <contour>
        <pt x="70" y="633" on="1"/>
        <pt x="70" y="35" on="1"/>
        <pt x="70" y="33" on="0"/>
        <pt x="73" y="30" on="0"/>
        <pt x="75" y="30" on="1"/>
        <pt x="488" y="30" on="1"/>
        <pt x="491" y="30" on="0"/>
        <pt x="493" y="34" on="0"/>
        <pt x="491" y="36" on="1"/>
        <pt x="76" y="635" on="1"/>
        <pt x="74" y="638" on="0"/>
        <pt x="70" y="637" on="0"/>
      </contour>
    </TTGlyph>
    <TTGlyph name="A" xMin="-20" yMin="0" xMax="710" yMax="700">
      <contour>
        <pt x="327" y="496" on="1"/>
        <pt x="361" y="496" on="1"/>
        <pt x="348" y="433" on="0"/>
        <pt x="326" y="367" on="0"/>
        <pt x="302" y="306" on="1"/>
        <pt x="190" y="0" on="1"/>
        <pt x="-20" y="0" on="1"/>
        <pt x="261" y="700" on="1"/>
        <pt x="431" y="700" on="1"/>
        <pt x="710" y="0" on="1"/>
        <pt x="496" y="0" on="1"/>
        <pt x="384" y="306" on="1"/>
        <pt x="361" y="368" on="0"/>
        <pt x="340" y="433" on="0"/>
      </contour>
      <contour>
        <pt x="346" y="104" on="1"/>
        <pt x="120" y="104" on="1"/>
        <pt x="183" y="251" on="1"/>
        <pt x="346" y="251" on="1"/>
      </contour>
      <contour>
        <pt x="565" y="104" on="1"/>
        <pt x="346" y="104" on="1"/>
        <pt x="346" y="251" on="1"/>
        <pt x="508" y="251" on="1"/>
      </contour>
    </TTGlyph>
    <TTGlyph name="AE" xMin="-20" yMin="0" xMax="1107" yMax="700">
      <contour>
        <pt x="270" y="135" on="1"/>
        <pt x="363" y="299" on="1"/>
        <pt x="590" y="299" on="1"/>
        <pt x="572" y="213" on="1"/>
        <pt x="572" y="552" on="1"/>
        <pt x="591" y="541" on="1"/>
        <pt x="221" y="0" on="1"/>
        <pt x="-20" y="0" on="1"/>
        <pt x="468" y="700" on="1"/>
        <pt x="1107" y="700" on="1"/>
        <pt x="1107" y="525" on="1"/>
        <pt x="770" y="525" on="1"/>
        <pt x="779" y="534" on="1"/>
        <pt x="779" y="419" on="1"/>
        <pt x="771" y="436" on="1"/>
        <pt x="1062" y="436" on="1"/>
        <pt x="1062" y="272" on="1"/>
        <pt x="769" y="272" on="1"/>
        <pt x="779" y="286" on="1"/>
        <pt x="779" y="154" on="1"/>
        <pt x="770" y="175" on="1"/>
        <pt x="1107" y="175" on="1"/>
        <pt x="1107" y="0" on="1"/>
        <pt x="572" y="0" on="1"/>
        <pt x="572" y="166" on="1"/>
        <pt x="595" y="135" on="1"/>
      </contour>
    </TTGlyph>
    <TTGlyph name="AEacute" xMin="-20" yMin="0" xMax="1107" yMax="1017">
      <contour>
        <pt x="270" y="135" on="1"/>
        <pt x="363" y="299" on="1"/>
        <pt x="590" y="299" on="1"/>
        <pt x="572" y="213" on="1"/>
        <pt x="572" y="552" on="1"/>
        <pt x="591" y="541" on="1"/>
        <pt x="221" y="0" on="1"/>
        <pt x="-20" y="0" on="1"/>
        <pt x="468" y="700" on="1"/>
        <pt x="1107" y="700" on="1"/>
        <pt x="1107" y="525" on="1"/>
        <pt x="770" y="525" on="1"/>
        <pt x="779" y="534" on="1"/>
        <pt x="779" y="419" on="1"/>
        <pt x="771" y="436" on="1"/>
        <pt x="1062" y="436" on="1"/>
        <pt x="1062" y="272" on="1"/>
        <pt x="769" y="272" on="1"/>
        <pt x="779" y="286" on="1"/>
        <pt x="779" y="154" on="1"/>
        <pt x="770" y="175" on="1"/>
        <pt x="1107" y="175" on="1"/>
        <pt x="1107" y="0" on="1"/>
        <pt x="572" y="0" on="1"/>
        <pt x="572" y="166" on="1"/>
        <pt x="595" y="135" on="1"/>
      </contour>
      <contour>
        <pt x="938" y="892" on="1"/>
        <pt x="710" y="770" on="1"/>
        <pt x="650" y="863" on="1"/>
        <pt x="854" y="1017" on="1"/>
      </contour>
    </TTGlyph>
    <TTGlyph name="Aacute" xMin="-20" yMin="0" xMax="710" yMax="1017">
      <contour>
        <pt x="327" y="496" on="1"/>
        <pt x="361" y="496" on="1"/>
        <pt x="348" y="433" on="0"/>
        <pt x="326" y="367" on="0"/>
        <pt x="302" y="306" on="1"/>
        <pt x="190" y="0" on="1"/>
        <pt x="-20" y="0" on="1"/>
        <pt x="261" y="700" on="1"/>
        <pt x="431" y="700" on="1"/>
        <pt x="710" y="0" on="1"/>
        <pt x="496" y="0" on="1"/>
        <pt x="384" y="306" on="1"/>
        <pt x="361" y="368" on="0"/>
        <pt x="340" y="433" on="0"/>
      </contour>
      <contour>
        <pt x="346" y="104" on="1"/>
        <pt x="120" y="104" on="1"/>
        <pt x="183" y="251" on="1"/>
        <pt x="346" y="251" on="1"/>
      </contour>
      <contour>
        <pt x="565" y="104" on="1"/>
        <pt x="346" y="104" on="1"/>
        <pt x="346" y="251" on="1"/>
        <pt x="508" y="251" on="1"/>
      </contour>
      <contour>
        <pt x="530" y="892" on="1"/>
        <pt x="302" y="770" on="1"/>
        <pt x="242" y="863" on="1"/>
        <pt x="447" y="1017" on="1"/>
      </contour>
    </TTGlyph>
    <TTGlyph name="Abreve" xMin="-20" yMin="0" xMax="710" yMax="946">
      <contour>
        <pt x="327" y="496" on="1"/>
        <pt x="361" y="496" on="1"/>
        <pt x="348" y="433" on="0"/>
        <pt x="326" y="367" on="0"/>
        <pt x="302" y="306" on="1"/>
        <pt x="190" y="0" on="1"/>
        <pt x="-20" y="0" on="1"/>
        <pt x="261" y="700" on="1"/>
        <pt x="431" y="700" on="1"/>
        <pt x="710" y="0" on="1"/>
        <pt x="496" y="0" on="1"/>
        <pt x="384" y="306" on="1"/>
        <pt x="361" y="368" on="0"/>
        <pt x="340" y="433" on="0"/>
      </contour>
      <contour>
        <pt x="346" y="104" on="1"/>
        <pt x="120" y="104" on="1"/>
        <pt x="183" y="251" on="1"/>
        <pt x="346" y="251" on="1"/>
      </contour>
      <contour>
        <pt x="565" y="104" on="1"/>
        <pt x="346" y="104" on="1"/>
        <pt x="346" y="251" on="1"/>
        <pt x="508" y="251" on="1"/>
      </contour>
      <contour>
        <pt x="345" y="770" on="1"/>
        <pt x="272" y="770" on="0"/>
        <pt x="168" y="857" on="0"/>
        <pt x="153" y="934" on="1"/>
        <pt x="277" y="946" on="1"/>
        <pt x="286" y="920" on="0"/>
        <pt x="324" y="891" on="0"/>
        <pt x="345" y="891" on="1"/>
        <pt x="366" y="891" on="0"/>
        <pt x="404" y="920" on="0"/>
        <pt x="413" y="946" on="1"/>
        <pt x="537" y="934" on="1"/>
        <pt x="522" y="857" on="0"/>
        <pt x="418" y="770" on="0"/>
      </contour>
    </TTGlyph>
    <TTGlyph name="Acircumflex" xMin="-20" yMin="0" xMax="710" yMax="971">
      <contour>
        <pt x="327" y="496" on="1"/>
        <pt x="361" y="496" on="1"/>
        <pt x="348" y="433" on="0"/>
        <pt x="326" y="367" on="0"/>
        <pt x="302" y="306" on="1"/>
        <pt x="190" y="0" on="1"/>
        <pt x="-20" y="0" on="1"/>
        <pt x="261" y="700" on="1"/>
        <pt x="431" y="700" on="1"/>
        <pt x="710" y="0" on="1"/>
        <pt x="496" y="0" on="1"/>
        <pt x="384" y="306" on="1"/>
        <pt x="361" y="368" on="0"/>
        <pt x="340" y="433" on="0"/>
      </contour>
      <contour>
        <pt x="346" y="104" on="1"/>
        <pt x="120" y="104" on="1"/>
        <pt x="183" y="251" on="1"/>
        <pt x="346" y="251" on="1"/>
      </contour>
      <contour>
        <pt x="565" y="104" on="1"/>
        <pt x="346" y="104" on="1"/>
        <pt x="346" y="251" on="1"/>
        <pt x="508" y="251" on="1"/>
      </contour>
      <contour>
        <pt x="484" y="777" on="1"/>
        <pt x="331" y="863" on="1"/>
        <pt x="361" y="863" on="1"/>
        <pt x="208" y="777" on="1"/>
        <pt x="140" y="845" on="1"/>
        <pt x="295" y="971" on="1"/>
        <pt x="397" y="971" on="1"/>
        <pt x="552" y="845" on="1"/>
      </contour>
    </TTGlyph>
    <TTGlyph name="Adieresis" xMin="-20" yMin="0" xMax="710" yMax="970">
      <contour>
        <pt x="327" y="496" on="1"/>
        <pt x="361" y="496" on="1"/>
        <pt x="348" y="433" on="0"/>
        <pt x="326" y="367" on="0"/>
        <pt x="302" y="306" on="1"/>
        <pt x="190" y="0" on="1"/>
        <pt x="-20" y="0" on="1"/>
        <pt x="261" y="700" on="1"/>
        <pt x="431" y="700" on="1"/>
        <pt x="710" y="0" on="1"/>
        <pt x="496" y="0" on="1"/>
        <pt x="384" y="306" on="1"/>
        <pt x="361" y="368" on="0"/>
        <pt x="340" y="433" on="0"/>
      </contour>
      <contour>
        <pt x="346" y="104" on="1"/>
        <pt x="120" y="104" on="1"/>
        <pt x="183" y="251" on="1"/>
        <pt x="346" y="251" on="1"/>
      </contour>
      <contour>
        <pt x="565" y="104" on="1"/>
        <pt x="346" y="104" on="1"/>
        <pt x="346" y="251" on="1"/>
        <pt x="508" y="251" on="1"/>
      </contour>
      <contour>
        <pt x="310" y="870" on="1"/>
        <pt x="310" y="826" on="0"/>
        <pt x="256" y="770" on="0"/>
        <pt x="210" y="770" on="1"/>
        <pt x="162" y="770" on="0"/>
        <pt x="110" y="822" on="0"/>
        <pt x="110" y="870" on="1"/>
        <pt x="110" y="914" on="0"/>
        <pt x="164" y="970" on="0"/>
        <pt x="210" y="970" on="1"/>
        <pt x="258" y="970" on="0"/>
        <pt x="310" y="919" on="0"/>
      </contour>
      <contour>
        <pt x="580" y="870" on="1"/>
        <pt x="580" y="826" on="0"/>
        <pt x="526" y="770" on="0"/>
        <pt x="480" y="770" on="1"/>
        <pt x="432" y="770" on="0"/>
        <pt x="380" y="822" on="0"/>
        <pt x="380" y="870" on="1"/>
        <pt x="380" y="914" on="0"/>
        <pt x="434" y="970" on="0"/>
        <pt x="480" y="970" on="1"/>
        <pt x="528" y="970" on="0"/>
        <pt x="580" y="919" on="0"/>
      </contour>
    </TTGlyph>
    <TTGlyph name="Agrave" xMin="-20" yMin="0" xMax="710" yMax="1017">
      <contour>
        <pt x="327" y="496" on="1"/>
        <pt x="361" y="496" on="1"/>
        <pt x="348" y="433" on="0"/>
        <pt x="326" y="367" on="0"/>
        <pt x="302" y="306" on="1"/>
        <pt x="190" y="0" on="1"/>
        <pt x="-20" y="0" on="1"/>
        <pt x="261" y="700" on="1"/>
        <pt x="431" y="700" on="1"/>
        <pt x="710" y="0" on="1"/>
        <pt x="496" y="0" on="1"/>
        <pt x="384" y="306" on="1"/>
        <pt x="361" y="368" on="0"/>
        <pt x="340" y="433" on="0"/>
      </contour>
      <contour>
        <pt x="346" y="104" on="1"/>
        <pt x="120" y="104" on="1"/>
        <pt x="183" y="251" on="1"/>
        <pt x="346" y="251" on="1"/>
      </contour>
      <contour>
        <pt x="565" y="104" on="1"/>
        <pt x="346" y="104" on="1"/>
        <pt x="346" y="251" on="1"/>
        <pt x="508" y="251" on="1"/>
      </contour>
      <contour>
        <pt x="448" y="863" on="1"/>
        <pt x="388" y="770" on="1"/>
        <pt x="160" y="892" on="1"/>
        <pt x="243" y="1017" on="1"/>
      </contour>
    </TTGlyph>
    <TTGlyph name="Amacron" xMin="-20" yMin="0" xMax="710" yMax="890">
      <contour>
        <pt x="327" y="496" on="1"/>
        <pt x="361" y="496" on="1"/>
        <pt x="348" y="433" on="0"/>
        <pt x="326" y="367" on="0"/>
        <pt x="302" y="306" on="1"/>
        <pt x="190" y="0" on="1"/>
        <pt x="-20" y="0" on="1"/>
        <pt x="261" y="700" on="1"/>
        <pt x="431" y="700" on="1"/>
        <pt x="710" y="0" on="1"/>
        <pt x="496" y="0" on="1"/>
        <pt x="384" y="306" on="1"/>
        <pt x="361" y="368" on="0"/>
        <pt x="340" y="433" on="0"/>
      </contour>
      <contour>
        <pt x="346" y="104" on="1"/>
        <pt x="120" y="104" on="1"/>
        <pt x="183" y="251" on="1"/>
        <pt x="346" y="251" on="1"/>
      </contour>
      <contour>
        <pt x="565" y="104" on="1"/>
        <pt x="346" y="104" on="1"/>
        <pt x="346" y="251" on="1"/>
        <pt x="508" y="251" on="1"/>
      </contour>
      <contour>
        <pt x="534" y="770" on="1"/>
        <pt x="156" y="770" on="1"/>
        <pt x="156" y="890" on="1"/>
        <pt x="534" y="890" on="1"/>
      </contour>
    </TTGlyph>
    <TTGlyph name="Aogonek" xMin="-20" yMin="-215" xMax="734" yMax="700">
      <contour>
        <pt x="574" y="0" on="1"/>
        <pt x="496" y="0" on="1"/>
        <pt x="384" y="306" on="1"/>
        <pt x="377" y="323" on="0"/>
        <pt x="367" y="350" on="0"/>
        <pt x="363" y="363" on="1"/>
        <pt x="357" y="380" on="0"/>
        <pt x="344" y="420" on="0"/>
        <pt x="336" y="452" on="1"/>
        <pt x="353" y="452" on="1"/>
        <pt x="343" y="420" on="0"/>
        <pt x="330" y="379" on="0"/>
        <pt x="323" y="362" on="1"/>
        <pt x="319" y="349" on="0"/>
        <pt x="308" y="323" on="0"/>
        <pt x="302" y="306" on="1"/>
        <pt x="190" y="0" on="1"/>
        <pt x="-20" y="0" on="1"/>
        <pt x="261" y="700" on="1"/>
        <pt x="431" y="700" on="1"/>
        <pt x="707" y="8" on="1"/>
        <pt x="704" y="0" on="1"/>
        <pt x="666" y="-9" on="0"/>
        <pt x="611" y="-50" on="0"/>
        <pt x="611" y="-75" on="1"/>
        <pt x="611" y="-85" on="0"/>
        <pt x="623" y="-97" on="0"/>
        <pt x="634" y="-97" on="1"/>
        <pt x="643" y="-97" on="0"/>
        <pt x="655" y="-86" on="0"/>
        <pt x="663" y="-74" on="1"/>
        <pt x="734" y="-145" on="1"/>
        <pt x="718" y="-171" on="0"/>
        <pt x="654" y="-215" on="0"/>
        <pt x="614" y="-215" on="1"/>
        <pt x="558" y="-215" on="0"/>
        <pt x="485" y="-153" on="0"/>
        <pt x="485" y="-103" on="1"/>
        <pt x="485" y="-73" on="0"/>
        <pt x="518" y="-21" on="0"/>
        <pt x="571" y="18" on="1"/>
      </contour>
      <contour>
        <pt x="346" y="104" on="1"/>
        <pt x="120" y="104" on="1"/>
        <pt x="183" y="251" on="1"/>
        <pt x="346" y="251" on="1"/>
      </contour>
      <contour>
        <pt x="565" y="104" on="1"/>
        <pt x="346" y="104" on="1"/>
        <pt x="346" y="251" on="1"/>
        <pt x="508" y="251" on="1"/>
      </contour>
    </TTGlyph>
    <TTGlyph name="Aring" xMin="-20" yMin="0" xMax="710" yMax="946">
      <contour>
        <pt x="327" y="496" on="1"/>
        <pt x="361" y="496" on="1"/>
        <pt x="348" y="433" on="0"/>
        <pt x="326" y="367" on="0"/>
        <pt x="302" y="306" on="1"/>
        <pt x="190" y="0" on="1"/>
        <pt x="-20" y="0" on="1"/>
        <pt x="261" y="700" on="1"/>
        <pt x="431" y="700" on="1"/>
        <pt x="710" y="0" on="1"/>
        <pt x="496" y="0" on="1"/>
        <pt x="384" y="306" on="1"/>
        <pt x="361" y="368" on="0"/>
        <pt x="340" y="433" on="0"/>
      </contour>
      <contour>
        <pt x="346" y="104" on="1"/>
        <pt x="120" y="104" on="1"/>
        <pt x="183" y="251" on="1"/>
        <pt x="346" y="251" on="1"/>
      </contour>
      <contour>
        <pt x="565" y="104" on="1"/>
        <pt x="346" y="104" on="1"/>
        <pt x="346" y="251" on="1"/>
        <pt x="508" y="251" on="1"/>
      </contour>
      <contour>
        <pt x="494" y="800" on="1"/>
        <pt x="494" y="746" on="0"/>
        <pt x="406" y="665" on="0"/>
        <pt x="346" y="665" on="1"/>
        <pt x="286" y="665" on="0"/>
        <pt x="196" y="746" on="0"/>
        <pt x="196" y="800" on="1"/>
        <pt x="196" y="860" on="0"/>
        <pt x="284" y="946" on="0"/>
        <pt x="346" y="946" on="1"/>
        <pt x="406" y="946" on="0"/>
        <pt x="494" y="860" on="0"/>
      </contour>
      <contour>
        <pt x="310" y="800" on="1"/>
        <pt x="310" y="785" on="0"/>
        <pt x="332" y="764" on="0"/>
        <pt x="346" y="764" on="1"/>
        <pt x="360" y="764" on="0"/>
        <pt x="380" y="785" on="0"/>
        <pt x="380" y="800" on="1"/>
        <pt x="380" y="816" on="0"/>
        <pt x="360" y="837" on="0"/>
        <pt x="346" y="837" on="1"/>
        <pt x="332" y="837" on="0"/>
        <pt x="310" y="816" on="0"/>
      </contour>
    </TTGlyph>
    <TTGlyph name="Aringacute" xMin="-20" yMin="0" xMax="710" yMax="1212">
      <contour>
        <pt x="327" y="496" on="1"/>
        <pt x="361" y="496" on="1"/>
        <pt x="348" y="433" on="0"/>
        <pt x="326" y="367" on="0"/>
        <pt x="302" y="306" on="1"/>
        <pt x="190" y="0" on="1"/>
        <pt x="-20" y="0" on="1"/>
        <pt x="261" y="700" on="1"/>
        <pt x="431" y="700" on="1"/>
        <pt x="710" y="0" on="1"/>
        <pt x="496" y="0" on="1"/>
        <pt x="384" y="306" on="1"/>
        <pt x="361" y="368" on="0"/>
        <pt x="340" y="433" on="0"/>
      </contour>
      <contour>
        <pt x="346" y="104" on="1"/>
        <pt x="120" y="104" on="1"/>
        <pt x="183" y="251" on="1"/>
        <pt x="346" y="251" on="1"/>
      </contour>
      <contour>
        <pt x="565" y="104" on="1"/>
        <pt x="346" y="104" on="1"/>
        <pt x="346" y="251" on="1"/>
        <pt x="508" y="251" on="1"/>
      </contour>
      <contour>
        <pt x="494" y="800" on="1"/>
        <pt x="494" y="746" on="0"/>
        <pt x="406" y="665" on="0"/>
        <pt x="346" y="665" on="1"/>
        <pt x="286" y="665" on="0"/>
        <pt x="196" y="746" on="0"/>
        <pt x="196" y="800" on="1"/>
        <pt x="196" y="860" on="0"/>
        <pt x="284" y="946" on="0"/>
        <pt x="346" y="946" on="1"/>
        <pt x="406" y="946" on="0"/>
        <pt x="494" y="860" on="0"/>
      </contour>
      <contour>
        <pt x="310" y="800" on="1"/>
        <pt x="310" y="785" on="0"/>
        <pt x="332" y="764" on="0"/>
        <pt x="346" y="764" on="1"/>
        <pt x="360" y="764" on="0"/>
        <pt x="380" y="785" on="0"/>
        <pt x="380" y="800" on="1"/>
        <pt x="380" y="816" on="0"/>
        <pt x="360" y="837" on="0"/>
        <pt x="346" y="837" on="1"/>
        <pt x="332" y="837" on="0"/>
        <pt x="310" y="816" on="0"/>
      </contour>
      <contour>
        <pt x="509" y="1087" on="1"/>
        <pt x="281" y="965" on="1"/>
        <pt x="221" y="1058" on="1"/>
        <pt x="426" y="1212" on="1"/>
      </contour>
    </TTGlyph>
    <TTGlyph name="Atilde" xMin="-20" yMin="0" xMax="710" yMax="934">
      <contour>
        <pt x="327" y="496" on="1"/>
        <pt x="361" y="496" on="1"/>
        <pt x="348" y="433" on="0"/>
        <pt x="326" y="367" on="0"/>
        <pt x="302" y="306" on="1"/>
        <pt x="190" y="0" on="1"/>
        <pt x="-20" y="0" on="1"/>
        <pt x="261" y="700" on="1"/>
        <pt x="431" y="700" on="1"/>
        <pt x="710" y="0" on="1"/>
        <pt x="496" y="0" on="1"/>
        <pt x="384" y="306" on="1"/>
        <pt x="361" y="368" on="0"/>
        <pt x="340" y="433" on="0"/>
      </contour>
      <contour>
        <pt x="346" y="104" on="1"/>
        <pt x="120" y="104" on="1"/>
        <pt x="183" y="251" on="1"/>
        <pt x="346" y="251" on="1"/>
      </contour>
      <contour>
        <pt x="565" y="104" on="1"/>
        <pt x="346" y="104" on="1"/>
        <pt x="346" y="251" on="1"/>
        <pt x="508" y="251" on="1"/>
      </contour>
      <contour>
        <pt x="260" y="771" on="1"/>
        <pt x="144" y="771" on="1"/>
        <pt x="144" y="846" on="0"/>
        <pt x="216" y="934" on="0"/>
        <pt x="280" y="934" on="1"/>
        <pt x="294" y="934" on="0"/>
        <pt x="328" y="925" on="0"/>
        <pt x="360" y="911" on="1"/>
        <pt x="382" y="902" on="0"/>
        <pt x="398" y="894" on="0"/>
        <pt x="406" y="894" on="1"/>
        <pt x="418" y="894" on="0"/>
        <pt x="432" y="916" on="0"/>
        <pt x="430" y="934" on="1"/>
        <pt x="546" y="934" on="1"/>
        <pt x="546" y="864" on="0"/>
        <pt x="478" y="770" on="0"/>
        <pt x="424" y="770" on="1"/>
        <pt x="408" y="770" on="0"/>
        <pt x="368" y="780" on="0"/>
        <pt x="332" y="794" on="1"/>
        <pt x="310" y="802" on="0"/>
        <pt x="294" y="810" on="0"/>
        <pt x="288" y="810" on="1"/>
        <pt x="276" y="810" on="0"/>
        <pt x="260" y="789" on="0"/>
      </contour>
    </TTGlyph>
    <TTGlyph name="B" xMin="80" yMin="0" xMax="675" yMax="700">
      <contour>
        <pt x="80" y="700" on="1"/>
        <pt x="402" y="700" on="1"/>
        <pt x="516" y="700" on="0"/>
        <pt x="638" y="608" on="0"/>
        <pt x="638" y="531" on="1"/>
        <pt x="638" y="452" on="0"/>
        <pt x="549" y="364" on="0"/>
        <pt x="463" y="363" on="1"/>
        <pt x="464" y="399" on="1"/>
        <pt x="556" y="396" on="0"/>
        <pt x="675" y="296" on="0"/>
        <pt x="675" y="216" on="1"/>
        <pt x="675" y="106" on="0"/>
        <pt x="522" y="0" on="0"/>
        <pt x="412" y="0" on="1"/>
        <pt x="80" y="0" on="1"/>
      </contour>
      <contour>
        <pt x="430" y="478" on="1"/>
        <pt x="430" y="501" on="0"/>
        <pt x="399" y="530" on="0"/>
        <pt x="363" y="530" on="1"/>
        <pt x="248" y="530" on="1"/>
        <pt x="280" y="561" on="1"/>
        <pt x="280" y="399" on="1"/>
        <pt x="249" y="426" on="1"/>
        <pt x="365" y="426" on="1"/>
        <pt x="400" y="426" on="0"/>
        <pt x="430" y="453" on="0"/>
      </contour>
      <contour>
        <pt x="465" y="229" on="1"/>
        <pt x="465" y="254" on="0"/>
        <pt x="432" y="282" on="0"/>
        <pt x="401" y="282" on="1"/>
        <pt x="253" y="282" on="1"/>
        <pt x="280" y="314" on="1"/>
        <pt x="280" y="144" on="1"/>
        <pt x="252" y="170" on="1"/>
        <pt x="406" y="170" on="1"/>
        <pt x="434" y="170" on="0"/>
        <pt x="465" y="200" on="0"/>
      </contour>
    </TTGlyph>
    <TTGlyph name="C" xMin="40" yMin="-10" xMax="694" yMax="720">
      <contour>
        <pt x="590" y="249" on="1"/>
        <pt x="693" y="87" on="1"/>
        <pt x="654" y="45" on="0"/>
        <pt x="503" y="-10" on="0"/>
        <pt x="424" y="-10" on="1"/>
        <pt x="255" y="-10" on="0"/>
        <pt x="40" y="195" on="0"/>
        <pt x="40" y="355" on="1"/>
        <pt x="40" y="515" on="0"/>
        <pt x="258" y="720" on="0"/>
        <pt x="430" y="720" on="1"/>
        <pt x="503" y="720" on="0"/>
        <pt x="642" y="668" on="0"/>
        <pt x="694" y="614" on="1"/>
        <pt x="565" y="463" on="1"/>
        <pt x="544" y="489" on="0"/>
        <pt x="477" y="525" on="0"/>
        <pt x="428" y="525" on="1"/>
        <pt x="359" y="525" on="0"/>
        <pt x="262" y="435" on="0"/>
        <pt x="262" y="352" on="1"/>
        <pt x="262" y="276" on="0"/>
        <pt x="362" y="184" on="0"/>
        <pt x="446" y="184" on="1"/>
        <pt x="491" y="184" on="0"/>
        <pt x="566" y="222" on="0"/>
      </contour>
    </TTGlyph>
    <TTGlyph name="Cacute" xMin="40" yMin="-10" xMax="694" yMax="1017">
      <contour>
        <pt x="590" y="249" on="1"/>
        <pt x="693" y="87" on="1"/>
        <pt x="654" y="45" on="0"/>
        <pt x="503" y="-10" on="0"/>
        <pt x="424" y="-10" on="1"/>
        <pt x="255" y="-10" on="0"/>
        <pt x="40" y="195" on="0"/>
        <pt x="40" y="355" on="1"/>
        <pt x="40" y="515" on="0"/>
        <pt x="258" y="720" on="0"/>
        <pt x="430" y="720" on="1"/>
        <pt x="503" y="720" on="0"/>
        <pt x="642" y="668" on="0"/>
        <pt x="694" y="614" on="1"/>
        <pt x="565" y="463" on="1"/>
        <pt x="544" y="489" on="0"/>
        <pt x="477" y="525" on="0"/>
        <pt x="428" y="525" on="1"/>
        <pt x="359" y="525" on="0"/>
        <pt x="262" y="435" on="0"/>
        <pt x="262" y="352" on="1"/>
        <pt x="262" y="276" on="0"/>
        <pt x="362" y="184" on="0"/>
        <pt x="446" y="184" on="1"/>
        <pt x="491" y="184" on="0"/>
        <pt x="566" y="222" on="0"/>
      </contour>
      <contour>
        <pt x="573" y="892" on="1"/>
        <pt x="345" y="770" on="1"/>
        <pt x="285" y="863" on="1"/>
        <pt x="490" y="1017" on="1"/>
      </contour>
    </TTGlyph>
    <TTGlyph name="Ccaron" xMin="40" yMin="-10" xMax="694" yMax="974">
      <contour>
        <pt x="590" y="249" on="1"/>
        <pt x="693" y="87" on="1"/>
        <pt x="654" y="45" on="0"/>
        <pt x="503" y="-10" on="0"/>
        <pt x="424" y="-10" on="1"/>
        <pt x="255" y="-10" on="0"/>
        <pt x="40" y="195" on="0"/>
        <pt x="40" y="355" on="1"/>
        <pt x="40" y="515" on="0"/>
        <pt x="258" y="720" on="0"/>
        <pt x="430" y="720" on="1"/>
        <pt x="503" y="720" on="0"/>
        <pt x="642" y="668" on="0"/>
        <pt x="694" y="614" on="1"/>
        <pt x="565" y="463" on="1"/>
        <pt x="544" y="489" on="0"/>
        <pt x="477" y="525" on="0"/>
        <pt x="428" y="525" on="1"/>
        <pt x="359" y="525" on="0"/>
        <pt x="262" y="435" on="0"/>
        <pt x="262" y="352" on="1"/>
        <pt x="262" y="276" on="0"/>
        <pt x="362" y="184" on="0"/>
        <pt x="446" y="184" on="1"/>
        <pt x="491" y="184" on="0"/>
        <pt x="566" y="222" on="0"/>
      </contour>
      <contour>
        <pt x="538" y="974" on="1"/>
        <pt x="378" y="878" on="1"/>
        <pt x="408" y="878" on="1"/>
        <pt x="248" y="974" on="1"/>
        <pt x="176" y="912" on="1"/>
        <pt x="342" y="770" on="1"/>
        <pt x="444" y="770" on="1"/>
        <pt x="610" y="912" on="1"/>
      </contour>
    </TTGlyph>
    <TTGlyph name="Ccedilla" xMin="40" yMin="-243" xMax="694" yMax="720">
      <contour>
        <pt x="590" y="249" on="1"/>
        <pt x="693" y="87" on="1"/>
        <pt x="654" y="45" on="0"/>
        <pt x="503" y="-10" on="0"/>
        <pt x="424" y="-10" on="1"/>
        <pt x="255" y="-10" on="0"/>
        <pt x="40" y="195" on="0"/>
        <pt x="40" y="355" on="1"/>
        <pt x="40" y="515" on="0"/>
        <pt x="258" y="720" on="0"/>
        <pt x="430" y="720" on="1"/>
        <pt x="503" y="720" on="0"/>
        <pt x="642" y="668" on="0"/>
        <pt x="694" y="614" on="1"/>
        <pt x="565" y="463" on="1"/>
        <pt x="544" y="489" on="0"/>
        <pt x="477" y="525" on="0"/>
        <pt x="428" y="525" on="1"/>
        <pt x="359" y="525" on="0"/>
        <pt x="262" y="435" on="0"/>
        <pt x="262" y="352" on="1"/>
        <pt x="262" y="276" on="0"/>
        <pt x="362" y="184" on="0"/>
        <pt x="446" y="184" on="1"/>
        <pt x="491" y="184" on="0"/>
        <pt x="566" y="222" on="0"/>
      </contour>
      <contour>
        <pt x="394" y="-82" on="1"/>
        <pt x="311" y="-75" on="1"/>
        <pt x="378" y="29" on="1"/>
        <pt x="477" y="29" on="1"/>
      </contour>
      <contour>
        <pt x="534" y="-134" on="1"/>
        <pt x="534" y="-158" on="0"/>
        <pt x="498" y="-208" on="0"/>
        <pt x="466" y="-223" on="1"/>
        <pt x="435" y="-236" on="0"/>
        <pt x="357" y="-243" on="0"/>
        <pt x="314" y="-242" on="1"/>
        <pt x="303" y="-151" on="1"/>
        <pt x="330" y="-151" on="0"/>
        <pt x="389" y="-137" on="0"/>
        <pt x="389" y="-120" on="1"/>
        <pt x="389" y="-105" on="0"/>
        <pt x="357" y="-91" on="0"/>
        <pt x="332" y="-91" on="1"/>
        <pt x="311" y="-77" on="1"/>
        <pt x="311" y="-75" on="1"/>
        <pt x="414" y="-34" on="1"/>
        <pt x="476" y="-34" on="0"/>
        <pt x="534" y="-93" on="0"/>
      </contour>
    </TTGlyph>
    <TTGlyph name="Ccircumflex" xMin="40" yMin="-10" xMax="694" yMax="971">
      <contour>
        <pt x="590" y="249" on="1"/>
        <pt x="693" y="87" on="1"/>
        <pt x="654" y="45" on="0"/>
        <pt x="503" y="-10" on="0"/>
        <pt x="424" y="-10" on="1"/>
        <pt x="255" y="-10" on="0"/>
        <pt x="40" y="195" on="0"/>
        <pt x="40" y="355" on="1"/>
        <pt x="40" y="515" on="0"/>
        <pt x="258" y="720" on="0"/>
        <pt x="430" y="720" on="1"/>
        <pt x="503" y="720" on="0"/>
        <pt x="642" y="668" on="0"/>
        <pt x="694" y="614" on="1"/>
        <pt x="565" y="463" on="1"/>
        <pt x="544" y="489" on="0"/>
        <pt x="477" y="525" on="0"/>
        <pt x="428" y="525" on="1"/>
        <pt x="359" y="525" on="0"/>
        <pt x="262" y="435" on="0"/>
        <pt x="262" y="352" on="1"/>
        <pt x="262" y="276" on="0"/>
        <pt x="362" y="184" on="0"/>
        <pt x="446" y="184" on="1"/>
        <pt x="491" y="184" on="0"/>
        <pt x="566" y="222" on="0"/>
      </contour>
      <contour>
        <pt x="532" y="777" on="1"/>
        <pt x="379" y="863" on="1"/>
        <pt x="409" y="863" on="1"/>
        <pt x="256" y="777" on="1"/>
        <pt x="188" y="845" on="1"/>
        <pt x="343" y="971" on="1"/>
        <pt x="445" y="971" on="1"/>
        <pt x="600" y="845" on="1"/>
      </contour>
    </TTGlyph>
    <TTGlyph name="Cdotaccent" xMin="40" yMin="-10" xMax="694" yMax="962">
      <contour>
        <pt x="590" y="249" on="1"/>
        <pt x="693" y="87" on="1"/>
        <pt x="654" y="45" on="0"/>
        <pt x="503" y="-10" on="0"/>
        <pt x="424" y="-10" on="1"/>
        <pt x="255" y="-10" on="0"/>
        <pt x="40" y="195" on="0"/>
        <pt x="40" y="355" on="1"/>
        <pt x="40" y="515" on="0"/>
        <pt x="258" y="720" on="0"/>
        <pt x="430" y="720" on="1"/>
        <pt x="503" y="720" on="0"/>
        <pt x="642" y="668" on="0"/>
        <pt x="694" y="614" on="1"/>
        <pt x="565" y="463" on="1"/>
        <pt x="544" y="489" on="0"/>
        <pt x="477" y="525" on="0"/>
        <pt x="428" y="525" on="1"/>
        <pt x="359" y="525" on="0"/>
        <pt x="262" y="435" on="0"/>
        <pt x="262" y="352" on="1"/>
        <pt x="262" y="276" on="0"/>
        <pt x="362" y="184" on="0"/>
        <pt x="446" y="184" on="1"/>
        <pt x="491" y="184" on="0"/>
        <pt x="566" y="222" on="0"/>
      </contour>
      <contour>
        <pt x="512" y="866" on="1"/>
        <pt x="512" y="824" on="0"/>
        <pt x="450" y="770" on="0"/>
        <pt x="397" y="770" on="1"/>
        <pt x="343" y="770" on="0"/>
        <pt x="282" y="820" on="0"/>
        <pt x="282" y="866" on="1"/>
        <pt x="282" y="908" on="0"/>
        <pt x="344" y="962" on="0"/>
        <pt x="397" y="962" on="1"/>
        <pt x="451" y="962" on="0"/>
        <pt x="512" y="912" on="0"/>
      </contour>
    </TTGlyph>
    <TTGlyph name="D" xMin="80" yMin="0" xMax="750" yMax="700">
      <contour>
        <pt x="80" y="700" on="1"/>
        <pt x="388" y="700" on="1"/>
        <pt x="546" y="700" on="0"/>
        <pt x="750" y="503" on="0"/>
        <pt x="750" y="350" on="1"/>
        <pt x="750" y="197" on="0"/>
        <pt x="546" y="0" on="0"/>
        <pt x="388" y="0" on="1"/>
        <pt x="80" y="0" on="1"/>
      </contour>
      <contour>
        <pt x="259" y="184" on="1"/>
        <pt x="383" y="184" on="1"/>
        <pt x="448" y="184" on="0"/>
        <pt x="532" y="278" on="0"/>
        <pt x="532" y="350" on="1"/>
        <pt x="532" y="422" on="0"/>
        <pt x="448" y="516" on="0"/>
        <pt x="383" y="516" on="1"/>
        <pt x="256" y="516" on="1"/>
        <pt x="296" y="565" on="1"/>
        <pt x="296" y="133" on="1"/>
      </contour>
    </TTGlyph>
    <TTGlyph name="Dcaron" xMin="80" yMin="0" xMax="750" yMax="974">
      <contour>
        <pt x="80" y="700" on="1"/>
        <pt x="388" y="700" on="1"/>
        <pt x="546" y="700" on="0"/>
        <pt x="750" y="503" on="0"/>
        <pt x="750" y="350" on="1"/>
        <pt x="750" y="197" on="0"/>
        <pt x="546" y="0" on="0"/>
        <pt x="388" y="0" on="1"/>
        <pt x="80" y="0" on="1"/>
      </contour>
      <contour>
        <pt x="259" y="184" on="1"/>
        <pt x="383" y="184" on="1"/>
        <pt x="448" y="184" on="0"/>
        <pt x="532" y="278" on="0"/>
        <pt x="532" y="350" on="1"/>
        <pt x="532" y="422" on="0"/>
        <pt x="448" y="516" on="0"/>
        <pt x="383" y="516" on="1"/>
        <pt x="256" y="516" on="1"/>
        <pt x="296" y="565" on="1"/>
        <pt x="296" y="133" on="1"/>
      </contour>
      <contour>
        <pt x="506" y="974" on="1"/>
        <pt x="346" y="878" on="1"/>
        <pt x="376" y="878" on="1"/>
        <pt x="216" y="974" on="1"/>
        <pt x="144" y="912" on="1"/>
        <pt x="310" y="770" on="1"/>
        <pt x="412" y="770" on="1"/>
        <pt x="578" y="912" on="1"/>
      </contour>
    </TTGlyph>
    <TTGlyph name="Dcroat" xMin="9" yMin="0" xMax="750" yMax="700">
      <contour>
        <pt x="80" y="700" on="1"/>
        <pt x="388" y="700" on="1"/>
        <pt x="546" y="700" on="0"/>
        <pt x="750" y="503" on="0"/>
        <pt x="750" y="350" on="1"/>
        <pt x="750" y="197" on="0"/>
        <pt x="546" y="0" on="0"/>
        <pt x="388" y="0" on="1"/>
        <pt x="80" y="0" on="1"/>
      </contour>
      <contour>
        <pt x="259" y="184" on="1"/>
        <pt x="383" y="184" on="1"/>
        <pt x="448" y="184" on="0"/>
        <pt x="532" y="278" on="0"/>
        <pt x="532" y="350" on="1"/>
        <pt x="532" y="422" on="0"/>
        <pt x="448" y="516" on="0"/>
        <pt x="383" y="516" on="1"/>
        <pt x="256" y="516" on="1"/>
        <pt x="296" y="565" on="1"/>
        <pt x="296" y="133" on="1"/>
      </contour>
      <contour>
        <pt x="377" y="277" on="1"/>
        <pt x="9" y="277" on="1"/>
        <pt x="9" y="417" on="1"/>
        <pt x="377" y="417" on="1"/>
      </contour>
    </TTGlyph>
    <TTGlyph name="E" xMin="80" yMin="0" xMax="621" yMax="700">
      <contour>
        <pt x="287" y="0" on="1"/>
        <pt x="80" y="0" on="1"/>
        <pt x="80" y="700" on="1"/>
        <pt x="287" y="700" on="1"/>
      </contour>
      <contour>
        <pt x="621" y="0" on="1"/>
        <pt x="183" y="0" on="1"/>
        <pt x="183" y="175" on="1"/>
        <pt x="621" y="175" on="1"/>
      </contour>
      <contour>
        <pt x="566" y="272" on="1"/>
        <pt x="183" y="272" on="1"/>
        <pt x="183" y="436" on="1"/>
        <pt x="566" y="436" on="1"/>
      </contour>
      <contour>
        <pt x="603" y="525" on="1"/>
        <pt x="183" y="525" on="1"/>
        <pt x="183" y="700" on="1"/>
        <pt x="603" y="700" on="1"/>
      </contour>
    </TTGlyph>
    <TTGlyph name="Eacute" xMin="80" yMin="0" xMax="621" yMax="1017">
      <contour>
        <pt x="287" y="0" on="1"/>
        <pt x="80" y="0" on="1"/>
        <pt x="80" y="700" on="1"/>
        <pt x="287" y="700" on="1"/>
      </contour>
      <contour>
        <pt x="621" y="0" on="1"/>
        <pt x="183" y="0" on="1"/>
        <pt x="183" y="175" on="1"/>
        <pt x="621" y="175" on="1"/>
      </contour>
      <contour>
        <pt x="566" y="272" on="1"/>
        <pt x="183" y="272" on="1"/>
        <pt x="183" y="436" on="1"/>
        <pt x="566" y="436" on="1"/>
      </contour>
      <contour>
        <pt x="603" y="525" on="1"/>
        <pt x="183" y="525" on="1"/>
        <pt x="183" y="700" on="1"/>
        <pt x="603" y="700" on="1"/>
      </contour>
      <contour>
        <pt x="519" y="892" on="1"/>
        <pt x="291" y="770" on="1"/>
        <pt x="231" y="863" on="1"/>
        <pt x="436" y="1017" on="1"/>
      </contour>
    </TTGlyph>
    <TTGlyph name="Ebreve" xMin="80" yMin="0" xMax="621" yMax="946">
      <contour>
        <pt x="287" y="0" on="1"/>
        <pt x="80" y="0" on="1"/>
        <pt x="80" y="700" on="1"/>
        <pt x="287" y="700" on="1"/>
      </contour>
      <contour>
        <pt x="621" y="0" on="1"/>
        <pt x="183" y="0" on="1"/>
        <pt x="183" y="175" on="1"/>
        <pt x="621" y="175" on="1"/>
      </contour>
      <contour>
        <pt x="566" y="272" on="1"/>
        <pt x="183" y="272" on="1"/>
        <pt x="183" y="436" on="1"/>
        <pt x="566" y="436" on="1"/>
      </contour>
      <contour>
        <pt x="603" y="525" on="1"/>
        <pt x="183" y="525" on="1"/>
        <pt x="183" y="700" on="1"/>
        <pt x="603" y="700" on="1"/>
      </contour>
      <contour>
        <pt x="349" y="770" on="1"/>
        <pt x="276" y="770" on="0"/>
        <pt x="172" y="857" on="0"/>
        <pt x="157" y="934" on="1"/>
        <pt x="281" y="946" on="1"/>
        <pt x="290" y="920" on="0"/>
        <pt x="328" y="891" on="0"/>
        <pt x="349" y="891" on="1"/>
        <pt x="370" y="891" on="0"/>
        <pt x="408" y="920" on="0"/>
        <pt x="417" y="946" on="1"/>
        <pt x="541" y="934" on="1"/>
        <pt x="526" y="857" on="0"/>
        <pt x="422" y="770" on="0"/>
      </contour>
    </TTGlyph>
    <TTGlyph name="Ecaron" xMin="80" yMin="0" xMax="621" yMax="974">
      <contour>
        <pt x="287" y="0" on="1"/>
        <pt x="80" y="0" on="1"/>
        <pt x="80" y="700" on="1"/>
        <pt x="287" y="700" on="1"/>
      </contour>
      <contour>
        <pt x="621" y="0" on="1"/>
        <pt x="183" y="0" on="1"/>
        <pt x="183" y="175" on="1"/>
        <pt x="621" y="175" on="1"/>
      </contour>
      <contour>
        <pt x="566" y="272" on="1"/>
        <pt x="183" y="272" on="1"/>
        <pt x="183" y="436" on="1"/>
        <pt x="566" y="436" on="1"/>
      </contour>
      <contour>
        <pt x="603" y="525" on="1"/>
        <pt x="183" y="525" on="1"/>
        <pt x="183" y="700" on="1"/>
        <pt x="603" y="700" on="1"/>
      </contour>
      <contour>
        <pt x="494" y="974" on="1"/>
        <pt x="334" y="878" on="1"/>
        <pt x="364" y="878" on="1"/>
        <pt x="204" y="974" on="1"/>
        <pt x="132" y="912" on="1"/>
        <pt x="298" y="770" on="1"/>
        <pt x="400" y="770" on="1"/>
        <pt x="566" y="912" on="1"/>
      </contour>
    </TTGlyph>
    <TTGlyph name="Ecircumflex" xMin="80" yMin="0" xMax="621" yMax="971">
      <contour>
        <pt x="287" y="0" on="1"/>
        <pt x="80" y="0" on="1"/>
        <pt x="80" y="700" on="1"/>
        <pt x="287" y="700" on="1"/>
      </contour>
      <contour>
        <pt x="621" y="0" on="1"/>
        <pt x="183" y="0" on="1"/>
        <pt x="183" y="175" on="1"/>
        <pt x="621" y="175" on="1"/>
      </contour>
      <contour>
        <pt x="566" y="272" on="1"/>
        <pt x="183" y="272" on="1"/>
        <pt x="183" y="436" on="1"/>
        <pt x="566" y="436" on="1"/>
      </contour>
      <contour>
        <pt x="603" y="525" on="1"/>
        <pt x="183" y="525" on="1"/>
        <pt x="183" y="700" on="1"/>
        <pt x="603" y="700" on="1"/>
      </contour>
      <contour>
        <pt x="488" y="777" on="1"/>
        <pt x="335" y="863" on="1"/>
        <pt x="365" y="863" on="1"/>
        <pt x="212" y="777" on="1"/>
        <pt x="144" y="845" on="1"/>
        <pt x="299" y="971" on="1"/>
        <pt x="401" y="971" on="1"/>
        <pt x="556" y="845" on="1"/>
      </contour>
    </TTGlyph>
    <TTGlyph name="Edieresis" xMin="80" yMin="0" xMax="621" yMax="970">
      <contour>
        <pt x="287" y="0" on="1"/>
        <pt x="80" y="0" on="1"/>
        <pt x="80" y="700" on="1"/>
        <pt x="287" y="700" on="1"/>
      </contour>
      <contour>
        <pt x="621" y="0" on="1"/>
        <pt x="183" y="0" on="1"/>
        <pt x="183" y="175" on="1"/>
        <pt x="621" y="175" on="1"/>
      </contour>
      <contour>
        <pt x="566" y="272" on="1"/>
        <pt x="183" y="272" on="1"/>
        <pt x="183" y="436" on="1"/>
        <pt x="566" y="436" on="1"/>
      </contour>
      <contour>
        <pt x="603" y="525" on="1"/>
        <pt x="183" y="525" on="1"/>
        <pt x="183" y="700" on="1"/>
        <pt x="603" y="700" on="1"/>
      </contour>
      <contour>
        <pt x="314" y="870" on="1"/>
        <pt x="314" y="826" on="0"/>
        <pt x="260" y="770" on="0"/>
        <pt x="214" y="770" on="1"/>
        <pt x="166" y="770" on="0"/>
        <pt x="114" y="822" on="0"/>
        <pt x="114" y="870" on="1"/>
        <pt x="114" y="914" on="0"/>
        <pt x="168" y="970" on="0"/>
        <pt x="214" y="970" on="1"/>
        <pt x="262" y="970" on="0"/>
        <pt x="314" y="919" on="0"/>
      </contour>
      <contour>
        <pt x="584" y="870" on="1"/>
        <pt x="584" y="826" on="0"/>
        <pt x="530" y="770" on="0"/>
        <pt x="484" y="770" on="1"/>
        <pt x="436" y="770" on="0"/>
        <pt x="384" y="822" on="0"/>
        <pt x="384" y="870" on="1"/>
        <pt x="384" y="914" on="0"/>
        <pt x="438" y="970" on="0"/>
        <pt x="484" y="970" on="1"/>
        <pt x="532" y="970" on="0"/>
        <pt x="584" y="919" on="0"/>
      </contour>
    </TTGlyph>
    <TTGlyph name="Edotaccent" xMin="80" yMin="0" xMax="621" yMax="962">
      <contour>
        <pt x="287" y="0" on="1"/>
        <pt x="80" y="0" on="1"/>
        <pt x="80" y="700" on="1"/>
        <pt x="287" y="700" on="1"/>
      </contour>
      <contour>
        <pt x="621" y="0" on="1"/>
        <pt x="183" y="0" on="1"/>
        <pt x="183" y="175" on="1"/>
        <pt x="621" y="175" on="1"/>
      </contour>
      <contour>
        <pt x="566" y="272" on="1"/>
        <pt x="183" y="272" on="1"/>
        <pt x="183" y="436" on="1"/>
        <pt x="566" y="436" on="1"/>
      </contour>
      <contour>
        <pt x="603" y="525" on="1"/>
        <pt x="183" y="525" on="1"/>
        <pt x="183" y="700" on="1"/>
        <pt x="603" y="700" on="1"/>
      </contour>
      <contour>
        <pt x="464" y="866" on="1"/>
        <pt x="464" y="824" on="0"/>
        <pt x="402" y="770" on="0"/>
        <pt x="349" y="770" on="1"/>
        <pt x="295" y="770" on="0"/>
        <pt x="234" y="820" on="0"/>
        <pt x="234" y="866" on="1"/>
        <pt x="234" y="908" on="0"/>
        <pt x="296" y="962" on="0"/>
        <pt x="349" y="962" on="1"/>
        <pt x="403" y="962" on="0"/>
        <pt x="464" y="912" on="0"/>
      </contour>
    </TTGlyph>
    <TTGlyph name="Egrave" xMin="80" yMin="0" xMax="621" yMax="1017">
      <contour>
        <pt x="287" y="0" on="1"/>
        <pt x="80" y="0" on="1"/>
        <pt x="80" y="700" on="1"/>
        <pt x="287" y="700" on="1"/>
      </contour>
      <contour>
        <pt x="621" y="0" on="1"/>
        <pt x="183" y="0" on="1"/>
        <pt x="183" y="175" on="1"/>
        <pt x="621" y="175" on="1"/>
      </contour>
      <contour>
        <pt x="566" y="272" on="1"/>
        <pt x="183" y="272" on="1"/>
        <pt x="183" y="436" on="1"/>
        <pt x="566" y="436" on="1"/>
      </contour>
      <contour>
        <pt x="603" y="525" on="1"/>
        <pt x="183" y="525" on="1"/>
        <pt x="183" y="700" on="1"/>
        <pt x="603" y="700" on="1"/>
      </contour>
      <contour>
        <pt x="470" y="863" on="1"/>
        <pt x="410" y="770" on="1"/>
        <pt x="182" y="892" on="1"/>
        <pt x="265" y="1017" on="1"/>
      </contour>
    </TTGlyph>
    <TTGlyph name="Emacron" xMin="80" yMin="0" xMax="621" yMax="890">
      <contour>
        <pt x="287" y="0" on="1"/>
        <pt x="80" y="0" on="1"/>
        <pt x="80" y="700" on="1"/>
        <pt x="287" y="700" on="1"/>
      </contour>
      <contour>
        <pt x="621" y="0" on="1"/>
        <pt x="183" y="0" on="1"/>
        <pt x="183" y="175" on="1"/>
        <pt x="621" y="175" on="1"/>
      </contour>
      <contour>
        <pt x="566" y="272" on="1"/>
        <pt x="183" y="272" on="1"/>
        <pt x="183" y="436" on="1"/>
        <pt x="566" y="436" on="1"/>
      </contour>
      <contour>
        <pt x="603" y="525" on="1"/>
        <pt x="183" y="525" on="1"/>
        <pt x="183" y="700" on="1"/>
        <pt x="603" y="700" on="1"/>
      </contour>
      <contour>
        <pt x="531" y="770" on="1"/>
        <pt x="152" y="770" on="1"/>
        <pt x="152" y="890" on="1"/>
        <pt x="531" y="890" on="1"/>
      </contour>
    </TTGlyph>
    <TTGlyph name="Eng" xMin="70" yMin="-207" xMax="727" yMax="700">
      <contour>
        <pt x="527" y="49" on="1"/>
        <pt x="535" y="-3" on="1"/>
        <pt x="253" y="384" on="1"/>
        <pt x="268" y="390" on="1"/>
        <pt x="272" y="349" on="0"/>
        <pt x="276" y="295" on="0"/>
        <pt x="277" y="270" on="1"/>
        <pt x="278" y="252" on="0"/>
        <pt x="278" y="215" on="0"/>
        <pt x="278" y="191" on="1"/>
        <pt x="278" y="0" on="1"/>
        <pt x="70" y="0" on="1"/>
        <pt x="70" y="700" on="1"/>
        <pt x="263" y="700" on="1"/>
        <pt x="550" y="304" on="1"/>
        <pt x="536" y="298" on="1"/>
        <pt x="524" y="394" on="0"/>
        <pt x="518" y="487" on="0"/>
        <pt x="519" y="570" on="1"/>
        <pt x="519" y="700" on="1"/>
        <pt x="727" y="700" on="1"/>
        <pt x="727" y="68" on="1"/>
        <pt x="727" y="0" on="1"/>
        <pt x="727" y="-114" on="0"/>
        <pt x="594" y="-207" on="0"/>
        <pt x="472" y="-207" on="1"/>
        <pt x="384" y="-48" on="1"/>
        <pt x="427" y="-48" on="0"/>
        <pt x="527" y="-26" on="0"/>
        <pt x="527" y="0" on="1"/>
      </contour>
    </TTGlyph>
    <TTGlyph name="Eogonek" xMin="80" yMin="-220" xMax="650" yMax="700">
      <contour>
        <pt x="287" y="0" on="1"/>
        <pt x="80" y="0" on="1"/>
        <pt x="80" y="700" on="1"/>
        <pt x="287" y="700" on="1"/>
      </contour>
      <contour>
        <pt x="621" y="0" on="1"/>
        <pt x="183" y="0" on="1"/>
        <pt x="183" y="175" on="1"/>
        <pt x="621" y="175" on="1"/>
      </contour>
      <contour>
        <pt x="566" y="272" on="1"/>
        <pt x="183" y="272" on="1"/>
        <pt x="183" y="436" on="1"/>
        <pt x="566" y="436" on="1"/>
      </contour>
      <contour>
        <pt x="603" y="525" on="1"/>
        <pt x="183" y="525" on="1"/>
        <pt x="183" y="700" on="1"/>
        <pt x="603" y="700" on="1"/>
      </contour>
      <contour>
        <pt x="521" y="-220" on="1"/>
        <pt x="465" y="-220" on="0"/>
        <pt x="392" y="-153" on="0"/>
        <pt x="392" y="-103" on="1"/>
        <pt x="392" y="-51" on="0"/>
        <pt x="486" y="27" on="0"/>
        <pt x="567" y="49" on="1"/>
        <pt x="578" y="44" on="1"/>
        <pt x="611" y="0" on="1"/>
        <pt x="573" y="-9" on="0"/>
        <pt x="518" y="-50" on="0"/>
        <pt x="518" y="-75" on="1"/>
        <pt x="518" y="-85" on="0"/>
        <pt x="530" y="-97" on="0"/>
        <pt x="541" y="-97" on="1"/>
        <pt x="550" y="-97" on="0"/>
        <pt x="562" y="-86" on="0"/>
        <pt x="570" y="-74" on="1"/>
        <pt x="650" y="-133" on="1"/>
        <pt x="632" y="-163" on="0"/>
        <pt x="564" y="-220" on="0"/>
      </contour>
    </TTGlyph>
    <TTGlyph name="Eth" xMin="9" yMin="0" xMax="750" yMax="700">
      <contour>
        <pt x="80" y="700" on="1"/>
        <pt x="388" y="700" on="1"/>
        <pt x="546" y="700" on="0"/>
        <pt x="750" y="503" on="0"/>
        <pt x="750" y="350" on="1"/>
        <pt x="750" y="197" on="0"/>
        <pt x="546" y="0" on="0"/>
        <pt x="388" y="0" on="1"/>
        <pt x="80" y="0" on="1"/>
      </contour>
      <contour>
        <pt x="259" y="184" on="1"/>
        <pt x="383" y="184" on="1"/>
        <pt x="448" y="184" on="0"/>
        <pt x="532" y="278" on="0"/>
        <pt x="532" y="350" on="1"/>
        <pt x="532" y="422" on="0"/>
        <pt x="448" y="516" on="0"/>
        <pt x="383" y="516" on="1"/>
        <pt x="256" y="516" on="1"/>
        <pt x="296" y="565" on="1"/>
        <pt x="296" y="133" on="1"/>
      </contour>
      <contour>
        <pt x="377" y="277" on="1"/>
        <pt x="9" y="277" on="1"/>
        <pt x="9" y="417" on="1"/>
        <pt x="377" y="417" on="1"/>
      </contour>
    </TTGlyph>
    <TTGlyph name="Euro" xMin="20" yMin="-10" xMax="684" yMax="720">
      <contour>
        <pt x="517" y="269" on="1"/>
        <pt x="20" y="269" on="1"/>
        <pt x="20" y="329" on="1"/>
        <pt x="517" y="329" on="1"/>
      </contour>
      <contour>
        <pt x="517" y="382" on="1"/>
        <pt x="20" y="382" on="1"/>
        <pt x="20" y="442" on="1"/>
        <pt x="517" y="442" on="1"/>
      </contour>
      <contour>
        <pt x="478" y="-10" on="1"/>
        <pt x="309" y="-10" on="0"/>
        <pt x="91" y="196" on="0"/>
        <pt x="91" y="355" on="1"/>
        <pt x="91" y="514" on="0"/>
        <pt x="309" y="720" on="0"/>
        <pt x="478" y="720" on="1"/>
        <pt x="536" y="720" on="0"/>
        <pt x="635" y="696" on="0"/>
        <pt x="684" y="663" on="1"/>
        <pt x="579" y="492" on="1"/>
        <pt x="545" y="517" on="0"/>
        <pt x="490" y="530" on="0"/>
        <pt x="458" y="530" on="1"/>
        <pt x="394" y="530" on="0"/>
        <pt x="311" y="431" on="0"/>
        <pt x="311" y="355" on="1"/>
        <pt x="311" y="279" on="0"/>
        <pt x="394" y="180" on="0"/>
        <pt x="458" y="180" on="1"/>
        <pt x="493" y="180" on="0"/>
        <pt x="547" y="193" on="0"/>
        <pt x="581" y="218" on="1"/>
        <pt x="677" y="44" on="1"/>
        <pt x="628" y="13" on="0"/>
        <pt x="532" y="-10" on="0"/>
      </contour>
    </TTGlyph>
    <TTGlyph name="F" xMin="80" yMin="0" xMax="583" yMax="700">
      <contour>
        <pt x="80" y="0" on="1"/>
        <pt x="80" y="700" on="1"/>
        <pt x="296" y="700" on="1"/>
        <pt x="296" y="0" on="1"/>
      </contour>
      <contour>
        <pt x="546" y="246" on="1"/>
        <pt x="183" y="246" on="1"/>
        <pt x="183" y="416" on="1"/>
        <pt x="546" y="416" on="1"/>
      </contour>
      <contour>
        <pt x="583" y="516" on="1"/>
        <pt x="183" y="516" on="1"/>
        <pt x="183" y="700" on="1"/>
        <pt x="583" y="700" on="1"/>
      </contour>
    </TTGlyph>
    <TTGlyph name="G" xMin="40" yMin="-10" xMax="753" yMax="720">
      <contour>
        <pt x="40" y="355" on="1"/>
        <pt x="40" y="514" on="0"/>
        <pt x="254" y="720" on="0"/>
        <pt x="430" y="720" on="1"/>
        <pt x="521" y="720" on="0"/>
        <pt x="666" y="655" on="0"/>
        <pt x="712" y="607" on="1"/>
        <pt x="584" y="471" on="1"/>
        <pt x="554" y="499" on="0"/>
        <pt x="480" y="536" on="0"/>
        <pt x="427" y="536" on="1"/>
        <pt x="356" y="536" on="0"/>
        <pt x="262" y="434" on="0"/>
        <pt x="262" y="355" on="1"/>
        <pt x="262" y="276" on="0"/>
        <pt x="360" y="174" on="0"/>
        <pt x="436" y="174" on="1"/>
        <pt x="487" y="174" on="0"/>
        <pt x="554" y="237" on="0"/>
        <pt x="554" y="285" on="1"/>
        <pt x="554" y="314" on="1"/>
        <pt x="582" y="266" on="1"/>
        <pt x="404" y="266" on="1"/>
        <pt x="404" y="418" on="1"/>
        <pt x="748" y="418" on="1"/>
        <pt x="750" y="401" on="0"/>
        <pt x="753" y="313" on="0"/>
        <pt x="753" y="299" on="1"/>
        <pt x="753" y="164" on="0"/>
        <pt x="562" y="-10" on="0"/>
        <pt x="414" y="-10" on="1"/>
        <pt x="234" y="-10" on="0"/>
        <pt x="40" y="196" on="0"/>
      </contour>
    </TTGlyph>
    <TTGlyph name="Gbreve" xMin="40" yMin="-10" xMax="753" yMax="946">
      <contour>
        <pt x="40" y="355" on="1"/>
        <pt x="40" y="514" on="0"/>
        <pt x="254" y="720" on="0"/>
        <pt x="430" y="720" on="1"/>
        <pt x="521" y="720" on="0"/>
        <pt x="666" y="655" on="0"/>
        <pt x="712" y="607" on="1"/>
        <pt x="584" y="471" on="1"/>
        <pt x="554" y="499" on="0"/>
        <pt x="480" y="536" on="0"/>
        <pt x="427" y="536" on="1"/>
        <pt x="356" y="536" on="0"/>
        <pt x="262" y="434" on="0"/>
        <pt x="262" y="355" on="1"/>
        <pt x="262" y="276" on="0"/>
        <pt x="360" y="174" on="0"/>
        <pt x="436" y="174" on="1"/>
        <pt x="487" y="174" on="0"/>
        <pt x="554" y="237" on="0"/>
        <pt x="554" y="285" on="1"/>
        <pt x="554" y="314" on="1"/>
        <pt x="582" y="266" on="1"/>
        <pt x="404" y="266" on="1"/>
        <pt x="404" y="418" on="1"/>
        <pt x="748" y="418" on="1"/>
        <pt x="750" y="401" on="0"/>
        <pt x="753" y="313" on="0"/>
        <pt x="753" y="299" on="1"/>
        <pt x="753" y="164" on="0"/>
        <pt x="562" y="-10" on="0"/>
        <pt x="414" y="-10" on="1"/>
        <pt x="234" y="-10" on="0"/>
        <pt x="40" y="196" on="0"/>
      </contour>
      <contour>
        <pt x="418" y="770" on="1"/>
        <pt x="345" y="770" on="0"/>
        <pt x="241" y="857" on="0"/>
        <pt x="226" y="934" on="1"/>
        <pt x="350" y="946" on="1"/>
        <pt x="359" y="920" on="0"/>
        <pt x="397" y="891" on="0"/>
        <pt x="418" y="891" on="1"/>
        <pt x="439" y="891" on="0"/>
        <pt x="477" y="920" on="0"/>
        <pt x="486" y="946" on="1"/>
        <pt x="610" y="934" on="1"/>
        <pt x="595" y="857" on="0"/>
        <pt x="491" y="770" on="0"/>
      </contour>
    </TTGlyph>
    <TTGlyph name="Gcaron" xMin="40" yMin="-10" xMax="753" yMax="974">
      <contour>
        <pt x="40" y="355" on="1"/>
        <pt x="40" y="514" on="0"/>
        <pt x="254" y="720" on="0"/>
        <pt x="430" y="720" on="1"/>
        <pt x="521" y="720" on="0"/>
        <pt x="666" y="655" on="0"/>
        <pt x="712" y="607" on="1"/>
        <pt x="584" y="471" on="1"/>
        <pt x="554" y="499" on="0"/>
        <pt x="480" y="536" on="0"/>
        <pt x="427" y="536" on="1"/>
        <pt x="356" y="536" on="0"/>
        <pt x="262" y="434" on="0"/>
        <pt x="262" y="355" on="1"/>
        <pt x="262" y="276" on="0"/>
        <pt x="360" y="174" on="0"/>
        <pt x="436" y="174" on="1"/>
        <pt x="487" y="174" on="0"/>
        <pt x="554" y="237" on="0"/>
        <pt x="554" y="285" on="1"/>
        <pt x="554" y="314" on="1"/>
        <pt x="582" y="266" on="1"/>
        <pt x="404" y="266" on="1"/>
        <pt x="404" y="418" on="1"/>
        <pt x="748" y="418" on="1"/>
        <pt x="750" y="401" on="0"/>
        <pt x="753" y="313" on="0"/>
        <pt x="753" y="299" on="1"/>
        <pt x="753" y="164" on="0"/>
        <pt x="562" y="-10" on="0"/>
        <pt x="414" y="-10" on="1"/>
        <pt x="234" y="-10" on="0"/>
        <pt x="40" y="196" on="0"/>
      </contour>
      <contour>
        <pt x="564" y="974" on="1"/>
        <pt x="404" y="878" on="1"/>
        <pt x="434" y="878" on="1"/>
        <pt x="274" y="974" on="1"/>
        <pt x="202" y="912" on="1"/>
        <pt x="368" y="770" on="1"/>
        <pt x="470" y="770" on="1"/>
        <pt x="636" y="912" on="1"/>
      </contour>
    </TTGlyph>
    <TTGlyph name="Gcircumflex" xMin="40" yMin="-10" xMax="753" yMax="971">
      <contour>
        <pt x="40" y="355" on="1"/>
        <pt x="40" y="514" on="0"/>
        <pt x="254" y="720" on="0"/>
        <pt x="430" y="720" on="1"/>
        <pt x="521" y="720" on="0"/>
        <pt x="666" y="655" on="0"/>
        <pt x="712" y="607" on="1"/>
        <pt x="584" y="471" on="1"/>
        <pt x="554" y="499" on="0"/>
        <pt x="480" y="536" on="0"/>
        <pt x="427" y="536" on="1"/>
        <pt x="356" y="536" on="0"/>
        <pt x="262" y="434" on="0"/>
        <pt x="262" y="355" on="1"/>
        <pt x="262" y="276" on="0"/>
        <pt x="360" y="174" on="0"/>
        <pt x="436" y="174" on="1"/>
        <pt x="487" y="174" on="0"/>
        <pt x="554" y="237" on="0"/>
        <pt x="554" y="285" on="1"/>
        <pt x="554" y="314" on="1"/>
        <pt x="582" y="266" on="1"/>
        <pt x="404" y="266" on="1"/>
        <pt x="404" y="418" on="1"/>
        <pt x="748" y="418" on="1"/>
        <pt x="750" y="401" on="0"/>
        <pt x="753" y="313" on="0"/>
        <pt x="753" y="299" on="1"/>
        <pt x="753" y="164" on="0"/>
        <pt x="562" y="-10" on="0"/>
        <pt x="414" y="-10" on="1"/>
        <pt x="234" y="-10" on="0"/>
        <pt x="40" y="196" on="0"/>
      </contour>
      <contour>
        <pt x="557" y="777" on="1"/>
        <pt x="404" y="863" on="1"/>
        <pt x="434" y="863" on="1"/>
        <pt x="281" y="777" on="1"/>
        <pt x="213" y="845" on="1"/>
        <pt x="368" y="971" on="1"/>
        <pt x="470" y="971" on="1"/>
        <pt x="625" y="845" on="1"/>
      </contour>
    </TTGlyph>
    <TTGlyph name="Gdotaccent" xMin="40" yMin="-10" xMax="753" yMax="962">
      <contour>
        <pt x="40" y="355" on="1"/>
        <pt x="40" y="514" on="0"/>
        <pt x="254" y="720" on="0"/>
        <pt x="430" y="720" on="1"/>
        <pt x="521" y="720" on="0"/>
        <pt x="666" y="655" on="0"/>
        <pt x="712" y="607" on="1"/>
        <pt x="584" y="471" on="1"/>
        <pt x="554" y="499" on="0"/>
        <pt x="480" y="536" on="0"/>
        <pt x="427" y="536" on="1"/>
        <pt x="356" y="536" on="0"/>
        <pt x="262" y="434" on="0"/>
        <pt x="262" y="355" on="1"/>
        <pt x="262" y="276" on="0"/>
        <pt x="360" y="174" on="0"/>
        <pt x="436" y="174" on="1"/>
        <pt x="487" y="174" on="0"/>
        <pt x="554" y="237" on="0"/>
        <pt x="554" y="285" on="1"/>
        <pt x="554" y="314" on="1"/>
        <pt x="582" y="266" on="1"/>
        <pt x="404" y="266" on="1"/>
        <pt x="404" y="418" on="1"/>
        <pt x="748" y="418" on="1"/>
        <pt x="750" y="401" on="0"/>
        <pt x="753" y="313" on="0"/>
        <pt x="753" y="299" on="1"/>
        <pt x="753" y="164" on="0"/>
        <pt x="562" y="-10" on="0"/>
        <pt x="414" y="-10" on="1"/>
        <pt x="234" y="-10" on="0"/>
        <pt x="40" y="196" on="0"/>
      </contour>
      <contour>
        <pt x="512" y="866" on="1"/>
        <pt x="512" y="824" on="0"/>
        <pt x="450" y="770" on="0"/>
        <pt x="396" y="770" on="1"/>
        <pt x="342" y="770" on="0"/>
        <pt x="282" y="820" on="0"/>
        <pt x="282" y="866" on="1"/>
        <pt x="282" y="908" on="0"/>
        <pt x="343" y="962" on="0"/>
        <pt x="396" y="962" on="1"/>
        <pt x="451" y="962" on="0"/>
        <pt x="512" y="912" on="0"/>
      </contour>
    </TTGlyph>
    <TTGlyph name="H" xMin="80" yMin="0" xMax="713" yMax="700">
      <contour>
        <pt x="80" y="700" on="1"/>
        <pt x="296" y="700" on="1"/>
        <pt x="296" y="0" on="1"/>
        <pt x="80" y="0" on="1"/>
      </contour>
      <contour>
        <pt x="497" y="700" on="1"/>
        <pt x="713" y="700" on="1"/>
        <pt x="713" y="0" on="1"/>
        <pt x="497" y="0" on="1"/>
      </contour>
      <contour>
        <pt x="161" y="255" on="1"/>
        <pt x="162" y="443" on="1"/>
        <pt x="619" y="443" on="1"/>
        <pt x="619" y="255" on="1"/>
      </contour>
    </TTGlyph>
    <TTGlyph name="Hbar" xMin="17" yMin="0" xMax="780" yMax="700">
      <contour>
        <pt x="80" y="488" on="1"/>
        <pt x="17" y="488" on="1"/>
        <pt x="17" y="652" on="1"/>
        <pt x="80" y="652" on="1"/>
        <pt x="189" y="642" on="1"/>
        <pt x="583" y="642" on="1"/>
        <pt x="713" y="652" on="1"/>
        <pt x="780" y="652" on="1"/>
        <pt x="780" y="488" on="1"/>
        <pt x="713" y="488" on="1"/>
        <pt x="595" y="498" on="1"/>
        <pt x="179" y="498" on="1"/>
      </contour>
      <contour>
        <pt x="80" y="700" on="1"/>
        <pt x="296" y="700" on="1"/>
        <pt x="296" y="0" on="1"/>
        <pt x="80" y="0" on="1"/>
      </contour>
      <contour>
        <pt x="497" y="700" on="1"/>
        <pt x="713" y="700" on="1"/>
        <pt x="713" y="0" on="1"/>
        <pt x="497" y="0" on="1"/>
      </contour>
      <contour>
        <pt x="161" y="255" on="1"/>
        <pt x="162" y="443" on="1"/>
        <pt x="619" y="443" on="1"/>
        <pt x="619" y="255" on="1"/>
      </contour>
    </TTGlyph>
    <TTGlyph name="Hcircumflex" xMin="80" yMin="0" xMax="713" yMax="971">
      <contour>
        <pt x="80" y="700" on="1"/>
        <pt x="296" y="700" on="1"/>
        <pt x="296" y="0" on="1"/>
        <pt x="80" y="0" on="1"/>
      </contour>
      <contour>
        <pt x="497" y="700" on="1"/>
        <pt x="713" y="700" on="1"/>
        <pt x="713" y="0" on="1"/>
        <pt x="497" y="0" on="1"/>
      </contour>
      <contour>
        <pt x="161" y="255" on="1"/>
        <pt x="162" y="443" on="1"/>
        <pt x="619" y="443" on="1"/>
        <pt x="619" y="255" on="1"/>
      </contour>
      <contour>
        <pt x="531" y="777" on="1"/>
        <pt x="378" y="863" on="1"/>
        <pt x="408" y="863" on="1"/>
        <pt x="255" y="777" on="1"/>
        <pt x="187" y="845" on="1"/>
        <pt x="342" y="971" on="1"/>
        <pt x="444" y="971" on="1"/>
        <pt x="599" y="845" on="1"/>
      </contour>
    </TTGlyph>
    <TTGlyph name="I" xMin="75" yMin="0" xMax="537" yMax="700">
      <contour>
        <pt x="414" y="700" on="1"/>
        <pt x="414" y="0" on="1"/>
        <pt x="198" y="0" on="1"/>
        <pt x="198" y="700" on="1"/>
        <pt x="225" y="700" on="0"/>
        <pt x="387" y="700" on="0"/>
      </contour>
      <contour>
        <pt x="537" y="700" on="1"/>
        <pt x="537" y="525" on="1"/>
        <pt x="75" y="525" on="1"/>
        <pt x="75" y="700" on="1"/>
      </contour>
      <contour>
        <pt x="537" y="175" on="1"/>
        <pt x="537" y="0" on="1"/>
        <pt x="75" y="0" on="1"/>
        <pt x="75" y="175" on="1"/>
      </contour>
    </TTGlyph>
    <TTGlyph name="I.ss01" xMin="80" yMin="0" xMax="296" yMax="700">
      <contour>
        <pt x="296" y="700" on="1"/>
        <pt x="296" y="0" on="1"/>
        <pt x="80" y="0" on="1"/>
        <pt x="80" y="700" on="1"/>
        <pt x="134" y="700" on="0"/>
        <pt x="242" y="700" on="0"/>
      </contour>
    </TTGlyph>
    <TTGlyph name="IJ" xMin="75" yMin="-10" xMax="1204" yMax="700">
      <contour>
        <pt x="414" y="700" on="1"/>
        <pt x="414" y="0" on="1"/>
        <pt x="198" y="0" on="1"/>
        <pt x="198" y="700" on="1"/>
        <pt x="225" y="700" on="0"/>
        <pt x="387" y="700" on="0"/>
      </contour>
      <contour>
        <pt x="537" y="700" on="1"/>
        <pt x="537" y="525" on="1"/>
        <pt x="75" y="525" on="1"/>
        <pt x="75" y="700" on="1"/>
      </contour>
      <contour>
        <pt x="537" y="175" on="1"/>
        <pt x="537" y="0" on="1"/>
        <pt x="75" y="0" on="1"/>
        <pt x="75" y="175" on="1"/>
      </contour>
      <contour>
        <pt x="867" y="-10" on="1"/>
        <pt x="782" y="-10" on="0"/>
        <pt x="666" y="55" on="0"/>
        <pt x="633" y="115" on="1"/>
        <pt x="752" y="238" on="1"/>
        <pt x="769" y="212" on="0"/>
        <pt x="811" y="179" on="0"/>
        <pt x="835" y="179" on="1"/>
        <pt x="859" y="179" on="0"/>
        <pt x="888" y="212" on="0"/>
        <pt x="888" y="240" on="1"/>
        <pt x="888" y="700" on="1"/>
        <pt x="1096" y="700" on="1"/>
        <pt x="1096" y="213" on="1"/>
        <pt x="1096" y="106" on="0"/>
        <pt x="962" y="-10" on="0"/>
      </contour>
      <contour>
        <pt x="1204" y="700" on="1"/>
        <pt x="1204" y="516" on="1"/>
        <pt x="759" y="516" on="1"/>
        <pt x="759" y="700" on="1"/>
      </contour>
    </TTGlyph>
    <TTGlyph name="IJ.ss01" xMin="80" yMin="-10" xMax="802" yMax="700">
      <contour>
        <pt x="296" y="700" on="1"/>
        <pt x="296" y="0" on="1"/>
        <pt x="80" y="0" on="1"/>
        <pt x="80" y="700" on="1"/>
        <pt x="134" y="700" on="0"/>
        <pt x="242" y="700" on="0"/>
      </contour>
      <contour>
        <pt x="559" y="-10" on="1"/>
        <pt x="469" y="-10" on="0"/>
        <pt x="354" y="53" on="0"/>
        <pt x="328" y="101" on="1"/>
        <pt x="453" y="227" on="1"/>
        <pt x="469" y="203" on="0"/>
        <pt x="509" y="174" on="0"/>
        <pt x="535" y="174" on="1"/>
        <pt x="559" y="174" on="0"/>
        <pt x="594" y="206" on="0"/>
        <pt x="594" y="236" on="1"/>
        <pt x="594" y="700" on="1"/>
        <pt x="802" y="700" on="1"/>
        <pt x="802" y="213" on="1"/>
        <pt x="802" y="106" on="0"/>
        <pt x="668" y="-10" on="0"/>
      </contour>
    </TTGlyph>
    <TTGlyph name="IJacute" xMin="75" yMin="-10" xMax="1204" yMax="1017">
      <contour>
        <pt x="414" y="700" on="1"/>
        <pt x="414" y="0" on="1"/>
        <pt x="198" y="0" on="1"/>
        <pt x="198" y="700" on="1"/>
        <pt x="225" y="700" on="0"/>
        <pt x="387" y="700" on="0"/>
      </contour>
      <contour>
        <pt x="537" y="700" on="1"/>
        <pt x="537" y="525" on="1"/>
        <pt x="75" y="525" on="1"/>
        <pt x="75" y="700" on="1"/>
      </contour>
      <contour>
        <pt x="537" y="175" on="1"/>
        <pt x="537" y="0" on="1"/>
        <pt x="75" y="0" on="1"/>
        <pt x="75" y="175" on="1"/>
      </contour>
      <contour>
        <pt x="867" y="-10" on="1"/>
        <pt x="782" y="-10" on="0"/>
        <pt x="666" y="55" on="0"/>
        <pt x="633" y="115" on="1"/>
        <pt x="752" y="238" on="1"/>
        <pt x="769" y="212" on="0"/>
        <pt x="811" y="179" on="0"/>
        <pt x="835" y="179" on="1"/>
        <pt x="859" y="179" on="0"/>
        <pt x="888" y="212" on="0"/>
        <pt x="888" y="240" on="1"/>
        <pt x="888" y="700" on="1"/>
        <pt x="1096" y="700" on="1"/>
        <pt x="1096" y="213" on="1"/>
        <pt x="1096" y="106" on="0"/>
        <pt x="962" y="-10" on="0"/>
      </contour>
      <contour>
        <pt x="1204" y="700" on="1"/>
        <pt x="1204" y="516" on="1"/>
        <pt x="759" y="516" on="1"/>
        <pt x="759" y="700" on="1"/>
      </contour>
      <contour>
        <pt x="1139" y="892" on="1"/>
        <pt x="911" y="770" on="1"/>
        <pt x="851" y="863" on="1"/>
        <pt x="1056" y="1017" on="1"/>
      </contour>
      <contour>
        <pt x="487" y="891" on="1"/>
        <pt x="259" y="769" on="1"/>
        <pt x="199" y="862" on="1"/>
        <pt x="404" y="1016" on="1"/>
      </contour>
    </TTGlyph>
    <TTGlyph name="IJacute.ss01" xMin="80" yMin="-10" xMax="902" yMax="1011">
      <contour>
        <pt x="296" y="700" on="1"/>
        <pt x="296" y="0" on="1"/>
        <pt x="80" y="0" on="1"/>
        <pt x="80" y="700" on="1"/>
        <pt x="134" y="700" on="0"/>
        <pt x="242" y="700" on="0"/>
      </contour>
      <contour>
        <pt x="559" y="-10" on="1"/>
        <pt x="469" y="-10" on="0"/>
        <pt x="354" y="53" on="0"/>
        <pt x="328" y="101" on="1"/>
        <pt x="453" y="227" on="1"/>
        <pt x="469" y="203" on="0"/>
        <pt x="509" y="174" on="0"/>
        <pt x="535" y="174" on="1"/>
        <pt x="559" y="174" on="0"/>
        <pt x="594" y="206" on="0"/>
        <pt x="594" y="236" on="1"/>
        <pt x="594" y="700" on="1"/>
        <pt x="802" y="700" on="1"/>
        <pt x="802" y="213" on="1"/>
        <pt x="802" y="106" on="0"/>
        <pt x="668" y="-10" on="0"/>
      </contour>
      <contour>
        <pt x="388" y="886" on="1"/>
        <pt x="160" y="764" on="1"/>
        <pt x="100" y="857" on="1"/>
        <pt x="305" y="1011" on="1"/>
      </contour>
      <contour>
        <pt x="902" y="886" on="1"/>
        <pt x="674" y="764" on="1"/>
        <pt x="614" y="857" on="1"/>
        <pt x="819" y="1011" on="1"/>
      </contour>
    </TTGlyph>
    <TTGlyph name="Iacute" xMin="75" yMin="0" xMax="537" yMax="1017">
      <contour>
        <pt x="414" y="700" on="1"/>
        <pt x="414" y="0" on="1"/>
        <pt x="198" y="0" on="1"/>
        <pt x="198" y="700" on="1"/>
        <pt x="225" y="700" on="0"/>
        <pt x="387" y="700" on="0"/>
      </contour>
      <contour>
        <pt x="537" y="700" on="1"/>
        <pt x="537" y="525" on="1"/>
        <pt x="75" y="525" on="1"/>
        <pt x="75" y="700" on="1"/>
      </contour>
      <contour>
        <pt x="537" y="175" on="1"/>
        <pt x="537" y="0" on="1"/>
        <pt x="75" y="0" on="1"/>
        <pt x="75" y="175" on="1"/>
      </contour>
      <contour>
        <pt x="467" y="892" on="1"/>
        <pt x="239" y="770" on="1"/>
        <pt x="179" y="863" on="1"/>
        <pt x="384" y="1017" on="1"/>
      </contour>
    </TTGlyph>
    <TTGlyph name="Iacute.ss01" xMin="80" yMin="0" xMax="382" yMax="1017">
      <contour>
        <pt x="296" y="700" on="1"/>
        <pt x="296" y="0" on="1"/>
        <pt x="80" y="0" on="1"/>
        <pt x="80" y="700" on="1"/>
        <pt x="134" y="700" on="0"/>
        <pt x="242" y="700" on="0"/>
      </contour>
      <contour>
        <pt x="382" y="892" on="1"/>
        <pt x="154" y="770" on="1"/>
        <pt x="94" y="863" on="1"/>
        <pt x="299" y="1017" on="1"/>
      </contour>
    </TTGlyph>
    <TTGlyph name="Iacute_J.loclNLD" xMin="75" yMin="-10" xMax="1143" yMax="1017">
      <contour>
        <pt x="414" y="700" on="1"/>
        <pt x="414" y="0" on="1"/>
        <pt x="198" y="0" on="1"/>
        <pt x="198" y="700" on="1"/>
        <pt x="225" y="700" on="0"/>
        <pt x="387" y="700" on="0"/>
      </contour>
      <contour>
        <pt x="537" y="700" on="1"/>
        <pt x="537" y="525" on="1"/>
        <pt x="75" y="525" on="1"/>
        <pt x="75" y="700" on="1"/>
      </contour>
      <contour>
        <pt x="537" y="175" on="1"/>
        <pt x="537" y="0" on="1"/>
        <pt x="75" y="0" on="1"/>
        <pt x="75" y="175" on="1"/>
      </contour>
      <contour>
        <pt x="467" y="892" on="1"/>
        <pt x="239" y="770" on="1"/>
        <pt x="179" y="863" on="1"/>
        <pt x="384" y="1017" on="1"/>
      </contour>
      <contour>
        <pt x="806" y="-10" on="1"/>
        <pt x="721" y="-10" on="0"/>
        <pt x="605" y="55" on="0"/>
        <pt x="572" y="115" on="1"/>
        <pt x="691" y="238" on="1"/>
        <pt x="708" y="212" on="0"/>
        <pt x="750" y="179" on="0"/>
        <pt x="774" y="179" on="1"/>
        <pt x="798" y="179" on="0"/>
        <pt x="827" y="212" on="0"/>
        <pt x="827" y="240" on="1"/>
        <pt x="827" y="700" on="1"/>
        <pt x="1035" y="700" on="1"/>
        <pt x="1035" y="213" on="1"/>
        <pt x="1035" y="106" on="0"/>
        <pt x="901" y="-10" on="0"/>
      </contour>
      <contour>
        <pt x="1143" y="700" on="1"/>
        <pt x="1143" y="516" on="1"/>
        <pt x="698" y="516" on="1"/>
        <pt x="698" y="700" on="1"/>
      </contour>
      <contour>
        <pt x="1089" y="892" on="1"/>
        <pt x="861" y="770" on="1"/>
        <pt x="801" y="863" on="1"/>
        <pt x="1006" y="1017" on="1"/>
      </contour>
    </TTGlyph>
    <TTGlyph name="Ibreve" xMin="75" yMin="0" xMax="537" yMax="946">
      <contour>
        <pt x="414" y="700" on="1"/>
        <pt x="414" y="0" on="1"/>
        <pt x="198" y="0" on="1"/>
        <pt x="198" y="700" on="1"/>
        <pt x="225" y="700" on="0"/>
        <pt x="387" y="700" on="0"/>
      </contour>
      <contour>
        <pt x="537" y="700" on="1"/>
        <pt x="537" y="525" on="1"/>
        <pt x="75" y="525" on="1"/>
        <pt x="75" y="700" on="1"/>
      </contour>
      <contour>
        <pt x="537" y="175" on="1"/>
        <pt x="537" y="0" on="1"/>
        <pt x="75" y="0" on="1"/>
        <pt x="75" y="175" on="1"/>
      </contour>
      <contour>
        <pt x="301" y="770" on="1"/>
        <pt x="228" y="770" on="0"/>
        <pt x="124" y="857" on="0"/>
        <pt x="109" y="934" on="1"/>
        <pt x="233" y="946" on="1"/>
        <pt x="242" y="920" on="0"/>
        <pt x="280" y="891" on="0"/>
        <pt x="301" y="891" on="1"/>
        <pt x="322" y="891" on="0"/>
        <pt x="360" y="920" on="0"/>
        <pt x="369" y="946" on="1"/>
        <pt x="493" y="934" on="1"/>
        <pt x="478" y="857" on="0"/>
        <pt x="374" y="770" on="0"/>
      </contour>
    </TTGlyph>
    <TTGlyph name="Ibreve.ss01" xMin="-4" yMin="0" xMax="380" yMax="946">
      <contour>
        <pt x="296" y="700" on="1"/>
        <pt x="296" y="0" on="1"/>
        <pt x="80" y="0" on="1"/>
        <pt x="80" y="700" on="1"/>
        <pt x="134" y="700" on="0"/>
        <pt x="242" y="700" on="0"/>
      </contour>
      <contour>
        <pt x="188" y="770" on="1"/>
        <pt x="115" y="770" on="0"/>
        <pt x="11" y="857" on="0"/>
        <pt x="-4" y="934" on="1"/>
        <pt x="120" y="946" on="1"/>
        <pt x="129" y="920" on="0"/>
        <pt x="167" y="891" on="0"/>
        <pt x="188" y="891" on="1"/>
        <pt x="209" y="891" on="0"/>
        <pt x="247" y="920" on="0"/>
        <pt x="256" y="946" on="1"/>
        <pt x="380" y="934" on="1"/>
        <pt x="365" y="857" on="0"/>
        <pt x="261" y="770" on="0"/>
      </contour>
    </TTGlyph>
    <TTGlyph name="Icircumflex" xMin="75" yMin="0" xMax="537" yMax="971">
      <contour>
        <pt x="414" y="700" on="1"/>
        <pt x="414" y="0" on="1"/>
        <pt x="198" y="0" on="1"/>
        <pt x="198" y="700" on="1"/>
        <pt x="225" y="700" on="0"/>
        <pt x="387" y="700" on="0"/>
      </contour>
      <contour>
        <pt x="537" y="700" on="1"/>
        <pt x="537" y="525" on="1"/>
        <pt x="75" y="525" on="1"/>
        <pt x="75" y="700" on="1"/>
      </contour>
      <contour>
        <pt x="537" y="175" on="1"/>
        <pt x="537" y="0" on="1"/>
        <pt x="75" y="0" on="1"/>
        <pt x="75" y="175" on="1"/>
      </contour>
      <contour>
        <pt x="440" y="777" on="1"/>
        <pt x="287" y="863" on="1"/>
        <pt x="317" y="863" on="1"/>
        <pt x="164" y="777" on="1"/>
        <pt x="96" y="845" on="1"/>
        <pt x="251" y="971" on="1"/>
        <pt x="353" y="971" on="1"/>
        <pt x="508" y="845" on="1"/>
      </contour>
    </TTGlyph>
    <TTGlyph name="Icircumflex.ss01" xMin="-17" yMin="0" xMax="395" yMax="971">
      <contour>
        <pt x="296" y="700" on="1"/>
        <pt x="296" y="0" on="1"/>
        <pt x="80" y="0" on="1"/>
        <pt x="80" y="700" on="1"/>
        <pt x="134" y="700" on="0"/>
        <pt x="242" y="700" on="0"/>
      </contour>
      <contour>
        <pt x="327" y="777" on="1"/>
        <pt x="174" y="863" on="1"/>
        <pt x="204" y="863" on="1"/>
        <pt x="51" y="777" on="1"/>
        <pt x="-17" y="845" on="1"/>
        <pt x="138" y="971" on="1"/>
        <pt x="240" y="971" on="1"/>
        <pt x="395" y="845" on="1"/>
      </contour>
    </TTGlyph>
    <TTGlyph name="Idieresis" xMin="66" yMin="0" xMax="537" yMax="970">
      <contour>
        <pt x="414" y="700" on="1"/>
        <pt x="414" y="0" on="1"/>
        <pt x="198" y="0" on="1"/>
        <pt x="198" y="700" on="1"/>
        <pt x="225" y="700" on="0"/>
        <pt x="387" y="700" on="0"/>
      </contour>
      <contour>
        <pt x="537" y="700" on="1"/>
        <pt x="537" y="525" on="1"/>
        <pt x="75" y="525" on="1"/>
        <pt x="75" y="700" on="1"/>
      </contour>
      <contour>
        <pt x="537" y="175" on="1"/>
        <pt x="537" y="0" on="1"/>
        <pt x="75" y="0" on="1"/>
        <pt x="75" y="175" on="1"/>
      </contour>
      <contour>
        <pt x="266" y="870" on="1"/>
        <pt x="266" y="826" on="0"/>
        <pt x="212" y="770" on="0"/>
        <pt x="166" y="770" on="1"/>
        <pt x="118" y="770" on="0"/>
        <pt x="66" y="822" on="0"/>
        <pt x="66" y="870" on="1"/>
        <pt x="66" y="914" on="0"/>
        <pt x="120" y="970" on="0"/>
        <pt x="166" y="970" on="1"/>
        <pt x="214" y="970" on="0"/>
        <pt x="266" y="919" on="0"/>
      </contour>
      <contour>
        <pt x="536" y="870" on="1"/>
        <pt x="536" y="826" on="0"/>
        <pt x="482" y="770" on="0"/>
        <pt x="436" y="770" on="1"/>
        <pt x="388" y="770" on="0"/>
        <pt x="336" y="822" on="0"/>
        <pt x="336" y="870" on="1"/>
        <pt x="336" y="914" on="0"/>
        <pt x="390" y="970" on="0"/>
        <pt x="436" y="970" on="1"/>
        <pt x="484" y="970" on="0"/>
        <pt x="536" y="919" on="0"/>
      </contour>
    </TTGlyph>
    <TTGlyph name="Idieresis.ss01" xMin="-48" yMin="0" xMax="424" yMax="970">
      <contour>
        <pt x="296" y="700" on="1"/>
        <pt x="296" y="0" on="1"/>
        <pt x="80" y="0" on="1"/>
        <pt x="80" y="700" on="1"/>
        <pt x="134" y="700" on="0"/>
        <pt x="242" y="700" on="0"/>
      </contour>
      <contour>
        <pt x="152" y="870" on="1"/>
        <pt x="152" y="826" on="0"/>
        <pt x="98" y="770" on="0"/>
        <pt x="52" y="770" on="1"/>
        <pt x="4" y="770" on="0"/>
        <pt x="-48" y="822" on="0"/>
        <pt x="-48" y="870" on="1"/>
        <pt x="-48" y="914" on="0"/>
        <pt x="6" y="970" on="0"/>
        <pt x="52" y="970" on="1"/>
        <pt x="100" y="970" on="0"/>
        <pt x="152" y="919" on="0"/>
      </contour>
      <contour>
        <pt x="424" y="870" on="1"/>
        <pt x="424" y="826" on="0"/>
        <pt x="370" y="770" on="0"/>
        <pt x="324" y="770" on="1"/>
        <pt x="276" y="770" on="0"/>
        <pt x="224" y="822" on="0"/>
        <pt x="224" y="870" on="1"/>
        <pt x="224" y="914" on="0"/>
        <pt x="278" y="970" on="0"/>
        <pt x="324" y="970" on="1"/>
        <pt x="372" y="970" on="0"/>
        <pt x="424" y="919" on="0"/>
      </contour>
    </TTGlyph>
    <TTGlyph name="Idotaccent" xMin="75" yMin="0" xMax="537" yMax="962">
      <contour>
        <pt x="414" y="700" on="1"/>
        <pt x="414" y="0" on="1"/>
        <pt x="198" y="0" on="1"/>
        <pt x="198" y="700" on="1"/>
        <pt x="225" y="700" on="0"/>
        <pt x="387" y="700" on="0"/>
      </contour>
      <contour>
        <pt x="537" y="700" on="1"/>
        <pt x="537" y="525" on="1"/>
        <pt x="75" y="525" on="1"/>
        <pt x="75" y="700" on="1"/>
      </contour>
      <contour>
        <pt x="537" y="175" on="1"/>
        <pt x="537" y="0" on="1"/>
        <pt x="75" y="0" on="1"/>
        <pt x="75" y="175" on="1"/>
      </contour>
      <contour>
        <pt x="416" y="866" on="1"/>
        <pt x="416" y="824" on="0"/>
        <pt x="354" y="770" on="0"/>
        <pt x="301" y="770" on="1"/>
        <pt x="247" y="770" on="0"/>
        <pt x="186" y="820" on="0"/>
        <pt x="186" y="866" on="1"/>
        <pt x="186" y="908" on="0"/>
        <pt x="248" y="962" on="0"/>
        <pt x="301" y="962" on="1"/>
        <pt x="355" y="962" on="0"/>
        <pt x="416" y="912" on="0"/>
      </contour>
    </TTGlyph>
    <TTGlyph name="Idotaccent.ss01" xMin="73" yMin="0" xMax="303" yMax="962">
      <contour>
        <pt x="296" y="700" on="1"/>
        <pt x="296" y="0" on="1"/>
        <pt x="80" y="0" on="1"/>
        <pt x="80" y="700" on="1"/>
        <pt x="134" y="700" on="0"/>
        <pt x="242" y="700" on="0"/>
      </contour>
      <contour>
        <pt x="303" y="866" on="1"/>
        <pt x="303" y="824" on="0"/>
        <pt x="241" y="770" on="0"/>
        <pt x="188" y="770" on="1"/>
        <pt x="134" y="770" on="0"/>
        <pt x="73" y="820" on="0"/>
        <pt x="73" y="866" on="1"/>
        <pt x="73" y="908" on="0"/>
        <pt x="135" y="962" on="0"/>
        <pt x="188" y="962" on="1"/>
        <pt x="242" y="962" on="0"/>
        <pt x="303" y="912" on="0"/>
      </contour>
    </TTGlyph>
    <TTGlyph name="Igrave" xMin="75" yMin="0" xMax="537" yMax="1017">
      <contour>
        <pt x="414" y="700" on="1"/>
        <pt x="414" y="0" on="1"/>
        <pt x="198" y="0" on="1"/>
        <pt x="198" y="700" on="1"/>
        <pt x="225" y="700" on="0"/>
        <pt x="387" y="700" on="0"/>
      </contour>
      <contour>
        <pt x="537" y="700" on="1"/>
        <pt x="537" y="525" on="1"/>
        <pt x="75" y="525" on="1"/>
        <pt x="75" y="700" on="1"/>
      </contour>
      <contour>
        <pt x="537" y="175" on="1"/>
        <pt x="537" y="0" on="1"/>
        <pt x="75" y="0" on="1"/>
        <pt x="75" y="175" on="1"/>
      </contour>
      <contour>
        <pt x="423" y="863" on="1"/>
        <pt x="363" y="770" on="1"/>
        <pt x="135" y="892" on="1"/>
        <pt x="218" y="1017" on="1"/>
      </contour>
    </TTGlyph>
    <TTGlyph name="Igrave.ss01" xMin="44" yMin="0" xMax="332" yMax="1017">
      <contour>
        <pt x="296" y="700" on="1"/>
        <pt x="296" y="0" on="1"/>
        <pt x="80" y="0" on="1"/>
        <pt x="80" y="700" on="1"/>
        <pt x="134" y="700" on="0"/>
        <pt x="242" y="700" on="0"/>
      </contour>
      <contour>
        <pt x="332" y="863" on="1"/>
        <pt x="272" y="770" on="1"/>
        <pt x="44" y="892" on="1"/>
        <pt x="127" y="1017" on="1"/>
      </contour>
    </TTGlyph>
    <TTGlyph name="Imacron" xMin="75" yMin="0" xMax="537" yMax="890">
      <contour>
        <pt x="414" y="700" on="1"/>
        <pt x="414" y="0" on="1"/>
        <pt x="198" y="0" on="1"/>
        <pt x="198" y="700" on="1"/>
        <pt x="225" y="700" on="0"/>
        <pt x="387" y="700" on="0"/>
      </contour>
      <contour>
        <pt x="537" y="700" on="1"/>
        <pt x="537" y="525" on="1"/>
        <pt x="75" y="525" on="1"/>
        <pt x="75" y="700" on="1"/>
      </contour>
      <contour>
        <pt x="537" y="175" on="1"/>
        <pt x="537" y="0" on="1"/>
        <pt x="75" y="0" on="1"/>
        <pt x="75" y="175" on="1"/>
      </contour>
      <contour>
        <pt x="490" y="770" on="1"/>
        <pt x="112" y="770" on="1"/>
        <pt x="112" y="890" on="1"/>
        <pt x="490" y="890" on="1"/>
      </contour>
    </TTGlyph>
    <TTGlyph name="Imacron.ss01" xMin="-2" yMin="0" xMax="378" yMax="911">
      <contour>
        <pt x="296" y="700" on="1"/>
        <pt x="296" y="0" on="1"/>
        <pt x="80" y="0" on="1"/>
        <pt x="80" y="700" on="1"/>
        <pt x="134" y="700" on="0"/>
        <pt x="242" y="700" on="0"/>
      </contour>
      <contour>
        <pt x="378" y="791" on="1"/>
        <pt x="-2" y="791" on="1"/>
        <pt x="-2" y="911" on="1"/>
        <pt x="378" y="911" on="1"/>
      </contour>
    </TTGlyph>
    <TTGlyph name="Iogonek" xMin="75" yMin="-216" xMax="539" yMax="700">
      <contour>
        <pt x="414" y="700" on="1"/>
        <pt x="414" y="0" on="1"/>
        <pt x="198" y="0" on="1"/>
        <pt x="198" y="700" on="1"/>
        <pt x="225" y="700" on="0"/>
        <pt x="387" y="700" on="0"/>
      </contour>
      <contour>
        <pt x="537" y="700" on="1"/>
        <pt x="537" y="525" on="1"/>
        <pt x="75" y="525" on="1"/>
        <pt x="75" y="700" on="1"/>
      </contour>
      <contour>
        <pt x="537" y="175" on="1"/>
        <pt x="537" y="0" on="1"/>
        <pt x="75" y="0" on="1"/>
        <pt x="75" y="175" on="1"/>
      </contour>
      <contour>
        <pt x="410" y="-216" on="1"/>
        <pt x="354" y="-216" on="0"/>
        <pt x="281" y="-149" on="0"/>
        <pt x="281" y="-99" on="1"/>
        <pt x="281" y="-47" on="0"/>
        <pt x="375" y="31" on="0"/>
        <pt x="456" y="53" on="1"/>
        <pt x="467" y="48" on="1"/>
        <pt x="500" y="4" on="1"/>
        <pt x="462" y="-5" on="0"/>
        <pt x="407" y="-46" on="0"/>
        <pt x="407" y="-71" on="1"/>
        <pt x="407" y="-81" on="0"/>
        <pt x="419" y="-93" on="0"/>
        <pt x="430" y="-93" on="1"/>
        <pt x="439" y="-93" on="0"/>
        <pt x="451" y="-82" on="0"/>
        <pt x="459" y="-70" on="1"/>
        <pt x="539" y="-129" on="1"/>
        <pt x="521" y="-159" on="0"/>
        <pt x="453" y="-216" on="0"/>
      </contour>
    </TTGlyph>
    <TTGlyph name="Iogonek.ss01" xMin="56" yMin="-220" xMax="314" yMax="700">
      <contour>
        <pt x="275" y="700" on="1"/>
        <pt x="275" y="0" on="1"/>
        <pt x="59" y="0" on="1"/>
        <pt x="59" y="700" on="1"/>
        <pt x="113" y="700" on="0"/>
        <pt x="221" y="700" on="0"/>
      </contour>
      <contour>
        <pt x="185" y="-220" on="1"/>
        <pt x="129" y="-220" on="0"/>
        <pt x="56" y="-153" on="0"/>
        <pt x="56" y="-103" on="1"/>
        <pt x="56" y="-51" on="0"/>
        <pt x="141" y="25" on="0"/>
        <pt x="231" y="49" on="1"/>
        <pt x="242" y="44" on="1"/>
        <pt x="275" y="0" on="1"/>
        <pt x="237" y="-9" on="0"/>
        <pt x="182" y="-50" on="0"/>
        <pt x="182" y="-75" on="1"/>
        <pt x="182" y="-85" on="0"/>
        <pt x="194" y="-97" on="0"/>
        <pt x="205" y="-97" on="1"/>
        <pt x="214" y="-97" on="0"/>
        <pt x="226" y="-86" on="0"/>
        <pt x="234" y="-74" on="1"/>
        <pt x="314" y="-133" on="1"/>
        <pt x="296" y="-163" on="0"/>
        <pt x="228" y="-220" on="0"/>
      </contour>
    </TTGlyph>
    <TTGlyph name="Itilde" xMin="75" yMin="0" xMax="537" yMax="934">
      <contour>
        <pt x="414" y="700" on="1"/>
        <pt x="414" y="0" on="1"/>
        <pt x="198" y="0" on="1"/>
        <pt x="198" y="700" on="1"/>
        <pt x="225" y="700" on="0"/>
        <pt x="387" y="700" on="0"/>
      </contour>
      <contour>
        <pt x="537" y="700" on="1"/>
        <pt x="537" y="525" on="1"/>
        <pt x="75" y="525" on="1"/>
        <pt x="75" y="700" on="1"/>
      </contour>
      <contour>
        <pt x="537" y="175" on="1"/>
        <pt x="537" y="0" on="1"/>
        <pt x="75" y="0" on="1"/>
        <pt x="75" y="175" on="1"/>
      </contour>
      <contour>
        <pt x="216" y="771" on="1"/>
        <pt x="100" y="771" on="1"/>
        <pt x="100" y="846" on="0"/>
        <pt x="172" y="934" on="0"/>
        <pt x="236" y="934" on="1"/>
        <pt x="250" y="934" on="0"/>
        <pt x="284" y="925" on="0"/>
        <pt x="316" y="911" on="1"/>
        <pt x="338" y="902" on="0"/>
        <pt x="354" y="894" on="0"/>
        <pt x="362" y="894" on="1"/>
        <pt x="374" y="894" on="0"/>
        <pt x="388" y="916" on="0"/>
        <pt x="386" y="934" on="1"/>
        <pt x="502" y="934" on="1"/>
        <pt x="502" y="864" on="0"/>
        <pt x="434" y="770" on="0"/>
        <pt x="380" y="770" on="1"/>
        <pt x="364" y="770" on="0"/>
        <pt x="324" y="780" on="0"/>
        <pt x="288" y="794" on="1"/>
        <pt x="266" y="802" on="0"/>
        <pt x="250" y="810" on="0"/>
        <pt x="244" y="810" on="1"/>
        <pt x="232" y="810" on="0"/>
        <pt x="216" y="789" on="0"/>
      </contour>
    </TTGlyph>
    <TTGlyph name="Itilde.ss01" xMin="-14" yMin="0" xMax="390" yMax="934">
      <contour>
        <pt x="296" y="700" on="1"/>
        <pt x="296" y="0" on="1"/>
        <pt x="80" y="0" on="1"/>
        <pt x="80" y="700" on="1"/>
        <pt x="134" y="700" on="0"/>
        <pt x="242" y="700" on="0"/>
      </contour>
      <contour>
        <pt x="104" y="771" on="1"/>
        <pt x="-14" y="771" on="1"/>
        <pt x="-14" y="846" on="0"/>
        <pt x="60" y="934" on="0"/>
        <pt x="122" y="934" on="1"/>
        <pt x="138" y="934" on="0"/>
        <pt x="172" y="925" on="0"/>
        <pt x="204" y="911" on="1"/>
        <pt x="224" y="902" on="0"/>
        <pt x="242" y="894" on="0"/>
        <pt x="248" y="894" on="1"/>
        <pt x="262" y="894" on="0"/>
        <pt x="274" y="916" on="0"/>
        <pt x="274" y="934" on="1"/>
        <pt x="390" y="934" on="1"/>
        <pt x="390" y="864" on="0"/>
        <pt x="322" y="770" on="0"/>
        <pt x="268" y="770" on="1"/>
        <pt x="250" y="770" on="0"/>
        <pt x="212" y="780" on="0"/>
        <pt x="174" y="794" on="1"/>
        <pt x="154" y="802" on="0"/>
        <pt x="136" y="810" on="0"/>
        <pt x="130" y="810" on="1"/>
        <pt x="118" y="810" on="0"/>
        <pt x="104" y="789" on="0"/>
      </contour>
    </TTGlyph>
    <TTGlyph name="J" xMin="31" yMin="-10" xMax="602" yMax="700">
      <contour>
        <pt x="265" y="-10" on="1"/>
        <pt x="180" y="-10" on="0"/>
        <pt x="64" y="55" on="0"/>
        <pt x="31" y="115" on="1"/>
        <pt x="150" y="238" on="1"/>
        <pt x="167" y="212" on="0"/>
        <pt x="209" y="179" on="0"/>
        <pt x="233" y="179" on="1"/>
        <pt x="257" y="179" on="0"/>
        <pt x="286" y="212" on="0"/>
        <pt x="286" y="240" on="1"/>
        <pt x="286" y="700" on="1"/>
        <pt x="494" y="700" on="1"/>
        <pt x="494" y="213" on="1"/>
        <pt x="494" y="106" on="0"/>
        <pt x="360" y="-10" on="0"/>
      </contour>
      <contour>
        <pt x="602" y="700" on="1"/>
        <pt x="602" y="516" on="1"/>
        <pt x="157" y="516" on="1"/>
        <pt x="157" y="700" on="1"/>
      </contour>
    </TTGlyph>
    <TTGlyph name="J.ss01" xMin="20" yMin="-10" xMax="494" yMax="700">
      <contour>
        <pt x="251" y="-10" on="1"/>
        <pt x="161" y="-10" on="0"/>
        <pt x="46" y="53" on="0"/>
        <pt x="20" y="101" on="1"/>
        <pt x="145" y="227" on="1"/>
        <pt x="161" y="203" on="0"/>
        <pt x="201" y="174" on="0"/>
        <pt x="227" y="174" on="1"/>
        <pt x="251" y="174" on="0"/>
        <pt x="286" y="206" on="0"/>
        <pt x="286" y="236" on="1"/>
        <pt x="286" y="700" on="1"/>
        <pt x="494" y="700" on="1"/>
        <pt x="494" y="213" on="1"/>
        <pt x="494" y="106" on="0"/>
        <pt x="360" y="-10" on="0"/>
      </contour>
    </TTGlyph>
    <TTGlyph name="Jacute.loclNLD" xMin="31" yMin="-10" xMax="602" yMax="1017">
      <contour>
        <pt x="265" y="-10" on="1"/>
        <pt x="180" y="-10" on="0"/>
        <pt x="64" y="55" on="0"/>
        <pt x="31" y="115" on="1"/>
        <pt x="150" y="238" on="1"/>
        <pt x="167" y="212" on="0"/>
        <pt x="209" y="179" on="0"/>
        <pt x="233" y="179" on="1"/>
        <pt x="257" y="179" on="0"/>
        <pt x="286" y="212" on="0"/>
        <pt x="286" y="240" on="1"/>
        <pt x="286" y="700" on="1"/>
        <pt x="494" y="700" on="1"/>
        <pt x="494" y="213" on="1"/>
        <pt x="494" y="106" on="0"/>
        <pt x="360" y="-10" on="0"/>
      </contour>
      <contour>
        <pt x="602" y="700" on="1"/>
        <pt x="602" y="516" on="1"/>
        <pt x="157" y="516" on="1"/>
        <pt x="157" y="700" on="1"/>
      </contour>
      <contour>
        <pt x="548" y="892" on="1"/>
        <pt x="320" y="770" on="1"/>
        <pt x="260" y="863" on="1"/>
        <pt x="465" y="1017" on="1"/>
      </contour>
    </TTGlyph>
    <TTGlyph name="Jcircumflex" xMin="31" yMin="-10" xMax="602" yMax="971">
      <contour>
        <pt x="265" y="-10" on="1"/>
        <pt x="180" y="-10" on="0"/>
        <pt x="64" y="55" on="0"/>
        <pt x="31" y="115" on="1"/>
        <pt x="150" y="238" on="1"/>
        <pt x="167" y="212" on="0"/>
        <pt x="209" y="179" on="0"/>
        <pt x="233" y="179" on="1"/>
        <pt x="257" y="179" on="0"/>
        <pt x="286" y="212" on="0"/>
        <pt x="286" y="240" on="1"/>
        <pt x="286" y="700" on="1"/>
        <pt x="494" y="700" on="1"/>
        <pt x="494" y="213" on="1"/>
        <pt x="494" y="106" on="0"/>
        <pt x="360" y="-10" on="0"/>
      </contour>
      <contour>
        <pt x="602" y="700" on="1"/>
        <pt x="602" y="516" on="1"/>
        <pt x="157" y="516" on="1"/>
        <pt x="157" y="700" on="1"/>
      </contour>
      <contour>
        <pt x="524" y="777" on="1"/>
        <pt x="371" y="863" on="1"/>
        <pt x="401" y="863" on="1"/>
        <pt x="248" y="777" on="1"/>
        <pt x="180" y="845" on="1"/>
        <pt x="335" y="971" on="1"/>
        <pt x="437" y="971" on="1"/>
        <pt x="592" y="845" on="1"/>
      </contour>
    </TTGlyph>
    <TTGlyph name="Jcircumflex.ss01" xMin="20" yMin="-10" xMax="594" yMax="921">
      <contour>
        <pt x="251" y="-10" on="1"/>
        <pt x="161" y="-10" on="0"/>
        <pt x="46" y="53" on="0"/>
        <pt x="20" y="101" on="1"/>
        <pt x="145" y="227" on="1"/>
        <pt x="161" y="203" on="0"/>
        <pt x="201" y="174" on="0"/>
        <pt x="227" y="174" on="1"/>
        <pt x="251" y="174" on="0"/>
        <pt x="286" y="206" on="0"/>
        <pt x="286" y="236" on="1"/>
        <pt x="286" y="700" on="1"/>
        <pt x="494" y="700" on="1"/>
        <pt x="494" y="213" on="1"/>
        <pt x="494" y="106" on="0"/>
        <pt x="360" y="-10" on="0"/>
      </contour>
      <contour>
        <pt x="526" y="727" on="1"/>
        <pt x="373" y="813" on="1"/>
        <pt x="403" y="813" on="1"/>
        <pt x="250" y="727" on="1"/>
        <pt x="182" y="795" on="1"/>
        <pt x="337" y="921" on="1"/>
        <pt x="439" y="921" on="1"/>
        <pt x="594" y="795" on="1"/>
      </contour>
    </TTGlyph>
    <TTGlyph name="K" xMin="80" yMin="0" xMax="764" yMax="700">
      <contour>
        <pt x="80" y="0" on="1"/>
        <pt x="80" y="700" on="1"/>
        <pt x="296" y="700" on="1"/>
        <pt x="296" y="0" on="1"/>
      </contour>
      <contour>
        <pt x="230" y="199" on="1"/>
        <pt x="157" y="359" on="1"/>
        <pt x="490" y="700" on="1"/>
        <pt x="735" y="700" on="1"/>
      </contour>
      <contour>
        <pt x="519" y="0" on="1"/>
        <pt x="265" y="331" on="1"/>
        <pt x="405" y="452" on="1"/>
        <pt x="764" y="0" on="1"/>
      </contour>
    </TTGlyph>
    <TTGlyph name="L" xMin="80" yMin="0" xMax="596" yMax="700">
      <contour>
        <pt x="190" y="184" on="1"/>
        <pt x="596" y="184" on="1"/>
        <pt x="596" y="0" on="1"/>
        <pt x="80" y="0" on="1"/>
        <pt x="80" y="700" on="1"/>
        <pt x="296" y="700" on="1"/>
        <pt x="296" y="78" on="1"/>
      </contour>
    </TTGlyph>
    <TTGlyph name="Lacute" xMin="33" yMin="0" xMax="596" yMax="1017">
      <contour>
        <pt x="190" y="184" on="1"/>
        <pt x="596" y="184" on="1"/>
        <pt x="596" y="0" on="1"/>
        <pt x="80" y="0" on="1"/>
        <pt x="80" y="700" on="1"/>
        <pt x="296" y="700" on="1"/>
        <pt x="296" y="78" on="1"/>
      </contour>
      <contour>
        <pt x="321" y="892" on="1"/>
        <pt x="93" y="770" on="1"/>
        <pt x="33" y="863" on="1"/>
        <pt x="238" y="1017" on="1"/>
      </contour>
    </TTGlyph>
    <TTGlyph name="Lcaron" xMin="80" yMin="0" xMax="632" yMax="740">
      <contour>
        <pt x="190" y="184" on="1"/>
        <pt x="596" y="184" on="1"/>
        <pt x="596" y="0" on="1"/>
        <pt x="80" y="0" on="1"/>
        <pt x="80" y="700" on="1"/>
        <pt x="296" y="700" on="1"/>
        <pt x="296" y="78" on="1"/>
      </contour>
      <contour>
        <pt x="519" y="740" on="1"/>
        <pt x="567" y="740" on="0"/>
        <pt x="632" y="665" on="0"/>
        <pt x="632" y="605" on="1"/>
        <pt x="632" y="534" on="0"/>
        <pt x="531" y="406" on="0"/>
        <pt x="452" y="385" on="1"/>
        <pt x="400" y="449" on="1"/>
        <pt x="444" y="466" on="0"/>
        <pt x="496" y="524" on="0"/>
        <pt x="496" y="544" on="1"/>
        <pt x="496" y="553" on="0"/>
        <pt x="487" y="574" on="0"/>
        <pt x="468" y="585" on="1"/>
        <pt x="443" y="601" on="0"/>
        <pt x="423" y="638" on="0"/>
        <pt x="423" y="662" on="1"/>
        <pt x="423" y="698" on="0"/>
        <pt x="477" y="740" on="0"/>
      </contour>
    </TTGlyph>
    <TTGlyph name="Ldot" xMin="80" yMin="0" xMax="596" yMax="700">
      <contour>
        <pt x="190" y="184" on="1"/>
        <pt x="596" y="184" on="1"/>
        <pt x="596" y="0" on="1"/>
        <pt x="80" y="0" on="1"/>
        <pt x="80" y="700" on="1"/>
        <pt x="296" y="700" on="1"/>
        <pt x="296" y="78" on="1"/>
      </contour>
      <contour>
        <pt x="578" y="399" on="1"/>
        <pt x="578" y="355" on="0"/>
        <pt x="523" y="299" on="0"/>
        <pt x="479" y="299" on="1"/>
        <pt x="432" y="299" on="0"/>
        <pt x="380" y="351" on="0"/>
        <pt x="380" y="399" on="1"/>
        <pt x="380" y="443" on="0"/>
        <pt x="435" y="499" on="0"/>
        <pt x="479" y="499" on="1"/>
        <pt x="526" y="499" on="0"/>
        <pt x="578" y="447" on="0"/>
      </contour>
    </TTGlyph>
    <TTGlyph name="Lslash" xMin="-44" yMin="0" xMax="596" yMax="700">
      <contour>
        <pt x="190" y="184" on="1"/>
        <pt x="596" y="184" on="1"/>
        <pt x="596" y="0" on="1"/>
        <pt x="80" y="0" on="1"/>
        <pt x="80" y="700" on="1"/>
        <pt x="296" y="700" on="1"/>
        <pt x="296" y="78" on="1"/>
      </contour>
      <contour>
        <pt x="18" y="224" on="1"/>
        <pt x="-44" y="387" on="1"/>
        <pt x="363" y="564" on="1"/>
        <pt x="425" y="401" on="1"/>
      </contour>
    </TTGlyph>
    <TTGlyph name="M" xMin="80" yMin="0" xMax="808" yMax="700">
      <contour>
        <pt x="80" y="700" on="1"/>
        <pt x="266" y="700" on="1"/>
        <pt x="521" y="285" on="1"/>
        <pt x="370" y="286" on="1"/>
        <pt x="628" y="700" on="1"/>
        <pt x="808" y="700" on="1"/>
        <pt x="808" y="0" on="1"/>
        <pt x="600" y="0" on="1"/>
        <pt x="600" y="167" on="1"/>
        <pt x="600" y="257" on="0"/>
        <pt x="609" y="401" on="0"/>
        <pt x="620" y="472" on="1"/>
        <pt x="644" y="409" on="1"/>
        <pt x="475" y="147" on="1"/>
        <pt x="409" y="147" on="1"/>
        <pt x="243" y="409" on="1"/>
        <pt x="268" y="472" on="1"/>
        <pt x="279" y="405" on="0"/>
        <pt x="288" y="264" on="0"/>
        <pt x="288" y="167" on="1"/>
        <pt x="288" y="0" on="1"/>
        <pt x="80" y="0" on="1"/>
      </contour>
    </TTGlyph>
    <TTGlyph name="N" xMin="70" yMin="0" xMax="727" yMax="700">
      <contour>
        <pt x="519" y="570" on="1"/>
        <pt x="519" y="700" on="1"/>
        <pt x="727" y="700" on="1"/>
        <pt x="727" y="0" on="1"/>
        <pt x="532" y="0" on="1"/>
        <pt x="177" y="490" on="1"/>
        <pt x="258" y="466" on="1"/>
        <pt x="270" y="374" on="0"/>
        <pt x="278" y="283" on="0"/>
        <pt x="278" y="191" on="1"/>
        <pt x="278" y="0" on="1"/>
        <pt x="70" y="0" on="1"/>
        <pt x="70" y="700" on="1"/>
        <pt x="263" y="700" on="1"/>
        <pt x="585" y="255" on="1"/>
        <pt x="539" y="269" on="1"/>
        <pt x="527" y="369" on="0"/>
        <pt x="518" y="470" on="0"/>
      </contour>
    </TTGlyph>
    <TTGlyph name="Nacute" xMin="70" yMin="0" xMax="727" yMax="1017">
      <contour>
        <pt x="519" y="570" on="1"/>
        <pt x="519" y="700" on="1"/>
        <pt x="727" y="700" on="1"/>
        <pt x="727" y="0" on="1"/>
        <pt x="532" y="0" on="1"/>
        <pt x="177" y="490" on="1"/>
        <pt x="258" y="466" on="1"/>
        <pt x="270" y="374" on="0"/>
        <pt x="278" y="283" on="0"/>
        <pt x="278" y="191" on="1"/>
        <pt x="278" y="0" on="1"/>
        <pt x="70" y="0" on="1"/>
        <pt x="70" y="700" on="1"/>
        <pt x="263" y="700" on="1"/>
        <pt x="585" y="255" on="1"/>
        <pt x="539" y="269" on="1"/>
        <pt x="527" y="369" on="0"/>
        <pt x="518" y="470" on="0"/>
      </contour>
      <contour>
        <pt x="567" y="892" on="1"/>
        <pt x="339" y="770" on="1"/>
        <pt x="279" y="863" on="1"/>
        <pt x="484" y="1017" on="1"/>
      </contour>
    </TTGlyph>
    <TTGlyph name="Ncaron" xMin="70" yMin="0" xMax="727" yMax="974">
      <contour>
        <pt x="519" y="570" on="1"/>
        <pt x="519" y="700" on="1"/>
        <pt x="727" y="700" on="1"/>
        <pt x="727" y="0" on="1"/>
        <pt x="532" y="0" on="1"/>
        <pt x="177" y="490" on="1"/>
        <pt x="258" y="466" on="1"/>
        <pt x="270" y="374" on="0"/>
        <pt x="278" y="283" on="0"/>
        <pt x="278" y="191" on="1"/>
        <pt x="278" y="0" on="1"/>
        <pt x="70" y="0" on="1"/>
        <pt x="70" y="700" on="1"/>
        <pt x="263" y="700" on="1"/>
        <pt x="585" y="255" on="1"/>
        <pt x="539" y="269" on="1"/>
        <pt x="527" y="369" on="0"/>
        <pt x="518" y="470" on="0"/>
      </contour>
      <contour>
        <pt x="534" y="974" on="1"/>
        <pt x="374" y="878" on="1"/>
        <pt x="404" y="878" on="1"/>
        <pt x="244" y="974" on="1"/>
        <pt x="172" y="912" on="1"/>
        <pt x="338" y="770" on="1"/>
        <pt x="440" y="770" on="1"/>
        <pt x="606" y="912" on="1"/>
      </contour>
    </TTGlyph>
    <TTGlyph name="Ntilde" xMin="70" yMin="0" xMax="727" yMax="934">
      <contour>
        <pt x="519" y="570" on="1"/>
        <pt x="519" y="700" on="1"/>
        <pt x="727" y="700" on="1"/>
        <pt x="727" y="0" on="1"/>
        <pt x="532" y="0" on="1"/>
        <pt x="177" y="490" on="1"/>
        <pt x="258" y="466" on="1"/>
        <pt x="270" y="374" on="0"/>
        <pt x="278" y="283" on="0"/>
        <pt x="278" y="191" on="1"/>
        <pt x="278" y="0" on="1"/>
        <pt x="70" y="0" on="1"/>
        <pt x="70" y="700" on="1"/>
        <pt x="263" y="700" on="1"/>
        <pt x="585" y="255" on="1"/>
        <pt x="539" y="269" on="1"/>
        <pt x="527" y="369" on="0"/>
        <pt x="518" y="470" on="0"/>
      </contour>
      <contour>
        <pt x="314" y="771" on="1"/>
        <pt x="197" y="771" on="1"/>
        <pt x="197" y="846" on="0"/>
        <pt x="270" y="934" on="0"/>
        <pt x="333" y="934" on="1"/>
        <pt x="348" y="934" on="0"/>
        <pt x="382" y="925" on="0"/>
        <pt x="414" y="911" on="1"/>
        <pt x="435" y="902" on="0"/>
        <pt x="452" y="894" on="0"/>
        <pt x="459" y="894" on="1"/>
        <pt x="472" y="894" on="0"/>
        <pt x="485" y="916" on="0"/>
        <pt x="484" y="934" on="1"/>
        <pt x="600" y="934" on="1"/>
        <pt x="600" y="864" on="0"/>
        <pt x="532" y="770" on="0"/>
        <pt x="478" y="770" on="1"/>
        <pt x="461" y="770" on="0"/>
        <pt x="422" y="780" on="0"/>
        <pt x="385" y="794" on="1"/>
        <pt x="364" y="802" on="0"/>
        <pt x="347" y="810" on="0"/>
        <pt x="341" y="810" on="1"/>
        <pt x="329" y="810" on="0"/>
        <pt x="314" y="789" on="0"/>
      </contour>
    </TTGlyph>
    <TTGlyph name="O" xMin="40" yMin="-10" xMax="794" yMax="720">
      <contour>
        <pt x="417" y="720" on="1"/>
        <pt x="582" y="720" on="0"/>
        <pt x="794" y="514" on="0"/>
        <pt x="794" y="355" on="1"/>
        <pt x="794" y="196" on="0"/>
        <pt x="582" y="-10" on="0"/>
        <pt x="417" y="-10" on="1"/>
        <pt x="252" y="-10" on="0"/>
        <pt x="40" y="196" on="0"/>
        <pt x="40" y="355" on="1"/>
        <pt x="40" y="514" on="0"/>
        <pt x="252" y="720" on="0"/>
      </contour>
      <contour>
        <pt x="417" y="190" on="1"/>
        <pt x="485" y="190" on="0"/>
        <pt x="574" y="283" on="0"/>
        <pt x="574" y="355" on="1"/>
        <pt x="574" y="427" on="0"/>
        <pt x="485" y="520" on="0"/>
        <pt x="417" y="520" on="1"/>
        <pt x="349" y="520" on="0"/>
        <pt x="260" y="427" on="0"/>
        <pt x="260" y="355" on="1"/>
        <pt x="260" y="283" on="0"/>
        <pt x="349" y="190" on="0"/>
      </contour>
    </TTGlyph>
    <TTGlyph name="OE" xMin="40" yMin="0" xMax="1070" yMax="700">
      <contour>
        <pt x="40" y="350" on="1"/>
        <pt x="40" y="506" on="0"/>
        <pt x="233" y="700" on="0"/>
        <pt x="395" y="700" on="1"/>
        <pt x="1070" y="700" on="1"/>
        <pt x="1070" y="525" on="1"/>
        <pt x="728" y="525" on="1"/>
        <pt x="737" y="543" on="1"/>
        <pt x="737" y="432" on="1"/>
        <pt x="728" y="441" on="1"/>
        <pt x="1015" y="441" on="1"/>
        <pt x="1015" y="277" on="1"/>
        <pt x="731" y="277" on="1"/>
        <pt x="737" y="286" on="1"/>
        <pt x="737" y="168" on="1"/>
        <pt x="730" y="175" on="1"/>
        <pt x="1070" y="175" on="1"/>
        <pt x="1070" y="0" on="1"/>
        <pt x="375" y="0" on="1"/>
        <pt x="221" y="0" on="0"/>
        <pt x="40" y="193" on="0"/>
      </contour>
      <contour>
        <pt x="550" y="184" on="1"/>
        <pt x="530" y="137" on="1"/>
        <pt x="530" y="560" on="1"/>
        <pt x="550" y="516" on="1"/>
        <pt x="407" y="516" on="1"/>
        <pt x="336" y="516" on="0"/>
        <pt x="258" y="427" on="0"/>
        <pt x="258" y="350" on="1"/>
        <pt x="258" y="272" on="0"/>
        <pt x="336" y="184" on="0"/>
        <pt x="407" y="184" on="1"/>
      </contour>
    </TTGlyph>
    <TTGlyph name="Oacute" xMin="40" yMin="-10" xMax="794" yMax="1017">
      <contour>
        <pt x="417" y="720" on="1"/>
        <pt x="582" y="720" on="0"/>
        <pt x="794" y="514" on="0"/>
        <pt x="794" y="355" on="1"/>
        <pt x="794" y="196" on="0"/>
        <pt x="582" y="-10" on="0"/>
        <pt x="417" y="-10" on="1"/>
        <pt x="252" y="-10" on="0"/>
        <pt x="40" y="196" on="0"/>
        <pt x="40" y="355" on="1"/>
        <pt x="40" y="514" on="0"/>
        <pt x="252" y="720" on="0"/>
      </contour>
      <contour>
        <pt x="417" y="190" on="1"/>
        <pt x="485" y="190" on="0"/>
        <pt x="574" y="283" on="0"/>
        <pt x="574" y="355" on="1"/>
        <pt x="574" y="427" on="0"/>
        <pt x="485" y="520" on="0"/>
        <pt x="417" y="520" on="1"/>
        <pt x="349" y="520" on="0"/>
        <pt x="260" y="427" on="0"/>
        <pt x="260" y="355" on="1"/>
        <pt x="260" y="283" on="0"/>
        <pt x="349" y="190" on="0"/>
      </contour>
      <contour>
        <pt x="592" y="892" on="1"/>
        <pt x="364" y="770" on="1"/>
        <pt x="304" y="863" on="1"/>
        <pt x="509" y="1017" on="1"/>
      </contour>
    </TTGlyph>
    <TTGlyph name="Obreve" xMin="40" yMin="-10" xMax="794" yMax="946">
      <contour>
        <pt x="417" y="720" on="1"/>
        <pt x="582" y="720" on="0"/>
        <pt x="794" y="514" on="0"/>
        <pt x="794" y="355" on="1"/>
        <pt x="794" y="196" on="0"/>
        <pt x="582" y="-10" on="0"/>
        <pt x="417" y="-10" on="1"/>
        <pt x="252" y="-10" on="0"/>
        <pt x="40" y="196" on="0"/>
        <pt x="40" y="355" on="1"/>
        <pt x="40" y="514" on="0"/>
        <pt x="252" y="720" on="0"/>
      </contour>
      <contour>
        <pt x="417" y="190" on="1"/>
        <pt x="485" y="190" on="0"/>
        <pt x="574" y="283" on="0"/>
        <pt x="574" y="355" on="1"/>
        <pt x="574" y="427" on="0"/>
        <pt x="485" y="520" on="0"/>
        <pt x="417" y="520" on="1"/>
        <pt x="349" y="520" on="0"/>
        <pt x="260" y="427" on="0"/>
        <pt x="260" y="355" on="1"/>
        <pt x="260" y="283" on="0"/>
        <pt x="349" y="190" on="0"/>
      </contour>
      <contour>
        <pt x="417" y="770" on="1"/>
        <pt x="344" y="770" on="0"/>
        <pt x="240" y="857" on="0"/>
        <pt x="225" y="934" on="1"/>
        <pt x="349" y="946" on="1"/>
        <pt x="358" y="920" on="0"/>
        <pt x="396" y="891" on="0"/>
        <pt x="417" y="891" on="1"/>
        <pt x="438" y="891" on="0"/>
        <pt x="476" y="920" on="0"/>
        <pt x="485" y="946" on="1"/>
        <pt x="609" y="934" on="1"/>
        <pt x="594" y="857" on="0"/>
        <pt x="490" y="770" on="0"/>
      </contour>
    </TTGlyph>
    <TTGlyph name="Ocircumflex" xMin="40" yMin="-10" xMax="794" yMax="971">
      <contour>
        <pt x="417" y="720" on="1"/>
        <pt x="582" y="720" on="0"/>
        <pt x="794" y="514" on="0"/>
        <pt x="794" y="355" on="1"/>
        <pt x="794" y="196" on="0"/>
        <pt x="582" y="-10" on="0"/>
        <pt x="417" y="-10" on="1"/>
        <pt x="252" y="-10" on="0"/>
        <pt x="40" y="196" on="0"/>
        <pt x="40" y="355" on="1"/>
        <pt x="40" y="514" on="0"/>
        <pt x="252" y="720" on="0"/>
      </contour>
      <contour>
        <pt x="417" y="190" on="1"/>
        <pt x="485" y="190" on="0"/>
        <pt x="574" y="283" on="0"/>
        <pt x="574" y="355" on="1"/>
        <pt x="574" y="427" on="0"/>
        <pt x="485" y="520" on="0"/>
        <pt x="417" y="520" on="1"/>
        <pt x="349" y="520" on="0"/>
        <pt x="260" y="427" on="0"/>
        <pt x="260" y="355" on="1"/>
        <pt x="260" y="283" on="0"/>
        <pt x="349" y="190" on="0"/>
      </contour>
      <contour>
        <pt x="556" y="777" on="1"/>
        <pt x="403" y="863" on="1"/>
        <pt x="433" y="863" on="1"/>
        <pt x="280" y="777" on="1"/>
        <pt x="212" y="845" on="1"/>
        <pt x="367" y="971" on="1"/>
        <pt x="469" y="971" on="1"/>
        <pt x="624" y="845" on="1"/>
      </contour>
    </TTGlyph>
    <TTGlyph name="Odieresis" xMin="40" yMin="-10" xMax="794" yMax="970">
      <contour>
        <pt x="417" y="720" on="1"/>
        <pt x="582" y="720" on="0"/>
        <pt x="794" y="514" on="0"/>
        <pt x="794" y="355" on="1"/>
        <pt x="794" y="196" on="0"/>
        <pt x="582" y="-10" on="0"/>
        <pt x="417" y="-10" on="1"/>
        <pt x="252" y="-10" on="0"/>
        <pt x="40" y="196" on="0"/>
        <pt x="40" y="355" on="1"/>
        <pt x="40" y="514" on="0"/>
        <pt x="252" y="720" on="0"/>
      </contour>
      <contour>
        <pt x="417" y="190" on="1"/>
        <pt x="485" y="190" on="0"/>
        <pt x="574" y="283" on="0"/>
        <pt x="574" y="355" on="1"/>
        <pt x="574" y="427" on="0"/>
        <pt x="485" y="520" on="0"/>
        <pt x="417" y="520" on="1"/>
        <pt x="349" y="520" on="0"/>
        <pt x="260" y="427" on="0"/>
        <pt x="260" y="355" on="1"/>
        <pt x="260" y="283" on="0"/>
        <pt x="349" y="190" on="0"/>
      </contour>
      <contour>
        <pt x="382" y="870" on="1"/>
        <pt x="382" y="826" on="0"/>
        <pt x="328" y="770" on="0"/>
        <pt x="282" y="770" on="1"/>
        <pt x="234" y="770" on="0"/>
        <pt x="182" y="822" on="0"/>
        <pt x="182" y="870" on="1"/>
        <pt x="182" y="914" on="0"/>
        <pt x="236" y="970" on="0"/>
        <pt x="282" y="970" on="1"/>
        <pt x="330" y="970" on="0"/>
        <pt x="382" y="919" on="0"/>
      </contour>
      <contour>
        <pt x="652" y="870" on="1"/>
        <pt x="652" y="826" on="0"/>
        <pt x="598" y="770" on="0"/>
        <pt x="552" y="770" on="1"/>
        <pt x="504" y="770" on="0"/>
        <pt x="452" y="822" on="0"/>
        <pt x="452" y="870" on="1"/>
        <pt x="452" y="914" on="0"/>
        <pt x="506" y="970" on="0"/>
        <pt x="552" y="970" on="1"/>
        <pt x="600" y="970" on="0"/>
        <pt x="652" y="919" on="0"/>
      </contour>
    </TTGlyph>
    <TTGlyph name="Ograve" xMin="40" yMin="-10" xMax="794" yMax="1017">
      <contour>
        <pt x="417" y="720" on="1"/>
        <pt x="582" y="720" on="0"/>
        <pt x="794" y="514" on="0"/>
        <pt x="794" y="355" on="1"/>
        <pt x="794" y="196" on="0"/>
        <pt x="582" y="-10" on="0"/>
        <pt x="417" y="-10" on="1"/>
        <pt x="252" y="-10" on="0"/>
        <pt x="40" y="196" on="0"/>
        <pt x="40" y="355" on="1"/>
        <pt x="40" y="514" on="0"/>
        <pt x="252" y="720" on="0"/>
      </contour>
      <contour>
        <pt x="417" y="190" on="1"/>
        <pt x="485" y="190" on="0"/>
        <pt x="574" y="283" on="0"/>
        <pt x="574" y="355" on="1"/>
        <pt x="574" y="427" on="0"/>
        <pt x="485" y="520" on="0"/>
        <pt x="417" y="520" on="1"/>
        <pt x="349" y="520" on="0"/>
        <pt x="260" y="427" on="0"/>
        <pt x="260" y="355" on="1"/>
        <pt x="260" y="283" on="0"/>
        <pt x="349" y="190" on="0"/>
      </contour>
      <contour>
        <pt x="530" y="863" on="1"/>
        <pt x="470" y="770" on="1"/>
        <pt x="242" y="892" on="1"/>
        <pt x="325" y="1017" on="1"/>
      </contour>
    </TTGlyph>
    <TTGlyph name="Ohorn" xMin="40" yMin="-10" xMax="794" yMax="845">
      <contour>
        <pt x="417" y="720" on="1"/>
        <pt x="582" y="720" on="0"/>
        <pt x="794" y="514" on="0"/>
        <pt x="794" y="355" on="1"/>
        <pt x="794" y="196" on="0"/>
        <pt x="582" y="-10" on="0"/>
        <pt x="417" y="-10" on="1"/>
        <pt x="252" y="-10" on="0"/>
        <pt x="40" y="196" on="0"/>
        <pt x="40" y="355" on="1"/>
        <pt x="40" y="514" on="0"/>
        <pt x="252" y="720" on="0"/>
      </contour>
      <contour>
        <pt x="417" y="190" on="1"/>
        <pt x="485" y="190" on="0"/>
        <pt x="574" y="283" on="0"/>
        <pt x="574" y="355" on="1"/>
        <pt x="574" y="427" on="0"/>
        <pt x="485" y="520" on="0"/>
        <pt x="417" y="520" on="1"/>
        <pt x="349" y="520" on="0"/>
        <pt x="260" y="427" on="0"/>
        <pt x="260" y="355" on="1"/>
        <pt x="260" y="283" on="0"/>
        <pt x="349" y="190" on="0"/>
      </contour>
      <contour>
        <pt x="505" y="589" on="1"/>
        <pt x="505" y="711" on="1"/>
        <pt x="550" y="711" on="0"/>
        <pt x="594" y="778" on="0"/>
        <pt x="594" y="845" on="1"/>
        <pt x="746" y="845" on="1"/>
        <pt x="746" y="735" on="0"/>
        <pt x="620" y="589" on="0"/>
      </contour>
    </TTGlyph>
    <TTGlyph name="Ohungarumlaut" xMin="40" yMin="-10" xMax="794" yMax="1003">
      <contour>
        <pt x="417" y="720" on="1"/>
        <pt x="582" y="720" on="0"/>
        <pt x="794" y="514" on="0"/>
        <pt x="794" y="355" on="1"/>
        <pt x="794" y="196" on="0"/>
        <pt x="582" y="-10" on="0"/>
        <pt x="417" y="-10" on="1"/>
        <pt x="252" y="-10" on="0"/>
        <pt x="40" y="196" on="0"/>
        <pt x="40" y="355" on="1"/>
        <pt x="40" y="514" on="0"/>
        <pt x="252" y="720" on="0"/>
      </contour>
      <contour>
        <pt x="417" y="190" on="1"/>
        <pt x="485" y="190" on="0"/>
        <pt x="574" y="283" on="0"/>
        <pt x="574" y="355" on="1"/>
        <pt x="574" y="427" on="0"/>
        <pt x="485" y="520" on="0"/>
        <pt x="417" y="520" on="1"/>
        <pt x="349" y="520" on="0"/>
        <pt x="260" y="427" on="0"/>
        <pt x="260" y="355" on="1"/>
        <pt x="260" y="283" on="0"/>
        <pt x="349" y="190" on="0"/>
      </contour>
      <contour>
        <pt x="471" y="882" on="1"/>
        <pt x="243" y="760" on="1"/>
        <pt x="185" y="849" on="1"/>
        <pt x="391" y="1003" on="1"/>
      </contour>
      <contour>
        <pt x="753" y="882" on="1"/>
        <pt x="525" y="760" on="1"/>
        <pt x="467" y="849" on="1"/>
        <pt x="673" y="1003" on="1"/>
      </contour>
    </TTGlyph>
    <TTGlyph name="Omacron" xMin="40" yMin="-10" xMax="794" yMax="890">
      <contour>
        <pt x="417" y="720" on="1"/>
        <pt x="582" y="720" on="0"/>
        <pt x="794" y="514" on="0"/>
        <pt x="794" y="355" on="1"/>
        <pt x="794" y="196" on="0"/>
        <pt x="582" y="-10" on="0"/>
        <pt x="417" y="-10" on="1"/>
        <pt x="252" y="-10" on="0"/>
        <pt x="40" y="196" on="0"/>
        <pt x="40" y="355" on="1"/>
        <pt x="40" y="514" on="0"/>
        <pt x="252" y="720" on="0"/>
      </contour>
      <contour>
        <pt x="417" y="190" on="1"/>
        <pt x="485" y="190" on="0"/>
        <pt x="574" y="283" on="0"/>
        <pt x="574" y="355" on="1"/>
        <pt x="574" y="427" on="0"/>
        <pt x="485" y="520" on="0"/>
        <pt x="417" y="520" on="1"/>
        <pt x="349" y="520" on="0"/>
        <pt x="260" y="427" on="0"/>
        <pt x="260" y="355" on="1"/>
        <pt x="260" y="283" on="0"/>
        <pt x="349" y="190" on="0"/>
      </contour>
      <contour>
        <pt x="606" y="770" on="1"/>
        <pt x="228" y="770" on="1"/>
        <pt x="228" y="890" on="1"/>
        <pt x="606" y="890" on="1"/>
      </contour>
    </TTGlyph>
    <TTGlyph name="Oslash" xMin="40" yMin="-33" xMax="794" yMax="741">
      <contour>
        <pt x="151" y="-33" on="1"/>
        <pt x="88" y="20" on="1"/>
        <pt x="677" y="741" on="1"/>
        <pt x="745" y="694" on="1"/>
      </contour>
      <contour>
        <pt x="417" y="720" on="1"/>
        <pt x="582" y="720" on="0"/>
        <pt x="794" y="514" on="0"/>
        <pt x="794" y="355" on="1"/>
        <pt x="794" y="196" on="0"/>
        <pt x="582" y="-10" on="0"/>
        <pt x="417" y="-10" on="1"/>
        <pt x="252" y="-10" on="0"/>
        <pt x="40" y="196" on="0"/>
        <pt x="40" y="355" on="1"/>
        <pt x="40" y="514" on="0"/>
        <pt x="252" y="720" on="0"/>
      </contour>
      <contour>
        <pt x="417" y="190" on="1"/>
        <pt x="485" y="190" on="0"/>
        <pt x="574" y="283" on="0"/>
        <pt x="574" y="355" on="1"/>
        <pt x="574" y="427" on="0"/>
        <pt x="485" y="520" on="0"/>
        <pt x="417" y="520" on="1"/>
        <pt x="349" y="520" on="0"/>
        <pt x="260" y="427" on="0"/>
        <pt x="260" y="355" on="1"/>
        <pt x="260" y="283" on="0"/>
        <pt x="349" y="190" on="0"/>
      </contour>
    </TTGlyph>
    <TTGlyph name="Oslashacute" xMin="40" yMin="-33" xMax="794" yMax="1017">
      <contour>
        <pt x="151" y="-33" on="1"/>
        <pt x="88" y="20" on="1"/>
        <pt x="677" y="741" on="1"/>
        <pt x="745" y="694" on="1"/>
      </contour>
      <contour>
        <pt x="417" y="720" on="1"/>
        <pt x="582" y="720" on="0"/>
        <pt x="794" y="514" on="0"/>
        <pt x="794" y="355" on="1"/>
        <pt x="794" y="196" on="0"/>
        <pt x="582" y="-10" on="0"/>
        <pt x="417" y="-10" on="1"/>
        <pt x="252" y="-10" on="0"/>
        <pt x="40" y="196" on="0"/>
        <pt x="40" y="355" on="1"/>
        <pt x="40" y="514" on="0"/>
        <pt x="252" y="720" on="0"/>
      </contour>
      <contour>
        <pt x="417" y="190" on="1"/>
        <pt x="485" y="190" on="0"/>
        <pt x="574" y="283" on="0"/>
        <pt x="574" y="355" on="1"/>
        <pt x="574" y="427" on="0"/>
        <pt x="485" y="520" on="0"/>
        <pt x="417" y="520" on="1"/>
        <pt x="349" y="520" on="0"/>
        <pt x="260" y="427" on="0"/>
        <pt x="260" y="355" on="1"/>
        <pt x="260" y="283" on="0"/>
        <pt x="349" y="190" on="0"/>
      </contour>
      <contour>
        <pt x="592" y="892" on="1"/>
        <pt x="364" y="770" on="1"/>
        <pt x="304" y="863" on="1"/>
        <pt x="509" y="1017" on="1"/>
      </contour>
    </TTGlyph>
    <TTGlyph name="Otilde" xMin="40" yMin="-10" xMax="794" yMax="934">
      <contour>
        <pt x="417" y="720" on="1"/>
        <pt x="582" y="720" on="0"/>
        <pt x="794" y="514" on="0"/>
        <pt x="794" y="355" on="1"/>
        <pt x="794" y="196" on="0"/>
        <pt x="582" y="-10" on="0"/>
        <pt x="417" y="-10" on="1"/>
        <pt x="252" y="-10" on="0"/>
        <pt x="40" y="196" on="0"/>
        <pt x="40" y="355" on="1"/>
        <pt x="40" y="514" on="0"/>
        <pt x="252" y="720" on="0"/>
      </contour>
      <contour>
        <pt x="417" y="190" on="1"/>
        <pt x="485" y="190" on="0"/>
        <pt x="574" y="283" on="0"/>
        <pt x="574" y="355" on="1"/>
        <pt x="574" y="427" on="0"/>
        <pt x="485" y="520" on="0"/>
        <pt x="417" y="520" on="1"/>
        <pt x="349" y="520" on="0"/>
        <pt x="260" y="427" on="0"/>
        <pt x="260" y="355" on="1"/>
        <pt x="260" y="283" on="0"/>
        <pt x="349" y="190" on="0"/>
      </contour>
      <contour>
        <pt x="332" y="771" on="1"/>
        <pt x="216" y="771" on="1"/>
        <pt x="216" y="846" on="0"/>
        <pt x="288" y="934" on="0"/>
        <pt x="352" y="934" on="1"/>
        <pt x="366" y="934" on="0"/>
        <pt x="400" y="925" on="0"/>
        <pt x="432" y="911" on="1"/>
        <pt x="454" y="902" on="0"/>
        <pt x="470" y="894" on="0"/>
        <pt x="478" y="894" on="1"/>
        <pt x="490" y="894" on="0"/>
        <pt x="504" y="916" on="0"/>
        <pt x="502" y="934" on="1"/>
        <pt x="618" y="934" on="1"/>
        <pt x="618" y="864" on="0"/>
        <pt x="550" y="770" on="0"/>
        <pt x="496" y="770" on="1"/>
        <pt x="480" y="770" on="0"/>
        <pt x="440" y="780" on="0"/>
        <pt x="404" y="794" on="1"/>
        <pt x="382" y="802" on="0"/>
        <pt x="366" y="810" on="0"/>
        <pt x="360" y="810" on="1"/>
        <pt x="348" y="810" on="0"/>
        <pt x="332" y="789" on="0"/>
      </contour>
    </TTGlyph>
    <TTGlyph name="P" xMin="70" yMin="0" xMax="633" yMax="700">
      <contour>
        <pt x="70" y="700" on="1"/>
        <pt x="385" y="700" on="1"/>
        <pt x="493" y="700" on="0"/>
        <pt x="633" y="565" on="0"/>
        <pt x="633" y="460" on="1"/>
        <pt x="633" y="350" on="0"/>
        <pt x="493" y="208" on="0"/>
        <pt x="385" y="208" on="1"/>
        <pt x="250" y="208" on="1"/>
        <pt x="286" y="242" on="1"/>
        <pt x="286" y="0" on="1"/>
        <pt x="70" y="0" on="1"/>
      </contour>
      <contour>
        <pt x="249" y="392" on="1"/>
        <pt x="345" y="392" on="1"/>
        <pt x="374" y="392" on="0"/>
        <pt x="411" y="425" on="0"/>
        <pt x="411" y="456" on="1"/>
        <pt x="411" y="487" on="0"/>
        <pt x="374" y="516" on="0"/>
        <pt x="345" y="516" on="1"/>
        <pt x="249" y="516" on="1"/>
        <pt x="282" y="551" on="1"/>
        <pt x="282" y="358" on="1"/>
      </contour>
    </TTGlyph>
    <TTGlyph name="Q" xMin="40" yMin="-110" xMax="794" yMax="720">
      <contour>
        <pt x="417" y="720" on="1"/>
        <pt x="582" y="720" on="0"/>
        <pt x="794" y="514" on="0"/>
        <pt x="794" y="355" on="1"/>
        <pt x="794" y="196" on="0"/>
        <pt x="582" y="-3" on="0"/>
        <pt x="417" y="-3" on="1"/>
        <pt x="252" y="-3" on="0"/>
        <pt x="40" y="196" on="0"/>
        <pt x="40" y="355" on="1"/>
        <pt x="40" y="514" on="0"/>
        <pt x="252" y="720" on="0"/>
      </contour>
      <contour>
        <pt x="417" y="184" on="1"/>
        <pt x="486" y="184" on="0"/>
        <pt x="575" y="283" on="0"/>
        <pt x="575" y="358" on="1"/>
        <pt x="575" y="430" on="0"/>
        <pt x="486" y="522" on="0"/>
        <pt x="417" y="522" on="1"/>
        <pt x="348" y="522" on="0"/>
        <pt x="259" y="430" on="0"/>
        <pt x="259" y="358" on="1"/>
        <pt x="259" y="283" on="0"/>
        <pt x="348" y="184" on="0"/>
      </contour>
      <contour>
        <pt x="498" y="372" on="1"/>
        <pt x="765" y="1" on="1"/>
        <pt x="617" y="-110" on="1"/>
        <pt x="347" y="264" on="1"/>
      </contour>
    </TTGlyph>
    <TTGlyph name="R" xMin="70" yMin="0" xMax="678" yMax="700">
      <contour>
        <pt x="649" y="477" on="1"/>
        <pt x="649" y="368" on="0"/>
        <pt x="508" y="233" on="0"/>
        <pt x="398" y="233" on="1"/>
        <pt x="195" y="233" on="1"/>
        <pt x="195" y="383" on="1"/>
        <pt x="364" y="383" on="1"/>
        <pt x="401" y="383" on="0"/>
        <pt x="439" y="424" on="0"/>
        <pt x="439" y="460" on="1"/>
        <pt x="439" y="493" on="0"/>
        <pt x="400" y="530" on="0"/>
        <pt x="360" y="530" on="1"/>
        <pt x="198" y="530" on="1"/>
        <pt x="272" y="630" on="1"/>
        <pt x="272" y="0" on="1"/>
        <pt x="70" y="0" on="1"/>
        <pt x="70" y="700" on="1"/>
        <pt x="398" y="700" on="1"/>
        <pt x="508" y="700" on="0"/>
        <pt x="649" y="574" on="0"/>
      </contour>
      <contour>
        <pt x="259" y="316" on="1"/>
        <pt x="480" y="341" on="1"/>
        <pt x="678" y="0" on="1"/>
        <pt x="437" y="0" on="1"/>
      </contour>
    </TTGlyph>
    <TTGlyph name="Racute" xMin="70" yMin="0" xMax="678" yMax="1017">
      <contour>
        <pt x="649" y="477" on="1"/>
        <pt x="649" y="368" on="0"/>
        <pt x="508" y="233" on="0"/>
        <pt x="398" y="233" on="1"/>
        <pt x="195" y="233" on="1"/>
        <pt x="195" y="383" on="1"/>
        <pt x="364" y="383" on="1"/>
        <pt x="401" y="383" on="0"/>
        <pt x="439" y="424" on="0"/>
        <pt x="439" y="460" on="1"/>
        <pt x="439" y="493" on="0"/>
        <pt x="400" y="530" on="0"/>
        <pt x="360" y="530" on="1"/>
        <pt x="198" y="530" on="1"/>
        <pt x="272" y="630" on="1"/>
        <pt x="272" y="0" on="1"/>
        <pt x="70" y="0" on="1"/>
        <pt x="70" y="700" on="1"/>
        <pt x="398" y="700" on="1"/>
        <pt x="508" y="700" on="0"/>
        <pt x="649" y="574" on="0"/>
      </contour>
      <contour>
        <pt x="259" y="316" on="1"/>
        <pt x="480" y="341" on="1"/>
        <pt x="678" y="0" on="1"/>
        <pt x="437" y="0" on="1"/>
      </contour>
      <contour>
        <pt x="518" y="892" on="1"/>
        <pt x="290" y="770" on="1"/>
        <pt x="230" y="863" on="1"/>
        <pt x="435" y="1017" on="1"/>
      </contour>
    </TTGlyph>
    <TTGlyph name="Rcaron" xMin="70" yMin="0" xMax="678" yMax="974">
      <contour>
        <pt x="649" y="477" on="1"/>
        <pt x="649" y="368" on="0"/>
        <pt x="508" y="233" on="0"/>
        <pt x="398" y="233" on="1"/>
        <pt x="195" y="233" on="1"/>
        <pt x="195" y="383" on="1"/>
        <pt x="364" y="383" on="1"/>
        <pt x="401" y="383" on="0"/>
        <pt x="439" y="424" on="0"/>
        <pt x="439" y="460" on="1"/>
        <pt x="439" y="493" on="0"/>
        <pt x="400" y="530" on="0"/>
        <pt x="360" y="530" on="1"/>
        <pt x="198" y="530" on="1"/>
        <pt x="272" y="630" on="1"/>
        <pt x="272" y="0" on="1"/>
        <pt x="70" y="0" on="1"/>
        <pt x="70" y="700" on="1"/>
        <pt x="398" y="700" on="1"/>
        <pt x="508" y="700" on="0"/>
        <pt x="649" y="574" on="0"/>
      </contour>
      <contour>
        <pt x="259" y="316" on="1"/>
        <pt x="480" y="341" on="1"/>
        <pt x="678" y="0" on="1"/>
        <pt x="437" y="0" on="1"/>
      </contour>
      <contour>
        <pt x="499" y="974" on="1"/>
        <pt x="339" y="878" on="1"/>
        <pt x="369" y="878" on="1"/>
        <pt x="209" y="974" on="1"/>
        <pt x="137" y="912" on="1"/>
        <pt x="303" y="770" on="1"/>
        <pt x="405" y="770" on="1"/>
        <pt x="571" y="912" on="1"/>
      </contour>
    </TTGlyph>
    <TTGlyph name="S" xMin="-2" yMin="-10" xMax="612" yMax="720">
      <contour>
        <pt x="-2" y="132" on="1"/>
        <pt x="123" y="272" on="1"/>
        <pt x="173" y="208" on="0"/>
        <pt x="282" y="167" on="0"/>
        <pt x="330" y="167" on="1"/>
        <pt x="359" y="167" on="0"/>
        <pt x="395" y="183" on="0"/>
        <pt x="395" y="204" on="1"/>
        <pt x="395" y="229" on="0"/>
        <pt x="337" y="251" on="0"/>
        <pt x="274" y="266" on="1"/>
        <pt x="153" y="294" on="0"/>
        <pt x="35" y="402" on="0"/>
        <pt x="35" y="493" on="1"/>
        <pt x="35" y="596" on="0"/>
        <pt x="208" y="720" on="0"/>
        <pt x="316" y="720" on="1"/>
        <pt x="434" y="720" on="0"/>
        <pt x="560" y="655" on="0"/>
        <pt x="599" y="601" on="1"/>
        <pt x="473" y="480" on="1"/>
        <pt x="440" y="512" on="0"/>
        <pt x="365" y="541" on="0"/>
        <pt x="327" y="541" on="1"/>
        <pt x="293" y="541" on="0"/>
        <pt x="254" y="525" on="0"/>
        <pt x="254" y="506" on="1"/>
        <pt x="254" y="490" on="0"/>
        <pt x="296" y="467" on="0"/>
        <pt x="359" y="455" on="1"/>
        <pt x="469" y="434" on="0"/>
        <pt x="612" y="333" on="0"/>
        <pt x="612" y="224" on="1"/>
        <pt x="612" y="109" on="0"/>
        <pt x="445" y="-10" on="0"/>
        <pt x="325" y="-10" on="1"/>
        <pt x="206" y="-10" on="0"/>
        <pt x="52" y="67" on="0"/>
      </contour>
    </TTGlyph>
    <TTGlyph name="Sacute" xMin="-2" yMin="-10" xMax="612" yMax="1017">
      <contour>
        <pt x="-2" y="132" on="1"/>
        <pt x="123" y="272" on="1"/>
        <pt x="173" y="208" on="0"/>
        <pt x="282" y="167" on="0"/>
        <pt x="330" y="167" on="1"/>
        <pt x="359" y="167" on="0"/>
        <pt x="395" y="183" on="0"/>
        <pt x="395" y="204" on="1"/>
        <pt x="395" y="229" on="0"/>
        <pt x="337" y="251" on="0"/>
        <pt x="274" y="266" on="1"/>
        <pt x="153" y="294" on="0"/>
        <pt x="35" y="402" on="0"/>
        <pt x="35" y="493" on="1"/>
        <pt x="35" y="596" on="0"/>
        <pt x="208" y="720" on="0"/>
        <pt x="316" y="720" on="1"/>
        <pt x="434" y="720" on="0"/>
        <pt x="560" y="655" on="0"/>
        <pt x="599" y="601" on="1"/>
        <pt x="473" y="480" on="1"/>
        <pt x="440" y="512" on="0"/>
        <pt x="365" y="541" on="0"/>
        <pt x="327" y="541" on="1"/>
        <pt x="293" y="541" on="0"/>
        <pt x="254" y="525" on="0"/>
        <pt x="254" y="506" on="1"/>
        <pt x="254" y="490" on="0"/>
        <pt x="296" y="467" on="0"/>
        <pt x="359" y="455" on="1"/>
        <pt x="469" y="434" on="0"/>
        <pt x="612" y="333" on="0"/>
        <pt x="612" y="224" on="1"/>
        <pt x="612" y="109" on="0"/>
        <pt x="445" y="-10" on="0"/>
        <pt x="325" y="-10" on="1"/>
        <pt x="206" y="-10" on="0"/>
        <pt x="52" y="67" on="0"/>
      </contour>
      <contour>
        <pt x="494" y="892" on="1"/>
        <pt x="266" y="770" on="1"/>
        <pt x="206" y="863" on="1"/>
        <pt x="411" y="1017" on="1"/>
      </contour>
    </TTGlyph>
    <TTGlyph name="Scaron" xMin="-2" yMin="-10" xMax="612" yMax="974">
      <contour>
        <pt x="-2" y="132" on="1"/>
        <pt x="123" y="272" on="1"/>
        <pt x="173" y="208" on="0"/>
        <pt x="282" y="167" on="0"/>
        <pt x="330" y="167" on="1"/>
        <pt x="359" y="167" on="0"/>
        <pt x="395" y="183" on="0"/>
        <pt x="395" y="204" on="1"/>
        <pt x="395" y="229" on="0"/>
        <pt x="337" y="251" on="0"/>
        <pt x="274" y="266" on="1"/>
        <pt x="153" y="294" on="0"/>
        <pt x="35" y="402" on="0"/>
        <pt x="35" y="493" on="1"/>
        <pt x="35" y="596" on="0"/>
        <pt x="208" y="720" on="0"/>
        <pt x="316" y="720" on="1"/>
        <pt x="434" y="720" on="0"/>
        <pt x="560" y="655" on="0"/>
        <pt x="599" y="601" on="1"/>
        <pt x="473" y="480" on="1"/>
        <pt x="440" y="512" on="0"/>
        <pt x="365" y="541" on="0"/>
        <pt x="327" y="541" on="1"/>
        <pt x="293" y="541" on="0"/>
        <pt x="254" y="525" on="0"/>
        <pt x="254" y="506" on="1"/>
        <pt x="254" y="490" on="0"/>
        <pt x="296" y="467" on="0"/>
        <pt x="359" y="455" on="1"/>
        <pt x="469" y="434" on="0"/>
        <pt x="612" y="333" on="0"/>
        <pt x="612" y="224" on="1"/>
        <pt x="612" y="109" on="0"/>
        <pt x="445" y="-10" on="0"/>
        <pt x="325" y="-10" on="1"/>
        <pt x="206" y="-10" on="0"/>
        <pt x="52" y="67" on="0"/>
      </contour>
      <contour>
        <pt x="470" y="974" on="1"/>
        <pt x="310" y="878" on="1"/>
        <pt x="340" y="878" on="1"/>
        <pt x="180" y="974" on="1"/>
        <pt x="108" y="912" on="1"/>
        <pt x="274" y="770" on="1"/>
        <pt x="376" y="770" on="1"/>
        <pt x="542" y="912" on="1"/>
      </contour>
    </TTGlyph>
    <TTGlyph name="Scedilla" xMin="-2" yMin="-247" xMax="612" yMax="720">
      <contour>
        <pt x="-2" y="132" on="1"/>
        <pt x="123" y="272" on="1"/>
        <pt x="173" y="208" on="0"/>
        <pt x="282" y="167" on="0"/>
        <pt x="330" y="167" on="1"/>
        <pt x="359" y="167" on="0"/>
        <pt x="395" y="183" on="0"/>
        <pt x="395" y="204" on="1"/>
        <pt x="395" y="229" on="0"/>
        <pt x="337" y="251" on="0"/>
        <pt x="274" y="266" on="1"/>
        <pt x="153" y="294" on="0"/>
        <pt x="35" y="402" on="0"/>
        <pt x="35" y="493" on="1"/>
        <pt x="35" y="596" on="0"/>
        <pt x="208" y="720" on="0"/>
        <pt x="316" y="720" on="1"/>
        <pt x="434" y="720" on="0"/>
        <pt x="560" y="655" on="0"/>
        <pt x="599" y="601" on="1"/>
        <pt x="473" y="480" on="1"/>
        <pt x="440" y="512" on="0"/>
        <pt x="365" y="541" on="0"/>
        <pt x="327" y="541" on="1"/>
        <pt x="293" y="541" on="0"/>
        <pt x="254" y="525" on="0"/>
        <pt x="254" y="506" on="1"/>
        <pt x="254" y="490" on="0"/>
        <pt x="296" y="467" on="0"/>
        <pt x="359" y="455" on="1"/>
        <pt x="469" y="434" on="0"/>
        <pt x="612" y="333" on="0"/>
        <pt x="612" y="224" on="1"/>
        <pt x="612" y="109" on="0"/>
        <pt x="445" y="-10" on="0"/>
        <pt x="325" y="-10" on="1"/>
        <pt x="206" y="-10" on="0"/>
        <pt x="52" y="67" on="0"/>
      </contour>
      <contour>
        <pt x="323" y="-86" on="1"/>
        <pt x="240" y="-79" on="1"/>
        <pt x="307" y="25" on="1"/>
        <pt x="406" y="25" on="1"/>
      </contour>
      <contour>
        <pt x="463" y="-138" on="1"/>
        <pt x="463" y="-162" on="0"/>
        <pt x="427" y="-212" on="0"/>
        <pt x="395" y="-227" on="1"/>
        <pt x="364" y="-240" on="0"/>
        <pt x="286" y="-247" on="0"/>
        <pt x="243" y="-246" on="1"/>
        <pt x="232" y="-155" on="1"/>
        <pt x="259" y="-155" on="0"/>
        <pt x="318" y="-141" on="0"/>
        <pt x="318" y="-124" on="1"/>
        <pt x="318" y="-109" on="0"/>
        <pt x="286" y="-95" on="0"/>
        <pt x="261" y="-95" on="1"/>
        <pt x="240" y="-81" on="1"/>
        <pt x="240" y="-79" on="1"/>
        <pt x="343" y="-38" on="1"/>
        <pt x="405" y="-38" on="0"/>
        <pt x="463" y="-97" on="0"/>
      </contour>
    </TTGlyph>
    <TTGlyph name="Scircumflex" xMin="-2" yMin="-10" xMax="612" yMax="971">
      <contour>
        <pt x="-2" y="132" on="1"/>
        <pt x="123" y="272" on="1"/>
        <pt x="173" y="208" on="0"/>
        <pt x="282" y="167" on="0"/>
        <pt x="330" y="167" on="1"/>
        <pt x="359" y="167" on="0"/>
        <pt x="395" y="183" on="0"/>
        <pt x="395" y="204" on="1"/>
        <pt x="395" y="229" on="0"/>
        <pt x="337" y="251" on="0"/>
        <pt x="274" y="266" on="1"/>
        <pt x="153" y="294" on="0"/>
        <pt x="35" y="402" on="0"/>
        <pt x="35" y="493" on="1"/>
        <pt x="35" y="596" on="0"/>
        <pt x="208" y="720" on="0"/>
        <pt x="316" y="720" on="1"/>
        <pt x="434" y="720" on="0"/>
        <pt x="560" y="655" on="0"/>
        <pt x="599" y="601" on="1"/>
        <pt x="473" y="480" on="1"/>
        <pt x="440" y="512" on="0"/>
        <pt x="365" y="541" on="0"/>
        <pt x="327" y="541" on="1"/>
        <pt x="293" y="541" on="0"/>
        <pt x="254" y="525" on="0"/>
        <pt x="254" y="506" on="1"/>
        <pt x="254" y="490" on="0"/>
        <pt x="296" y="467" on="0"/>
        <pt x="359" y="455" on="1"/>
        <pt x="469" y="434" on="0"/>
        <pt x="612" y="333" on="0"/>
        <pt x="612" y="224" on="1"/>
        <pt x="612" y="109" on="0"/>
        <pt x="445" y="-10" on="0"/>
        <pt x="325" y="-10" on="1"/>
        <pt x="206" y="-10" on="0"/>
        <pt x="52" y="67" on="0"/>
      </contour>
      <contour>
        <pt x="464" y="777" on="1"/>
        <pt x="311" y="863" on="1"/>
        <pt x="341" y="863" on="1"/>
        <pt x="188" y="777" on="1"/>
        <pt x="120" y="845" on="1"/>
        <pt x="275" y="971" on="1"/>
        <pt x="377" y="971" on="1"/>
        <pt x="532" y="845" on="1"/>
      </contour>
    </TTGlyph>
    <TTGlyph name="T" xMin="30" yMin="0" xMax="684" yMax="700">
      <contour>
        <pt x="462" y="0" on="1"/>
        <pt x="246" y="0" on="1"/>
        <pt x="246" y="651" on="1"/>
        <pt x="462" y="651" on="1"/>
      </contour>
      <contour>
        <pt x="684" y="516" on="1"/>
        <pt x="30" y="516" on="1"/>
        <pt x="30" y="700" on="1"/>
        <pt x="684" y="700" on="1"/>
      </contour>
    </TTGlyph>
    <TTGlyph name="Tbar" xMin="30" yMin="0" xMax="684" yMax="700">
      <contour>
        <pt x="462" y="0" on="1"/>
        <pt x="246" y="0" on="1"/>
        <pt x="246" y="651" on="1"/>
        <pt x="462" y="651" on="1"/>
      </contour>
      <contour>
        <pt x="684" y="516" on="1"/>
        <pt x="30" y="516" on="1"/>
        <pt x="30" y="700" on="1"/>
        <pt x="684" y="700" on="1"/>
      </contour>
      <contour>
        <pt x="541" y="270" on="1"/>
        <pt x="173" y="270" on="1"/>
        <pt x="173" y="410" on="1"/>
        <pt x="541" y="410" on="1"/>
      </contour>
    </TTGlyph>
    <TTGlyph name="Tcaron" xMin="30" yMin="0" xMax="684" yMax="974">
      <contour>
        <pt x="462" y="0" on="1"/>
        <pt x="246" y="0" on="1"/>
        <pt x="246" y="651" on="1"/>
        <pt x="462" y="651" on="1"/>
      </contour>
      <contour>
        <pt x="684" y="516" on="1"/>
        <pt x="30" y="516" on="1"/>
        <pt x="30" y="700" on="1"/>
        <pt x="684" y="700" on="1"/>
      </contour>
      <contour>
        <pt x="502" y="974" on="1"/>
        <pt x="342" y="878" on="1"/>
        <pt x="372" y="878" on="1"/>
        <pt x="212" y="974" on="1"/>
        <pt x="140" y="912" on="1"/>
        <pt x="306" y="770" on="1"/>
        <pt x="408" y="770" on="1"/>
        <pt x="574" y="912" on="1"/>
      </contour>
    </TTGlyph>
    <TTGlyph name="Thorn" xMin="70" yMin="0" xMax="633" yMax="700">
      <contour>
        <pt x="70" y="700" on="1"/>
        <pt x="286" y="700" on="1"/>
        <pt x="286" y="0" on="1"/>
        <pt x="70" y="0" on="1"/>
      </contour>
      <contour>
        <pt x="200" y="108" on="1"/>
        <pt x="199" y="292" on="1"/>
        <pt x="345" y="292" on="1"/>
        <pt x="374" y="292" on="0"/>
        <pt x="411" y="325" on="0"/>
        <pt x="411" y="356" on="1"/>
        <pt x="411" y="387" on="0"/>
        <pt x="374" y="416" on="0"/>
        <pt x="345" y="416" on="1"/>
        <pt x="199" y="416" on="1"/>
        <pt x="199" y="600" on="1"/>
        <pt x="385" y="600" on="1"/>
        <pt x="493" y="600" on="0"/>
        <pt x="633" y="465" on="0"/>
        <pt x="633" y="360" on="1"/>
        <pt x="633" y="250" on="0"/>
        <pt x="493" y="108" on="0"/>
        <pt x="385" y="108" on="1"/>
      </contour>
    </TTGlyph>
    <TTGlyph name="U" xMin="80" yMin="-6" xMax="704" yMax="700">
      <contour>
        <pt x="491" y="700" on="1"/>
        <pt x="704" y="700" on="1"/>
        <pt x="704" y="269" on="1"/>
        <pt x="704" y="149" on="0"/>
        <pt x="528" y="-6" on="0"/>
        <pt x="392" y="-6" on="1"/>
        <pt x="256" y="-6" on="0"/>
        <pt x="80" y="149" on="0"/>
        <pt x="80" y="269" on="1"/>
        <pt x="80" y="700" on="1"/>
        <pt x="298" y="700" on="1"/>
        <pt x="298" y="278" on="1"/>
        <pt x="298" y="234" on="0"/>
        <pt x="351" y="178" on="0"/>
        <pt x="392" y="178" on="1"/>
        <pt x="435" y="178" on="0"/>
        <pt x="491" y="234" on="0"/>
        <pt x="491" y="278" on="1"/>
      </contour>
    </TTGlyph>
    <TTGlyph name="Uacute" xMin="80" yMin="-6" xMax="704" yMax="1017">
      <contour>
        <pt x="491" y="700" on="1"/>
        <pt x="704" y="700" on="1"/>
        <pt x="704" y="269" on="1"/>
        <pt x="704" y="149" on="0"/>
        <pt x="528" y="-6" on="0"/>
        <pt x="392" y="-6" on="1"/>
        <pt x="256" y="-6" on="0"/>
        <pt x="80" y="149" on="0"/>
        <pt x="80" y="269" on="1"/>
        <pt x="80" y="700" on="1"/>
        <pt x="298" y="700" on="1"/>
        <pt x="298" y="278" on="1"/>
        <pt x="298" y="234" on="0"/>
        <pt x="351" y="178" on="0"/>
        <pt x="392" y="178" on="1"/>
        <pt x="435" y="178" on="0"/>
        <pt x="491" y="234" on="0"/>
        <pt x="491" y="278" on="1"/>
      </contour>
      <contour>
        <pt x="563" y="892" on="1"/>
        <pt x="335" y="770" on="1"/>
        <pt x="275" y="863" on="1"/>
        <pt x="480" y="1017" on="1"/>
      </contour>
    </TTGlyph>
    <TTGlyph name="Ubreve" xMin="80" yMin="-6" xMax="704" yMax="946">
      <contour>
        <pt x="491" y="700" on="1"/>
        <pt x="704" y="700" on="1"/>
        <pt x="704" y="269" on="1"/>
        <pt x="704" y="149" on="0"/>
        <pt x="528" y="-6" on="0"/>
        <pt x="392" y="-6" on="1"/>
        <pt x="256" y="-6" on="0"/>
        <pt x="80" y="149" on="0"/>
        <pt x="80" y="269" on="1"/>
        <pt x="80" y="700" on="1"/>
        <pt x="298" y="700" on="1"/>
        <pt x="298" y="278" on="1"/>
        <pt x="298" y="234" on="0"/>
        <pt x="351" y="178" on="0"/>
        <pt x="392" y="178" on="1"/>
        <pt x="435" y="178" on="0"/>
        <pt x="491" y="234" on="0"/>
        <pt x="491" y="278" on="1"/>
      </contour>
      <contour>
        <pt x="392" y="770" on="1"/>
        <pt x="319" y="770" on="0"/>
        <pt x="215" y="857" on="0"/>
        <pt x="200" y="934" on="1"/>
        <pt x="324" y="946" on="1"/>
        <pt x="333" y="920" on="0"/>
        <pt x="371" y="891" on="0"/>
        <pt x="392" y="891" on="1"/>
        <pt x="413" y="891" on="0"/>
        <pt x="451" y="920" on="0"/>
        <pt x="460" y="946" on="1"/>
        <pt x="584" y="934" on="1"/>
        <pt x="569" y="857" on="0"/>
        <pt x="465" y="770" on="0"/>
      </contour>
    </TTGlyph>
    <TTGlyph name="Ucircumflex" xMin="80" yMin="-6" xMax="704" yMax="971">
      <contour>
        <pt x="491" y="700" on="1"/>
        <pt x="704" y="700" on="1"/>
        <pt x="704" y="269" on="1"/>
        <pt x="704" y="149" on="0"/>
        <pt x="528" y="-6" on="0"/>
        <pt x="392" y="-6" on="1"/>
        <pt x="256" y="-6" on="0"/>
        <pt x="80" y="149" on="0"/>
        <pt x="80" y="269" on="1"/>
        <pt x="80" y="700" on="1"/>
        <pt x="298" y="700" on="1"/>
        <pt x="298" y="278" on="1"/>
        <pt x="298" y="234" on="0"/>
        <pt x="351" y="178" on="0"/>
        <pt x="392" y="178" on="1"/>
        <pt x="435" y="178" on="0"/>
        <pt x="491" y="234" on="0"/>
        <pt x="491" y="278" on="1"/>
      </contour>
      <contour>
        <pt x="531" y="777" on="1"/>
        <pt x="378" y="863" on="1"/>
        <pt x="408" y="863" on="1"/>
        <pt x="255" y="777" on="1"/>
        <pt x="187" y="845" on="1"/>
        <pt x="342" y="971" on="1"/>
        <pt x="444" y="971" on="1"/>
        <pt x="599" y="845" on="1"/>
      </contour>
    </TTGlyph>
    <TTGlyph name="Udieresis" xMin="80" yMin="-6" xMax="704" yMax="970">
      <contour>
        <pt x="491" y="700" on="1"/>
        <pt x="704" y="700" on="1"/>
        <pt x="704" y="269" on="1"/>
        <pt x="704" y="149" on="0"/>
        <pt x="528" y="-6" on="0"/>
        <pt x="392" y="-6" on="1"/>
        <pt x="256" y="-6" on="0"/>
        <pt x="80" y="149" on="0"/>
        <pt x="80" y="269" on="1"/>
        <pt x="80" y="700" on="1"/>
        <pt x="298" y="700" on="1"/>
        <pt x="298" y="278" on="1"/>
        <pt x="298" y="234" on="0"/>
        <pt x="351" y="178" on="0"/>
        <pt x="392" y="178" on="1"/>
        <pt x="435" y="178" on="0"/>
        <pt x="491" y="234" on="0"/>
        <pt x="491" y="278" on="1"/>
      </contour>
      <contour>
        <pt x="358" y="870" on="1"/>
        <pt x="358" y="826" on="0"/>
        <pt x="304" y="770" on="0"/>
        <pt x="258" y="770" on="1"/>
        <pt x="210" y="770" on="0"/>
        <pt x="158" y="822" on="0"/>
        <pt x="158" y="870" on="1"/>
        <pt x="158" y="914" on="0"/>
        <pt x="212" y="970" on="0"/>
        <pt x="258" y="970" on="1"/>
        <pt x="306" y="970" on="0"/>
        <pt x="358" y="919" on="0"/>
      </contour>
      <contour>
        <pt x="629" y="870" on="1"/>
        <pt x="629" y="826" on="0"/>
        <pt x="575" y="770" on="0"/>
        <pt x="529" y="770" on="1"/>
        <pt x="481" y="770" on="0"/>
        <pt x="429" y="822" on="0"/>
        <pt x="429" y="870" on="1"/>
        <pt x="429" y="914" on="0"/>
        <pt x="483" y="970" on="0"/>
        <pt x="529" y="970" on="1"/>
        <pt x="577" y="970" on="0"/>
        <pt x="629" y="919" on="0"/>
      </contour>
    </TTGlyph>
    <TTGlyph name="Ugrave" xMin="80" yMin="-6" xMax="704" yMax="1017">
      <contour>
        <pt x="491" y="700" on="1"/>
        <pt x="704" y="700" on="1"/>
        <pt x="704" y="269" on="1"/>
        <pt x="704" y="149" on="0"/>
        <pt x="528" y="-6" on="0"/>
        <pt x="392" y="-6" on="1"/>
        <pt x="256" y="-6" on="0"/>
        <pt x="80" y="149" on="0"/>
        <pt x="80" y="269" on="1"/>
        <pt x="80" y="700" on="1"/>
        <pt x="298" y="700" on="1"/>
        <pt x="298" y="278" on="1"/>
        <pt x="298" y="234" on="0"/>
        <pt x="351" y="178" on="0"/>
        <pt x="392" y="178" on="1"/>
        <pt x="435" y="178" on="0"/>
        <pt x="491" y="234" on="0"/>
        <pt x="491" y="278" on="1"/>
      </contour>
      <contour>
        <pt x="509" y="863" on="1"/>
        <pt x="449" y="770" on="1"/>
        <pt x="221" y="892" on="1"/>
        <pt x="304" y="1017" on="1"/>
      </contour>
    </TTGlyph>
    <TTGlyph name="Uhorn" xMin="80" yMin="-6" xMax="863" yMax="834">
      <contour>
        <pt x="491" y="700" on="1"/>
        <pt x="704" y="700" on="1"/>
        <pt x="704" y="269" on="1"/>
        <pt x="704" y="149" on="0"/>
        <pt x="528" y="-6" on="0"/>
        <pt x="392" y="-6" on="1"/>
        <pt x="256" y="-6" on="0"/>
        <pt x="80" y="149" on="0"/>
        <pt x="80" y="269" on="1"/>
        <pt x="80" y="700" on="1"/>
        <pt x="298" y="700" on="1"/>
        <pt x="298" y="278" on="1"/>
        <pt x="298" y="234" on="0"/>
        <pt x="351" y="178" on="0"/>
        <pt x="392" y="178" on="1"/>
        <pt x="435" y="178" on="0"/>
        <pt x="491" y="234" on="0"/>
        <pt x="491" y="278" on="1"/>
      </contour>
      <contour>
        <pt x="622" y="578" on="1"/>
        <pt x="622" y="700" on="1"/>
        <pt x="667" y="700" on="0"/>
        <pt x="711" y="767" on="0"/>
        <pt x="711" y="834" on="1"/>
        <pt x="863" y="834" on="1"/>
        <pt x="863" y="724" on="0"/>
        <pt x="737" y="578" on="0"/>
      </contour>
    </TTGlyph>
    <TTGlyph name="Uhungarumlaut" xMin="80" yMin="-6" xMax="704" yMax="1003">
      <contour>
        <pt x="491" y="700" on="1"/>
        <pt x="704" y="700" on="1"/>
        <pt x="704" y="269" on="1"/>
        <pt x="704" y="149" on="0"/>
        <pt x="528" y="-6" on="0"/>
        <pt x="392" y="-6" on="1"/>
        <pt x="256" y="-6" on="0"/>
        <pt x="80" y="149" on="0"/>
        <pt x="80" y="269" on="1"/>
        <pt x="80" y="700" on="1"/>
        <pt x="298" y="700" on="1"/>
        <pt x="298" y="278" on="1"/>
        <pt x="298" y="234" on="0"/>
        <pt x="351" y="178" on="0"/>
        <pt x="392" y="178" on="1"/>
        <pt x="435" y="178" on="0"/>
        <pt x="491" y="234" on="0"/>
        <pt x="491" y="278" on="1"/>
      </contour>
      <contour>
        <pt x="422" y="882" on="1"/>
        <pt x="194" y="760" on="1"/>
        <pt x="136" y="849" on="1"/>
        <pt x="342" y="1003" on="1"/>
      </contour>
      <contour>
        <pt x="704" y="882" on="1"/>
        <pt x="476" y="760" on="1"/>
        <pt x="418" y="849" on="1"/>
        <pt x="624" y="1003" on="1"/>
      </contour>
    </TTGlyph>
    <TTGlyph name="Umacron" xMin="80" yMin="-6" xMax="704" yMax="890">
      <contour>
        <pt x="491" y="700" on="1"/>
        <pt x="704" y="700" on="1"/>
        <pt x="704" y="269" on="1"/>
        <pt x="704" y="149" on="0"/>
        <pt x="528" y="-6" on="0"/>
        <pt x="392" y="-6" on="1"/>
        <pt x="256" y="-6" on="0"/>
        <pt x="80" y="149" on="0"/>
        <pt x="80" y="269" on="1"/>
        <pt x="80" y="700" on="1"/>
        <pt x="298" y="700" on="1"/>
        <pt x="298" y="278" on="1"/>
        <pt x="298" y="234" on="0"/>
        <pt x="351" y="178" on="0"/>
        <pt x="392" y="178" on="1"/>
        <pt x="435" y="178" on="0"/>
        <pt x="491" y="234" on="0"/>
        <pt x="491" y="278" on="1"/>
      </contour>
      <contour>
        <pt x="582" y="770" on="1"/>
        <pt x="202" y="770" on="1"/>
        <pt x="202" y="890" on="1"/>
        <pt x="582" y="890" on="1"/>
      </contour>
    </TTGlyph>
    <TTGlyph name="Uogonek" xMin="80" yMin="-211" xMax="704" yMax="700">
      <contour>
        <pt x="420" y="-7" on="1"/>
        <pt x="249" y="-7" on="0"/>
        <pt x="80" y="158" on="0"/>
        <pt x="80" y="269" on="1"/>
        <pt x="80" y="700" on="1"/>
        <pt x="298" y="700" on="1"/>
        <pt x="298" y="278" on="1"/>
        <pt x="298" y="234" on="0"/>
        <pt x="351" y="178" on="0"/>
        <pt x="392" y="178" on="1"/>
        <pt x="435" y="178" on="0"/>
        <pt x="491" y="234" on="0"/>
        <pt x="491" y="278" on="1"/>
        <pt x="491" y="700" on="1"/>
        <pt x="704" y="700" on="1"/>
        <pt x="704" y="269" on="1"/>
        <pt x="704" y="173" on="0"/>
        <pt x="591" y="37" on="0"/>
        <pt x="501" y="8" on="1"/>
        <pt x="474" y="-1" on="0"/>
        <pt x="444" y="-48" on="0"/>
        <pt x="444" y="-71" on="1"/>
        <pt x="444" y="-81" on="0"/>
        <pt x="456" y="-93" on="0"/>
        <pt x="467" y="-93" on="1"/>
        <pt x="476" y="-93" on="0"/>
        <pt x="488" y="-82" on="0"/>
        <pt x="496" y="-70" on="1"/>
        <pt x="567" y="-141" on="1"/>
        <pt x="551" y="-167" on="0"/>
        <pt x="487" y="-211" on="0"/>
        <pt x="447" y="-211" on="1"/>
        <pt x="391" y="-211" on="0"/>
        <pt x="318" y="-149" on="0"/>
        <pt x="318" y="-99" on="1"/>
        <pt x="318" y="-73" on="0"/>
        <pt x="338" y="-24" on="0"/>
        <pt x="378" y="18" on="1"/>
        <pt x="452" y="3" on="1"/>
        <pt x="442" y="-3" on="0"/>
        <pt x="432" y="-7" on="0"/>
      </contour>
    </TTGlyph>
    <TTGlyph name="Uring" xMin="80" yMin="-6" xMax="704" yMax="1051">
      <contour>
        <pt x="491" y="700" on="1"/>
        <pt x="704" y="700" on="1"/>
        <pt x="704" y="269" on="1"/>
        <pt x="704" y="149" on="0"/>
        <pt x="528" y="-6" on="0"/>
        <pt x="392" y="-6" on="1"/>
        <pt x="256" y="-6" on="0"/>
        <pt x="80" y="149" on="0"/>
        <pt x="80" y="269" on="1"/>
        <pt x="80" y="700" on="1"/>
        <pt x="298" y="700" on="1"/>
        <pt x="298" y="278" on="1"/>
        <pt x="298" y="234" on="0"/>
        <pt x="351" y="178" on="0"/>
        <pt x="392" y="178" on="1"/>
        <pt x="435" y="178" on="0"/>
        <pt x="491" y="234" on="0"/>
        <pt x="491" y="278" on="1"/>
      </contour>
      <contour>
        <pt x="542" y="905" on="1"/>
        <pt x="542" y="851" on="0"/>
        <pt x="452" y="770" on="0"/>
        <pt x="392" y="770" on="1"/>
        <pt x="332" y="770" on="0"/>
        <pt x="242" y="851" on="0"/>
        <pt x="242" y="905" on="1"/>
        <pt x="242" y="965" on="0"/>
        <pt x="332" y="1051" on="0"/>
        <pt x="392" y="1051" on="1"/>
        <pt x="452" y="1051" on="0"/>
        <pt x="542" y="965" on="0"/>
      </contour>
      <contour>
        <pt x="358" y="905" on="1"/>
        <pt x="358" y="890" on="0"/>
        <pt x="378" y="869" on="0"/>
        <pt x="392" y="869" on="1"/>
        <pt x="406" y="869" on="0"/>
        <pt x="428" y="890" on="0"/>
        <pt x="428" y="905" on="1"/>
        <pt x="428" y="921" on="0"/>
        <pt x="406" y="942" on="0"/>
        <pt x="392" y="942" on="1"/>
        <pt x="378" y="942" on="0"/>
        <pt x="358" y="921" on="0"/>
      </contour>
    </TTGlyph>
    <TTGlyph name="Utilde" xMin="80" yMin="-6" xMax="704" yMax="934">
      <contour>
        <pt x="491" y="700" on="1"/>
        <pt x="704" y="700" on="1"/>
        <pt x="704" y="269" on="1"/>
        <pt x="704" y="149" on="0"/>
        <pt x="528" y="-6" on="0"/>
        <pt x="392" y="-6" on="1"/>
        <pt x="256" y="-6" on="0"/>
        <pt x="80" y="149" on="0"/>
        <pt x="80" y="269" on="1"/>
        <pt x="80" y="700" on="1"/>
        <pt x="298" y="700" on="1"/>
        <pt x="298" y="278" on="1"/>
        <pt x="298" y="234" on="0"/>
        <pt x="351" y="178" on="0"/>
        <pt x="392" y="178" on="1"/>
        <pt x="435" y="178" on="0"/>
        <pt x="491" y="234" on="0"/>
        <pt x="491" y="278" on="1"/>
      </contour>
      <contour>
        <pt x="309" y="771" on="1"/>
        <pt x="192" y="771" on="1"/>
        <pt x="192" y="846" on="0"/>
        <pt x="265" y="934" on="0"/>
        <pt x="328" y="934" on="1"/>
        <pt x="343" y="934" on="0"/>
        <pt x="377" y="925" on="0"/>
        <pt x="409" y="911" on="1"/>
        <pt x="430" y="902" on="0"/>
        <pt x="447" y="894" on="0"/>
        <pt x="454" y="894" on="1"/>
        <pt x="467" y="894" on="0"/>
        <pt x="480" y="916" on="0"/>
        <pt x="479" y="934" on="1"/>
        <pt x="595" y="934" on="1"/>
        <pt x="595" y="864" on="0"/>
        <pt x="527" y="770" on="0"/>
        <pt x="473" y="770" on="1"/>
        <pt x="456" y="770" on="0"/>
        <pt x="417" y="780" on="0"/>
        <pt x="380" y="794" on="1"/>
        <pt x="359" y="802" on="0"/>
        <pt x="342" y="810" on="0"/>
        <pt x="336" y="810" on="1"/>
        <pt x="324" y="810" on="0"/>
        <pt x="309" y="789" on="0"/>
      </contour>
    </TTGlyph>
    <TTGlyph name="V" xMin="-10" yMin="0" xMax="720" yMax="700">
      <contour>
        <pt x="269" y="0" on="1"/>
        <pt x="-10" y="700" on="1"/>
        <pt x="206" y="700" on="1"/>
        <pt x="318" y="394" on="1"/>
        <pt x="341" y="332" on="0"/>
        <pt x="361" y="267" on="0"/>
        <pt x="375" y="204" on="1"/>
        <pt x="340" y="204" on="1"/>
        <pt x="355" y="267" on="0"/>
        <pt x="376" y="332" on="0"/>
        <pt x="399" y="394" on="1"/>
        <pt x="511" y="700" on="1"/>
        <pt x="720" y="700" on="1"/>
        <pt x="439" y="0" on="1"/>
      </contour>
    </TTGlyph>
    <TTGlyph name="W" xMin="-10" yMin="0" xMax="1000" yMax="700">
      <contour>
        <pt x="189" y="0" on="1"/>
        <pt x="-10" y="700" on="1"/>
        <pt x="206" y="700" on="1"/>
        <pt x="288" y="384" on="1"/>
        <pt x="304" y="322" on="0"/>
        <pt x="316" y="222" on="0"/>
        <pt x="316" y="194" on="1"/>
        <pt x="300" y="194" on="1"/>
        <pt x="300" y="232" on="0"/>
        <pt x="308" y="323" on="0"/>
        <pt x="329" y="384" on="1"/>
        <pt x="416" y="631" on="1"/>
        <pt x="581" y="631" on="1"/>
        <pt x="668" y="384" on="1"/>
        <pt x="689" y="324" on="0"/>
        <pt x="705" y="233" on="0"/>
        <pt x="705" y="194" on="1"/>
        <pt x="690" y="194" on="1"/>
        <pt x="690" y="223" on="0"/>
        <pt x="693" y="322" on="0"/>
        <pt x="709" y="384" on="1"/>
        <pt x="791" y="700" on="1"/>
        <pt x="1000" y="700" on="1"/>
        <pt x="799" y="0" on="1"/>
        <pt x="629" y="0" on="1"/>
        <pt x="477" y="377" on="1"/>
        <pt x="504" y="377" on="1"/>
        <pt x="369" y="0" on="1"/>
      </contour>
    </TTGlyph>
    <TTGlyph name="Wacute" xMin="-10" yMin="0" xMax="1000" yMax="1017">
      <contour>
        <pt x="189" y="0" on="1"/>
        <pt x="-10" y="700" on="1"/>
        <pt x="206" y="700" on="1"/>
        <pt x="288" y="384" on="1"/>
        <pt x="304" y="322" on="0"/>
        <pt x="316" y="222" on="0"/>
        <pt x="316" y="194" on="1"/>
        <pt x="300" y="194" on="1"/>
        <pt x="300" y="232" on="0"/>
        <pt x="308" y="323" on="0"/>
        <pt x="329" y="384" on="1"/>
        <pt x="416" y="631" on="1"/>
        <pt x="581" y="631" on="1"/>
        <pt x="668" y="384" on="1"/>
        <pt x="689" y="324" on="0"/>
        <pt x="705" y="233" on="0"/>
        <pt x="705" y="194" on="1"/>
        <pt x="690" y="194" on="1"/>
        <pt x="690" y="223" on="0"/>
        <pt x="693" y="322" on="0"/>
        <pt x="709" y="384" on="1"/>
        <pt x="791" y="700" on="1"/>
        <pt x="1000" y="700" on="1"/>
        <pt x="799" y="0" on="1"/>
        <pt x="629" y="0" on="1"/>
        <pt x="477" y="377" on="1"/>
        <pt x="504" y="377" on="1"/>
        <pt x="369" y="0" on="1"/>
      </contour>
      <contour>
        <pt x="649" y="892" on="1"/>
        <pt x="421" y="770" on="1"/>
        <pt x="361" y="863" on="1"/>
        <pt x="566" y="1017" on="1"/>
      </contour>
    </TTGlyph>
    <TTGlyph name="Wcircumflex" xMin="-10" yMin="0" xMax="1000" yMax="971">
      <contour>
        <pt x="189" y="0" on="1"/>
        <pt x="-10" y="700" on="1"/>
        <pt x="206" y="700" on="1"/>
        <pt x="288" y="384" on="1"/>
        <pt x="304" y="322" on="0"/>
        <pt x="316" y="222" on="0"/>
        <pt x="316" y="194" on="1"/>
        <pt x="300" y="194" on="1"/>
        <pt x="300" y="232" on="0"/>
        <pt x="308" y="323" on="0"/>
        <pt x="329" y="384" on="1"/>
        <pt x="416" y="631" on="1"/>
        <pt x="581" y="631" on="1"/>
        <pt x="668" y="384" on="1"/>
        <pt x="689" y="324" on="0"/>
        <pt x="705" y="233" on="0"/>
        <pt x="705" y="194" on="1"/>
        <pt x="690" y="194" on="1"/>
        <pt x="690" y="223" on="0"/>
        <pt x="693" y="322" on="0"/>
        <pt x="709" y="384" on="1"/>
        <pt x="791" y="700" on="1"/>
        <pt x="1000" y="700" on="1"/>
        <pt x="799" y="0" on="1"/>
        <pt x="629" y="0" on="1"/>
        <pt x="477" y="377" on="1"/>
        <pt x="504" y="377" on="1"/>
        <pt x="369" y="0" on="1"/>
      </contour>
      <contour>
        <pt x="634" y="777" on="1"/>
        <pt x="481" y="863" on="1"/>
        <pt x="511" y="863" on="1"/>
        <pt x="358" y="777" on="1"/>
        <pt x="290" y="845" on="1"/>
        <pt x="445" y="971" on="1"/>
        <pt x="547" y="971" on="1"/>
        <pt x="702" y="845" on="1"/>
      </contour>
    </TTGlyph>
    <TTGlyph name="Wdieresis" xMin="-10" yMin="0" xMax="1000" yMax="970">
      <contour>
        <pt x="189" y="0" on="1"/>
        <pt x="-10" y="700" on="1"/>
        <pt x="206" y="700" on="1"/>
        <pt x="288" y="384" on="1"/>
        <pt x="304" y="322" on="0"/>
        <pt x="316" y="222" on="0"/>
        <pt x="316" y="194" on="1"/>
        <pt x="300" y="194" on="1"/>
        <pt x="300" y="232" on="0"/>
        <pt x="308" y="323" on="0"/>
        <pt x="329" y="384" on="1"/>
        <pt x="416" y="631" on="1"/>
        <pt x="581" y="631" on="1"/>
        <pt x="668" y="384" on="1"/>
        <pt x="689" y="324" on="0"/>
        <pt x="705" y="233" on="0"/>
        <pt x="705" y="194" on="1"/>
        <pt x="690" y="194" on="1"/>
        <pt x="690" y="223" on="0"/>
        <pt x="693" y="322" on="0"/>
        <pt x="709" y="384" on="1"/>
        <pt x="791" y="700" on="1"/>
        <pt x="1000" y="700" on="1"/>
        <pt x="799" y="0" on="1"/>
        <pt x="629" y="0" on="1"/>
        <pt x="477" y="377" on="1"/>
        <pt x="504" y="377" on="1"/>
        <pt x="369" y="0" on="1"/>
      </contour>
      <contour>
        <pt x="460" y="870" on="1"/>
        <pt x="460" y="826" on="0"/>
        <pt x="406" y="770" on="0"/>
        <pt x="360" y="770" on="1"/>
        <pt x="312" y="770" on="0"/>
        <pt x="260" y="822" on="0"/>
        <pt x="260" y="870" on="1"/>
        <pt x="260" y="914" on="0"/>
        <pt x="314" y="970" on="0"/>
        <pt x="360" y="970" on="1"/>
        <pt x="408" y="970" on="0"/>
        <pt x="460" y="919" on="0"/>
      </contour>
      <contour>
        <pt x="730" y="870" on="1"/>
        <pt x="730" y="826" on="0"/>
        <pt x="676" y="770" on="0"/>
        <pt x="630" y="770" on="1"/>
        <pt x="582" y="770" on="0"/>
        <pt x="530" y="822" on="0"/>
        <pt x="530" y="870" on="1"/>
        <pt x="530" y="914" on="0"/>
        <pt x="584" y="970" on="0"/>
        <pt x="630" y="970" on="1"/>
        <pt x="678" y="970" on="0"/>
        <pt x="730" y="919" on="0"/>
      </contour>
    </TTGlyph>
    <TTGlyph name="Wgrave" xMin="-10" yMin="0" xMax="1000" yMax="1017">
      <contour>
        <pt x="189" y="0" on="1"/>
        <pt x="-10" y="700" on="1"/>
        <pt x="206" y="700" on="1"/>
        <pt x="288" y="384" on="1"/>
        <pt x="304" y="322" on="0"/>
        <pt x="316" y="222" on="0"/>
        <pt x="316" y="194" on="1"/>
        <pt x="300" y="194" on="1"/>
        <pt x="300" y="232" on="0"/>
        <pt x="308" y="323" on="0"/>
        <pt x="329" y="384" on="1"/>
        <pt x="416" y="631" on="1"/>
        <pt x="581" y="631" on="1"/>
        <pt x="668" y="384" on="1"/>
        <pt x="689" y="324" on="0"/>
        <pt x="705" y="233" on="0"/>
        <pt x="705" y="194" on="1"/>
        <pt x="690" y="194" on="1"/>
        <pt x="690" y="223" on="0"/>
        <pt x="693" y="322" on="0"/>
        <pt x="709" y="384" on="1"/>
        <pt x="791" y="700" on="1"/>
        <pt x="1000" y="700" on="1"/>
        <pt x="799" y="0" on="1"/>
        <pt x="629" y="0" on="1"/>
        <pt x="477" y="377" on="1"/>
        <pt x="504" y="377" on="1"/>
        <pt x="369" y="0" on="1"/>
      </contour>
      <contour>
        <pt x="639" y="863" on="1"/>
        <pt x="579" y="770" on="1"/>
        <pt x="351" y="892" on="1"/>
        <pt x="434" y="1017" on="1"/>
      </contour>
    </TTGlyph>
    <TTGlyph name="X" xMin="-20" yMin="0" xMax="739" yMax="700">
      <contour>
        <pt x="480" y="700" on="1"/>
        <pt x="729" y="700" on="1"/>
        <pt x="472" y="325" on="1"/>
        <pt x="284" y="401" on="1"/>
      </contour>
      <contour>
        <pt x="-15" y="700" on="1"/>
        <pt x="244" y="700" on="1"/>
        <pt x="456" y="390" on="1"/>
        <pt x="739" y="0" on="1"/>
        <pt x="480" y="0" on="1"/>
        <pt x="263" y="314" on="1"/>
      </contour>
      <contour>
        <pt x="229" y="0" on="1"/>
        <pt x="-20" y="0" on="1"/>
        <pt x="247" y="381" on="1"/>
        <pt x="436" y="302" on="1"/>
      </contour>
    </TTGlyph>
    <TTGlyph name="Y" xMin="-20" yMin="0" xMax="730" yMax="700">
      <contour>
        <pt x="496" y="700" on="1"/>
        <pt x="730" y="700" on="1"/>
        <pt x="459" y="289" on="1"/>
        <pt x="474" y="357" on="1"/>
        <pt x="474" y="0" on="1"/>
        <pt x="256" y="0" on="1"/>
        <pt x="256" y="349" on="1"/>
        <pt x="263" y="300" on="1"/>
        <pt x="-20" y="700" on="1"/>
        <pt x="220" y="700" on="1"/>
        <pt x="436" y="390" on="1"/>
        <pt x="301" y="393" on="1"/>
      </contour>
    </TTGlyph>
    <TTGlyph name="Yacute" xMin="-20" yMin="0" xMax="730" yMax="1017">
      <contour>
        <pt x="496" y="700" on="1"/>
        <pt x="730" y="700" on="1"/>
        <pt x="459" y="289" on="1"/>
        <pt x="474" y="357" on="1"/>
        <pt x="474" y="0" on="1"/>
        <pt x="256" y="0" on="1"/>
        <pt x="256" y="349" on="1"/>
        <pt x="263" y="300" on="1"/>
        <pt x="-20" y="700" on="1"/>
        <pt x="220" y="700" on="1"/>
        <pt x="436" y="390" on="1"/>
        <pt x="301" y="393" on="1"/>
      </contour>
      <contour>
        <pt x="551" y="892" on="1"/>
        <pt x="323" y="770" on="1"/>
        <pt x="263" y="863" on="1"/>
        <pt x="468" y="1017" on="1"/>
      </contour>
    </TTGlyph>
    <TTGlyph name="Ycircumflex" xMin="-20" yMin="0" xMax="730" yMax="971">
      <contour>
        <pt x="496" y="700" on="1"/>
        <pt x="730" y="700" on="1"/>
        <pt x="459" y="289" on="1"/>
        <pt x="474" y="357" on="1"/>
        <pt x="474" y="0" on="1"/>
        <pt x="256" y="0" on="1"/>
        <pt x="256" y="349" on="1"/>
        <pt x="263" y="300" on="1"/>
        <pt x="-20" y="700" on="1"/>
        <pt x="220" y="700" on="1"/>
        <pt x="436" y="390" on="1"/>
        <pt x="301" y="393" on="1"/>
      </contour>
      <contour>
        <pt x="494" y="777" on="1"/>
        <pt x="341" y="863" on="1"/>
        <pt x="371" y="863" on="1"/>
        <pt x="218" y="777" on="1"/>
        <pt x="150" y="845" on="1"/>
        <pt x="305" y="971" on="1"/>
        <pt x="407" y="971" on="1"/>
        <pt x="562" y="845" on="1"/>
      </contour>
    </TTGlyph>
    <TTGlyph name="Ydieresis" xMin="-20" yMin="0" xMax="730" yMax="970">
      <contour>
        <pt x="496" y="700" on="1"/>
        <pt x="730" y="700" on="1"/>
        <pt x="459" y="289" on="1"/>
        <pt x="474" y="357" on="1"/>
        <pt x="474" y="0" on="1"/>
        <pt x="256" y="0" on="1"/>
        <pt x="256" y="349" on="1"/>
        <pt x="263" y="300" on="1"/>
        <pt x="-20" y="700" on="1"/>
        <pt x="220" y="700" on="1"/>
        <pt x="436" y="390" on="1"/>
        <pt x="301" y="393" on="1"/>
      </contour>
      <contour>
        <pt x="320" y="870" on="1"/>
        <pt x="320" y="826" on="0"/>
        <pt x="266" y="770" on="0"/>
        <pt x="220" y="770" on="1"/>
        <pt x="172" y="770" on="0"/>
        <pt x="120" y="822" on="0"/>
        <pt x="120" y="870" on="1"/>
        <pt x="120" y="914" on="0"/>
        <pt x="174" y="970" on="0"/>
        <pt x="220" y="970" on="1"/>
        <pt x="268" y="970" on="0"/>
        <pt x="320" y="919" on="0"/>
      </contour>
      <contour>
        <pt x="590" y="870" on="1"/>
        <pt x="590" y="826" on="0"/>
        <pt x="536" y="770" on="0"/>
        <pt x="490" y="770" on="1"/>
        <pt x="442" y="770" on="0"/>
        <pt x="390" y="822" on="0"/>
        <pt x="390" y="870" on="1"/>
        <pt x="390" y="914" on="0"/>
        <pt x="444" y="970" on="0"/>
        <pt x="490" y="970" on="1"/>
        <pt x="538" y="970" on="0"/>
        <pt x="590" y="919" on="0"/>
      </contour>
    </TTGlyph>
    <TTGlyph name="Ygrave" xMin="-20" yMin="0" xMax="730" yMax="1017">
      <contour>
        <pt x="496" y="700" on="1"/>
        <pt x="730" y="700" on="1"/>
        <pt x="459" y="289" on="1"/>
        <pt x="474" y="357" on="1"/>
        <pt x="474" y="0" on="1"/>
        <pt x="256" y="0" on="1"/>
        <pt x="256" y="349" on="1"/>
        <pt x="263" y="300" on="1"/>
        <pt x="-20" y="700" on="1"/>
        <pt x="220" y="700" on="1"/>
        <pt x="436" y="390" on="1"/>
        <pt x="301" y="393" on="1"/>
      </contour>
      <contour>
        <pt x="447" y="863" on="1"/>
        <pt x="387" y="770" on="1"/>
        <pt x="159" y="892" on="1"/>
        <pt x="242" y="1017" on="1"/>
      </contour>
    </TTGlyph>
    <TTGlyph name="Z" xMin="60" yMin="0" xMax="641" yMax="700">
      <contour>
        <pt x="86" y="700" on="1"/>
        <pt x="630" y="700" on="1"/>
        <pt x="630" y="562" on="1"/>
        <pt x="273" y="87" on="1"/>
        <pt x="180" y="182" on="1"/>
        <pt x="641" y="182" on="1"/>
        <pt x="641" y="0" on="1"/>
        <pt x="60" y="0" on="1"/>
        <pt x="60" y="139" on="1"/>
        <pt x="419" y="613" on="1"/>
        <pt x="511" y="506" on="1"/>
        <pt x="86" y="506" on="1"/>
      </contour>
    </TTGlyph>
    <TTGlyph name="Zacute" xMin="60" yMin="0" xMax="641" yMax="1017">
      <contour>
        <pt x="86" y="700" on="1"/>
        <pt x="630" y="700" on="1"/>
        <pt x="630" y="562" on="1"/>
        <pt x="273" y="87" on="1"/>
        <pt x="180" y="182" on="1"/>
        <pt x="641" y="182" on="1"/>
        <pt x="641" y="0" on="1"/>
        <pt x="60" y="0" on="1"/>
        <pt x="60" y="139" on="1"/>
        <pt x="419" y="613" on="1"/>
        <pt x="511" y="506" on="1"/>
        <pt x="86" y="506" on="1"/>
      </contour>
      <contour>
        <pt x="538" y="892" on="1"/>
        <pt x="310" y="770" on="1"/>
        <pt x="250" y="863" on="1"/>
        <pt x="455" y="1017" on="1"/>
      </contour>
    </TTGlyph>
    <TTGlyph name="Zcaron" xMin="60" yMin="0" xMax="641" yMax="974">
      <contour>
        <pt x="86" y="700" on="1"/>
        <pt x="630" y="700" on="1"/>
        <pt x="630" y="562" on="1"/>
        <pt x="273" y="87" on="1"/>
        <pt x="180" y="182" on="1"/>
        <pt x="641" y="182" on="1"/>
        <pt x="641" y="0" on="1"/>
        <pt x="60" y="0" on="1"/>
        <pt x="60" y="139" on="1"/>
        <pt x="419" y="613" on="1"/>
        <pt x="511" y="506" on="1"/>
        <pt x="86" y="506" on="1"/>
      </contour>
      <contour>
        <pt x="496" y="974" on="1"/>
        <pt x="336" y="878" on="1"/>
        <pt x="366" y="878" on="1"/>
        <pt x="206" y="974" on="1"/>
        <pt x="134" y="912" on="1"/>
        <pt x="300" y="770" on="1"/>
        <pt x="402" y="770" on="1"/>
        <pt x="568" y="912" on="1"/>
      </contour>
    </TTGlyph>
    <TTGlyph name="Zdotaccent" xMin="60" yMin="0" xMax="641" yMax="962">
      <contour>
        <pt x="86" y="700" on="1"/>
        <pt x="630" y="700" on="1"/>
        <pt x="630" y="562" on="1"/>
        <pt x="273" y="87" on="1"/>
        <pt x="180" y="182" on="1"/>
        <pt x="641" y="182" on="1"/>
        <pt x="641" y="0" on="1"/>
        <pt x="60" y="0" on="1"/>
        <pt x="60" y="139" on="1"/>
        <pt x="419" y="613" on="1"/>
        <pt x="511" y="506" on="1"/>
        <pt x="86" y="506" on="1"/>
      </contour>
      <contour>
        <pt x="466" y="866" on="1"/>
        <pt x="466" y="824" on="0"/>
        <pt x="404" y="770" on="0"/>
        <pt x="350" y="770" on="1"/>
        <pt x="296" y="770" on="0"/>
        <pt x="236" y="820" on="0"/>
        <pt x="236" y="866" on="1"/>
        <pt x="236" y="908" on="0"/>
        <pt x="297" y="962" on="0"/>
        <pt x="350" y="962" on="1"/>
        <pt x="405" y="962" on="0"/>
        <pt x="466" y="912" on="0"/>
      </contour>
    </TTGlyph>
    <TTGlyph name="_connection" xMin="-30" yMin="0" xMax="90" yMax="102">
      <contour>
        <pt x="-30" y="0" on="1"/>
        <pt x="-30" y="102" on="1"/>
        <pt x="90" y="102" on="1"/>
        <pt x="90" y="0" on="1"/>
      </contour>
    </TTGlyph>
    <TTGlyph name="_connection.round" xMin="-79" yMin="0" xMax="120" yMax="149">
      <contour>
        <pt x="-79" y="102" on="1"/>
        <pt x="-31" y="149" on="1"/>
        <pt x="-5" y="124" on="0"/>
        <pt x="65" y="102" on="0"/>
        <pt x="120" y="102" on="1"/>
        <pt x="120" y="0" on="1"/>
        <pt x="54" y="0" on="0"/>
        <pt x="-49" y="52" on="0"/>
      </contour>
    </TTGlyph>
    <TTGlyph name="_guide" xMin="72" yMin="0" xMax="1213" yMax="536">
      <contour>
        <pt x="963" y="536" on="1"/>
        <pt x="1078" y="536" on="0"/>
        <pt x="1213" y="412" on="0"/>
        <pt x="1213" y="310" on="1"/>
        <pt x="1213" y="0" on="1"/>
        <pt x="1110" y="0" on="1"/>
        <pt x="1110" y="293" on="1"/>
        <pt x="1110" y="356" on="0"/>
        <pt x="1012" y="440" on="0"/>
        <pt x="939" y="440" on="1"/>
        <pt x="861" y="440" on="0"/>
        <pt x="741" y="336" on="0"/>
        <pt x="741" y="278" on="1"/>
        <pt x="741" y="0" on="1"/>
        <pt x="715" y="0" on="0"/>
        <pt x="664" y="0" on="0"/>
        <pt x="638" y="0" on="1"/>
        <pt x="638" y="525" on="1"/>
        <pt x="741" y="525" on="1"/>
        <pt x="741" y="377" on="1"/>
        <pt x="703" y="375" on="1"/>
        <pt x="748" y="450" on="0"/>
        <pt x="884" y="536" on="0"/>
      </contour>
      <contour>
        <pt x="347" y="536" on="1"/>
        <pt x="437" y="536" on="0"/>
        <pt x="527" y="429" on="0"/>
        <pt x="527" y="320" on="1"/>
        <pt x="527" y="0" on="1"/>
        <pt x="424" y="0" on="1"/>
        <pt x="424" y="313" on="1"/>
        <pt x="424" y="381" on="0"/>
        <pt x="369" y="445" on="0"/>
        <pt x="313" y="442" on="1"/>
        <pt x="254" y="442" on="0"/>
        <pt x="175" y="370" on="0"/>
        <pt x="175" y="318" on="1"/>
        <pt x="175" y="0" on="1"/>
        <pt x="149" y="0" on="0"/>
        <pt x="98" y="0" on="0"/>
        <pt x="72" y="0" on="1"/>
        <pt x="72" y="525" on="1"/>
        <pt x="175" y="525" on="1"/>
        <pt x="175" y="417" on="1"/>
        <pt x="157" y="405" on="1"/>
        <pt x="172" y="457" on="0"/>
        <pt x="284" y="536" on="0"/>
      </contour>
    </TTGlyph>
    <TTGlyph name="_spacingBehDotless" xMin="0" yMin="0" xMax="161" yMax="221">
      <contour>
        <pt x="0" y="0" on="1"/>
        <pt x="0" y="221" on="1"/>
        <pt x="161" y="221" on="1"/>
        <pt x="161" y="0" on="1"/>
      </contour>
    </TTGlyph>
    <TTGlyph name="_spacingDal" xMin="0" yMin="0" xMax="161" yMax="221">
      <contour>
        <pt x="0" y="0" on="1"/>
        <pt x="0" y="221" on="1"/>
        <pt x="161" y="221" on="1"/>
        <pt x="161" y="0" on="1"/>
      </contour>
    </TTGlyph>
    <TTGlyph name="a" xMin="30" yMin="-9" xMax="609" yMax="546">
      <contour>
        <pt x="410" y="535" on="1"/>
        <pt x="609" y="535" on="1"/>
        <pt x="609" y="0" on="1"/>
        <pt x="405" y="0" on="1"/>
        <pt x="405" y="131" on="1"/>
        <pt x="450" y="127" on="1"/>
        <pt x="429" y="69" on="0"/>
        <pt x="333" y="-9" on="0"/>
        <pt x="261" y="-9" on="1"/>
        <pt x="161" y="-9" on="0"/>
        <pt x="30" y="147" on="0"/>
        <pt x="30" y="268" on="1"/>
        <pt x="30" y="391" on="0"/>
        <pt x="159" y="546" on="0"/>
        <pt x="263" y="546" on="1"/>
        <pt x="336" y="546" on="0"/>
        <pt x="428" y="470" on="0"/>
        <pt x="451" y="416" on="1"/>
        <pt x="410" y="417" on="1"/>
      </contour>
      <contour>
        <pt x="229" y="268" on="1"/>
        <pt x="229" y="214" on="0"/>
        <pt x="276" y="156" on="0"/>
        <pt x="319" y="156" on="1"/>
        <pt x="363" y="156" on="0"/>
        <pt x="410" y="214" on="0"/>
        <pt x="410" y="268" on="1"/>
        <pt x="410" y="322" on="0"/>
        <pt x="363" y="381" on="0"/>
        <pt x="319" y="381" on="1"/>
        <pt x="276" y="381" on="0"/>
        <pt x="229" y="322" on="0"/>
      </contour>
    </TTGlyph>
    <TTGlyph name="a.ss01" xMin="30" yMin="-10" xMax="536" yMax="546">
      <contour>
        <pt x="299" y="546" on="1"/>
        <pt x="406" y="546" on="0"/>
        <pt x="536" y="454" on="0"/>
        <pt x="536" y="352" on="1"/>
        <pt x="536" y="0" on="1"/>
        <pt x="335" y="0" on="1"/>
        <pt x="335" y="315" on="1"/>
        <pt x="335" y="355" on="0"/>
        <pt x="302" y="382" on="0"/>
        <pt x="265" y="382" on="1"/>
        <pt x="231" y="382" on="0"/>
        <pt x="176" y="358" on="0"/>
        <pt x="148" y="327" on="1"/>
        <pt x="33" y="440" on="1"/>
        <pt x="82" y="485" on="0"/>
        <pt x="215" y="546" on="0"/>
      </contour>
      <contour>
        <pt x="266" y="309" on="1"/>
        <pt x="442" y="309" on="1"/>
        <pt x="433" y="197" on="1"/>
        <pt x="283" y="197" on="1"/>
        <pt x="256" y="197" on="0"/>
        <pt x="227" y="178" on="0"/>
        <pt x="227" y="161" on="1"/>
        <pt x="227" y="147" on="0"/>
        <pt x="252" y="128" on="0"/>
        <pt x="272" y="128" on="1"/>
        <pt x="301" y="128" on="0"/>
        <pt x="348" y="154" on="0"/>
        <pt x="362" y="180" on="1"/>
        <pt x="392" y="107" on="1"/>
        <pt x="361" y="56" on="0"/>
        <pt x="263" y="-10" on="0"/>
        <pt x="208" y="-10" on="1"/>
        <pt x="132" y="-10" on="0"/>
        <pt x="30" y="77" on="0"/>
        <pt x="30" y="149" on="1"/>
        <pt x="30" y="228" on="0"/>
        <pt x="149" y="309" on="0"/>
      </contour>
    </TTGlyph>
    <TTGlyph name="aabreve.ss01" xMin="30" yMin="-10" xMax="536" yMax="791">
      <contour>
        <pt x="299" y="546" on="1"/>
        <pt x="406" y="546" on="0"/>
        <pt x="536" y="454" on="0"/>
        <pt x="536" y="352" on="1"/>
        <pt x="536" y="0" on="1"/>
        <pt x="335" y="0" on="1"/>
        <pt x="335" y="315" on="1"/>
        <pt x="335" y="355" on="0"/>
        <pt x="302" y="382" on="0"/>
        <pt x="265" y="382" on="1"/>
        <pt x="231" y="382" on="0"/>
        <pt x="176" y="358" on="0"/>
        <pt x="148" y="327" on="1"/>
        <pt x="33" y="440" on="1"/>
        <pt x="82" y="485" on="0"/>
        <pt x="215" y="546" on="0"/>
      </contour>
      <contour>
        <pt x="266" y="309" on="1"/>
        <pt x="442" y="309" on="1"/>
        <pt x="433" y="197" on="1"/>
        <pt x="283" y="197" on="1"/>
        <pt x="256" y="197" on="0"/>
        <pt x="227" y="178" on="0"/>
        <pt x="227" y="161" on="1"/>
        <pt x="227" y="147" on="0"/>
        <pt x="252" y="128" on="0"/>
        <pt x="272" y="128" on="1"/>
        <pt x="301" y="128" on="0"/>
        <pt x="348" y="154" on="0"/>
        <pt x="362" y="180" on="1"/>
        <pt x="392" y="107" on="1"/>
        <pt x="361" y="56" on="0"/>
        <pt x="263" y="-10" on="0"/>
        <pt x="208" y="-10" on="1"/>
        <pt x="132" y="-10" on="0"/>
        <pt x="30" y="77" on="0"/>
        <pt x="30" y="149" on="1"/>
        <pt x="30" y="228" on="0"/>
        <pt x="149" y="309" on="0"/>
      </contour>
      <contour>
        <pt x="301" y="615" on="1"/>
        <pt x="228" y="615" on="0"/>
        <pt x="124" y="702" on="0"/>
        <pt x="109" y="779" on="1"/>
        <pt x="233" y="791" on="1"/>
        <pt x="242" y="765" on="0"/>
        <pt x="280" y="736" on="0"/>
        <pt x="301" y="736" on="1"/>
        <pt x="322" y="736" on="0"/>
        <pt x="360" y="765" on="0"/>
        <pt x="369" y="791" on="1"/>
        <pt x="493" y="779" on="1"/>
        <pt x="478" y="702" on="0"/>
        <pt x="374" y="615" on="0"/>
      </contour>
    </TTGlyph>
    <TTGlyph name="aacute" xMin="30" yMin="-9" xMax="609" yMax="858">
      <contour>
        <pt x="410" y="535" on="1"/>
        <pt x="609" y="535" on="1"/>
        <pt x="609" y="0" on="1"/>
        <pt x="405" y="0" on="1"/>
        <pt x="405" y="131" on="1"/>
        <pt x="450" y="127" on="1"/>
        <pt x="429" y="69" on="0"/>
        <pt x="333" y="-9" on="0"/>
        <pt x="261" y="-9" on="1"/>
        <pt x="161" y="-9" on="0"/>
        <pt x="30" y="147" on="0"/>
        <pt x="30" y="268" on="1"/>
        <pt x="30" y="391" on="0"/>
        <pt x="159" y="546" on="0"/>
        <pt x="263" y="546" on="1"/>
        <pt x="336" y="546" on="0"/>
        <pt x="428" y="470" on="0"/>
        <pt x="451" y="416" on="1"/>
        <pt x="410" y="417" on="1"/>
      </contour>
      <contour>
        <pt x="229" y="268" on="1"/>
        <pt x="229" y="214" on="0"/>
        <pt x="276" y="156" on="0"/>
        <pt x="319" y="156" on="1"/>
        <pt x="363" y="156" on="0"/>
        <pt x="410" y="214" on="0"/>
        <pt x="410" y="268" on="1"/>
        <pt x="410" y="322" on="0"/>
        <pt x="363" y="381" on="0"/>
        <pt x="319" y="381" on="1"/>
        <pt x="276" y="381" on="0"/>
        <pt x="229" y="322" on="0"/>
      </contour>
      <contour>
        <pt x="506" y="737" on="1"/>
        <pt x="278" y="615" on="1"/>
        <pt x="220" y="704" on="1"/>
        <pt x="426" y="858" on="1"/>
      </contour>
    </TTGlyph>
    <TTGlyph name="aacute.ss01" xMin="30" yMin="-10" xMax="536" yMax="858">
      <contour>
        <pt x="299" y="546" on="1"/>
        <pt x="406" y="546" on="0"/>
        <pt x="536" y="454" on="0"/>
        <pt x="536" y="352" on="1"/>
        <pt x="536" y="0" on="1"/>
        <pt x="335" y="0" on="1"/>
        <pt x="335" y="315" on="1"/>
        <pt x="335" y="355" on="0"/>
        <pt x="302" y="382" on="0"/>
        <pt x="265" y="382" on="1"/>
        <pt x="231" y="382" on="0"/>
        <pt x="176" y="358" on="0"/>
        <pt x="148" y="327" on="1"/>
        <pt x="33" y="440" on="1"/>
        <pt x="82" y="485" on="0"/>
        <pt x="215" y="546" on="0"/>
      </contour>
      <contour>
        <pt x="266" y="309" on="1"/>
        <pt x="442" y="309" on="1"/>
        <pt x="433" y="197" on="1"/>
        <pt x="283" y="197" on="1"/>
        <pt x="256" y="197" on="0"/>
        <pt x="227" y="178" on="0"/>
        <pt x="227" y="161" on="1"/>
        <pt x="227" y="147" on="0"/>
        <pt x="252" y="128" on="0"/>
        <pt x="272" y="128" on="1"/>
        <pt x="301" y="128" on="0"/>
        <pt x="348" y="154" on="0"/>
        <pt x="362" y="180" on="1"/>
        <pt x="392" y="107" on="1"/>
        <pt x="361" y="56" on="0"/>
        <pt x="263" y="-10" on="0"/>
        <pt x="208" y="-10" on="1"/>
        <pt x="132" y="-10" on="0"/>
        <pt x="30" y="77" on="0"/>
        <pt x="30" y="149" on="1"/>
        <pt x="30" y="228" on="0"/>
        <pt x="149" y="309" on="0"/>
      </contour>
      <contour>
        <pt x="450" y="737" on="1"/>
        <pt x="222" y="615" on="1"/>
        <pt x="164" y="704" on="1"/>
        <pt x="370" y="858" on="1"/>
      </contour>
    </TTGlyph>
    <TTGlyph name="abreve" xMin="30" yMin="-9" xMax="609" yMax="791">
      <contour>
        <pt x="410" y="535" on="1"/>
        <pt x="609" y="535" on="1"/>
        <pt x="609" y="0" on="1"/>
        <pt x="405" y="0" on="1"/>
        <pt x="405" y="131" on="1"/>
        <pt x="450" y="127" on="1"/>
        <pt x="429" y="69" on="0"/>
        <pt x="333" y="-9" on="0"/>
        <pt x="261" y="-9" on="1"/>
        <pt x="161" y="-9" on="0"/>
        <pt x="30" y="147" on="0"/>
        <pt x="30" y="268" on="1"/>
        <pt x="30" y="391" on="0"/>
        <pt x="159" y="546" on="0"/>
        <pt x="263" y="546" on="1"/>
        <pt x="336" y="546" on="0"/>
        <pt x="428" y="470" on="0"/>
        <pt x="451" y="416" on="1"/>
        <pt x="410" y="417" on="1"/>
      </contour>
      <contour>
        <pt x="229" y="268" on="1"/>
        <pt x="229" y="214" on="0"/>
        <pt x="276" y="156" on="0"/>
        <pt x="319" y="156" on="1"/>
        <pt x="363" y="156" on="0"/>
        <pt x="410" y="214" on="0"/>
        <pt x="410" y="268" on="1"/>
        <pt x="410" y="322" on="0"/>
        <pt x="363" y="381" on="0"/>
        <pt x="319" y="381" on="1"/>
        <pt x="276" y="381" on="0"/>
        <pt x="229" y="322" on="0"/>
      </contour>
      <contour>
        <pt x="339" y="615" on="1"/>
        <pt x="266" y="615" on="0"/>
        <pt x="162" y="702" on="0"/>
        <pt x="147" y="779" on="1"/>
        <pt x="271" y="791" on="1"/>
        <pt x="280" y="765" on="0"/>
        <pt x="318" y="736" on="0"/>
        <pt x="339" y="736" on="1"/>
        <pt x="360" y="736" on="0"/>
        <pt x="398" y="765" on="0"/>
        <pt x="407" y="791" on="1"/>
        <pt x="531" y="779" on="1"/>
        <pt x="516" y="702" on="0"/>
        <pt x="412" y="615" on="0"/>
      </contour>
    </TTGlyph>
    <TTGlyph name="abreve.ss01" xMin="30" yMin="-10" xMax="536" yMax="791">
      <contour>
        <pt x="299" y="546" on="1"/>
        <pt x="406" y="546" on="0"/>
        <pt x="536" y="454" on="0"/>
        <pt x="536" y="352" on="1"/>
        <pt x="536" y="0" on="1"/>
        <pt x="335" y="0" on="1"/>
        <pt x="335" y="315" on="1"/>
        <pt x="335" y="355" on="0"/>
        <pt x="302" y="382" on="0"/>
        <pt x="265" y="382" on="1"/>
        <pt x="231" y="382" on="0"/>
        <pt x="176" y="358" on="0"/>
        <pt x="148" y="327" on="1"/>
        <pt x="33" y="440" on="1"/>
        <pt x="82" y="485" on="0"/>
        <pt x="215" y="546" on="0"/>
      </contour>
      <contour>
        <pt x="266" y="309" on="1"/>
        <pt x="442" y="309" on="1"/>
        <pt x="433" y="197" on="1"/>
        <pt x="283" y="197" on="1"/>
        <pt x="256" y="197" on="0"/>
        <pt x="227" y="178" on="0"/>
        <pt x="227" y="161" on="1"/>
        <pt x="227" y="147" on="0"/>
        <pt x="252" y="128" on="0"/>
        <pt x="272" y="128" on="1"/>
        <pt x="301" y="128" on="0"/>
        <pt x="348" y="154" on="0"/>
        <pt x="362" y="180" on="1"/>
        <pt x="392" y="107" on="1"/>
        <pt x="361" y="56" on="0"/>
        <pt x="263" y="-10" on="0"/>
        <pt x="208" y="-10" on="1"/>
        <pt x="132" y="-10" on="0"/>
        <pt x="30" y="77" on="0"/>
        <pt x="30" y="149" on="1"/>
        <pt x="30" y="228" on="0"/>
        <pt x="149" y="309" on="0"/>
      </contour>
      <contour>
        <pt x="301" y="615" on="1"/>
        <pt x="228" y="615" on="0"/>
        <pt x="124" y="702" on="0"/>
        <pt x="109" y="779" on="1"/>
        <pt x="233" y="791" on="1"/>
        <pt x="242" y="765" on="0"/>
        <pt x="280" y="736" on="0"/>
        <pt x="301" y="736" on="1"/>
        <pt x="322" y="736" on="0"/>
        <pt x="360" y="765" on="0"/>
        <pt x="369" y="791" on="1"/>
        <pt x="493" y="779" on="1"/>
        <pt x="478" y="702" on="0"/>
        <pt x="374" y="615" on="0"/>
      </contour>
    </TTGlyph>
    <TTGlyph name="acircumflex" xMin="30" yMin="-9" xMax="609" yMax="819">
      <contour>
        <pt x="410" y="535" on="1"/>
        <pt x="609" y="535" on="1"/>
        <pt x="609" y="0" on="1"/>
        <pt x="405" y="0" on="1"/>
        <pt x="405" y="131" on="1"/>
        <pt x="450" y="127" on="1"/>
        <pt x="429" y="69" on="0"/>
        <pt x="333" y="-9" on="0"/>
        <pt x="261" y="-9" on="1"/>
        <pt x="161" y="-9" on="0"/>
        <pt x="30" y="147" on="0"/>
        <pt x="30" y="268" on="1"/>
        <pt x="30" y="391" on="0"/>
        <pt x="159" y="546" on="0"/>
        <pt x="263" y="546" on="1"/>
        <pt x="336" y="546" on="0"/>
        <pt x="428" y="470" on="0"/>
        <pt x="451" y="416" on="1"/>
        <pt x="410" y="417" on="1"/>
      </contour>
      <contour>
        <pt x="229" y="268" on="1"/>
        <pt x="229" y="214" on="0"/>
        <pt x="276" y="156" on="0"/>
        <pt x="319" y="156" on="1"/>
        <pt x="363" y="156" on="0"/>
        <pt x="410" y="214" on="0"/>
        <pt x="410" y="268" on="1"/>
        <pt x="410" y="322" on="0"/>
        <pt x="363" y="381" on="0"/>
        <pt x="319" y="381" on="1"/>
        <pt x="276" y="381" on="0"/>
        <pt x="229" y="322" on="0"/>
      </contour>
      <contour>
        <pt x="484" y="615" on="1"/>
        <pt x="324" y="711" on="1"/>
        <pt x="354" y="711" on="1"/>
        <pt x="194" y="615" on="1"/>
        <pt x="122" y="677" on="1"/>
        <pt x="288" y="819" on="1"/>
        <pt x="390" y="819" on="1"/>
        <pt x="556" y="677" on="1"/>
      </contour>
    </TTGlyph>
    <TTGlyph name="acircumflex.ss01" xMin="30" yMin="-10" xMax="536" yMax="819">
      <contour>
        <pt x="299" y="546" on="1"/>
        <pt x="406" y="546" on="0"/>
        <pt x="536" y="454" on="0"/>
        <pt x="536" y="352" on="1"/>
        <pt x="536" y="0" on="1"/>
        <pt x="335" y="0" on="1"/>
        <pt x="335" y="315" on="1"/>
        <pt x="335" y="355" on="0"/>
        <pt x="302" y="382" on="0"/>
        <pt x="265" y="382" on="1"/>
        <pt x="231" y="382" on="0"/>
        <pt x="176" y="358" on="0"/>
        <pt x="148" y="327" on="1"/>
        <pt x="33" y="440" on="1"/>
        <pt x="82" y="485" on="0"/>
        <pt x="215" y="546" on="0"/>
      </contour>
      <contour>
        <pt x="266" y="309" on="1"/>
        <pt x="442" y="309" on="1"/>
        <pt x="433" y="197" on="1"/>
        <pt x="283" y="197" on="1"/>
        <pt x="256" y="197" on="0"/>
        <pt x="227" y="178" on="0"/>
        <pt x="227" y="161" on="1"/>
        <pt x="227" y="147" on="0"/>
        <pt x="252" y="128" on="0"/>
        <pt x="272" y="128" on="1"/>
        <pt x="301" y="128" on="0"/>
        <pt x="348" y="154" on="0"/>
        <pt x="362" y="180" on="1"/>
        <pt x="392" y="107" on="1"/>
        <pt x="361" y="56" on="0"/>
        <pt x="263" y="-10" on="0"/>
        <pt x="208" y="-10" on="1"/>
        <pt x="132" y="-10" on="0"/>
        <pt x="30" y="77" on="0"/>
        <pt x="30" y="149" on="1"/>
        <pt x="30" y="228" on="0"/>
        <pt x="149" y="309" on="0"/>
      </contour>
      <contour>
        <pt x="446" y="615" on="1"/>
        <pt x="286" y="711" on="1"/>
        <pt x="316" y="711" on="1"/>
        <pt x="156" y="615" on="1"/>
        <pt x="84" y="677" on="1"/>
        <pt x="250" y="819" on="1"/>
        <pt x="352" y="819" on="1"/>
        <pt x="518" y="677" on="1"/>
      </contour>
    </TTGlyph>
    <TTGlyph name="acute" xMin="10" yMin="554" xMax="296" yMax="797">
      <contour>
        <pt x="296" y="676" on="1"/>
        <pt x="68" y="554" on="1"/>
        <pt x="10" y="643" on="1"/>
        <pt x="216" y="797" on="1"/>
      </contour>
    </TTGlyph>
    <TTGlyph name="acute.case" xMin="-1" yMin="554" xMax="287" yMax="801">
      <contour>
        <pt x="287" y="676" on="1"/>
        <pt x="59" y="554" on="1"/>
        <pt x="-1" y="647" on="1"/>
        <pt x="204" y="801" on="1"/>
      </contour>
    </TTGlyph>
    <TTGlyph name="acutecomb" xMin="10" yMin="554" xMax="296" yMax="797">
      <contour>
        <pt x="296" y="676" on="1"/>
        <pt x="68" y="554" on="1"/>
        <pt x="10" y="643" on="1"/>
        <pt x="216" y="797" on="1"/>
      </contour>
    </TTGlyph>
    <TTGlyph name="acutecomb.case" xMin="-1" yMin="554" xMax="287" yMax="801">
      <contour>
        <pt x="287" y="676" on="1"/>
        <pt x="59" y="554" on="1"/>
        <pt x="-1" y="647" on="1"/>
        <pt x="204" y="801" on="1"/>
      </contour>
    </TTGlyph>
    <TTGlyph name="acutecomb_dotaccentcomb" xMin="0" yMin="554" xMax="286" yMax="1005">
      <contour>
        <pt x="286" y="676" on="1"/>
        <pt x="58" y="554" on="1"/>
        <pt x="0" y="643" on="1"/>
        <pt x="206" y="797" on="1"/>
      </contour>
      <contour>
        <pt x="234" y="909" on="1"/>
        <pt x="234" y="867" on="0"/>
        <pt x="172" y="813" on="0"/>
        <pt x="119" y="813" on="1"/>
        <pt x="65" y="813" on="0"/>
        <pt x="4" y="863" on="0"/>
        <pt x="4" y="909" on="1"/>
        <pt x="4" y="951" on="0"/>
        <pt x="66" y="1005" on="0"/>
        <pt x="119" y="1005" on="1"/>
        <pt x="173" y="1005" on="0"/>
        <pt x="234" y="955" on="0"/>
      </contour>
    </TTGlyph>
    <TTGlyph name="adieresis" xMin="30" yMin="-9" xMax="609" yMax="815">
      <contour>
        <pt x="410" y="535" on="1"/>
        <pt x="609" y="535" on="1"/>
        <pt x="609" y="0" on="1"/>
        <pt x="405" y="0" on="1"/>
        <pt x="405" y="131" on="1"/>
        <pt x="450" y="127" on="1"/>
        <pt x="429" y="69" on="0"/>
        <pt x="333" y="-9" on="0"/>
        <pt x="261" y="-9" on="1"/>
        <pt x="161" y="-9" on="0"/>
        <pt x="30" y="147" on="0"/>
        <pt x="30" y="268" on="1"/>
        <pt x="30" y="391" on="0"/>
        <pt x="159" y="546" on="0"/>
        <pt x="263" y="546" on="1"/>
        <pt x="336" y="546" on="0"/>
        <pt x="428" y="470" on="0"/>
        <pt x="451" y="416" on="1"/>
        <pt x="410" y="417" on="1"/>
      </contour>
      <contour>
        <pt x="229" y="268" on="1"/>
        <pt x="229" y="214" on="0"/>
        <pt x="276" y="156" on="0"/>
        <pt x="319" y="156" on="1"/>
        <pt x="363" y="156" on="0"/>
        <pt x="410" y="214" on="0"/>
        <pt x="410" y="268" on="1"/>
        <pt x="410" y="322" on="0"/>
        <pt x="363" y="381" on="0"/>
        <pt x="319" y="381" on="1"/>
        <pt x="276" y="381" on="0"/>
        <pt x="229" y="322" on="0"/>
      </contour>
      <contour>
        <pt x="324" y="715" on="1"/>
        <pt x="324" y="671" on="0"/>
        <pt x="270" y="615" on="0"/>
        <pt x="224" y="615" on="1"/>
        <pt x="176" y="615" on="0"/>
        <pt x="124" y="667" on="0"/>
        <pt x="124" y="715" on="1"/>
        <pt x="124" y="759" on="0"/>
        <pt x="178" y="815" on="0"/>
        <pt x="224" y="815" on="1"/>
        <pt x="272" y="815" on="0"/>
        <pt x="324" y="764" on="0"/>
      </contour>
      <contour>
        <pt x="595" y="715" on="1"/>
        <pt x="595" y="671" on="0"/>
        <pt x="541" y="615" on="0"/>
        <pt x="495" y="615" on="1"/>
        <pt x="447" y="615" on="0"/>
        <pt x="395" y="667" on="0"/>
        <pt x="395" y="715" on="1"/>
        <pt x="395" y="759" on="0"/>
        <pt x="449" y="815" on="0"/>
        <pt x="495" y="815" on="1"/>
        <pt x="543" y="815" on="0"/>
        <pt x="595" y="764" on="0"/>
      </contour>
    </TTGlyph>
    <TTGlyph name="adieresis.ss01" xMin="30" yMin="-10" xMax="536" yMax="828">
      <contour>
        <pt x="299" y="546" on="1"/>
        <pt x="406" y="546" on="0"/>
        <pt x="536" y="454" on="0"/>
        <pt x="536" y="352" on="1"/>
        <pt x="536" y="0" on="1"/>
        <pt x="335" y="0" on="1"/>
        <pt x="335" y="315" on="1"/>
        <pt x="335" y="355" on="0"/>
        <pt x="302" y="382" on="0"/>
        <pt x="265" y="382" on="1"/>
        <pt x="231" y="382" on="0"/>
        <pt x="176" y="358" on="0"/>
        <pt x="148" y="327" on="1"/>
        <pt x="33" y="440" on="1"/>
        <pt x="82" y="485" on="0"/>
        <pt x="215" y="546" on="0"/>
      </contour>
      <contour>
        <pt x="266" y="309" on="1"/>
        <pt x="442" y="309" on="1"/>
        <pt x="433" y="197" on="1"/>
        <pt x="283" y="197" on="1"/>
        <pt x="256" y="197" on="0"/>
        <pt x="227" y="178" on="0"/>
        <pt x="227" y="161" on="1"/>
        <pt x="227" y="147" on="0"/>
        <pt x="252" y="128" on="0"/>
        <pt x="272" y="128" on="1"/>
        <pt x="301" y="128" on="0"/>
        <pt x="348" y="154" on="0"/>
        <pt x="362" y="180" on="1"/>
        <pt x="392" y="107" on="1"/>
        <pt x="361" y="56" on="0"/>
        <pt x="263" y="-10" on="0"/>
        <pt x="208" y="-10" on="1"/>
        <pt x="132" y="-10" on="0"/>
        <pt x="30" y="77" on="0"/>
        <pt x="30" y="149" on="1"/>
        <pt x="30" y="228" on="0"/>
        <pt x="149" y="309" on="0"/>
      </contour>
      <contour>
        <pt x="263" y="728" on="1"/>
        <pt x="263" y="684" on="0"/>
        <pt x="209" y="628" on="0"/>
        <pt x="163" y="628" on="1"/>
        <pt x="115" y="628" on="0"/>
        <pt x="63" y="680" on="0"/>
        <pt x="63" y="728" on="1"/>
        <pt x="63" y="772" on="0"/>
        <pt x="117" y="828" on="0"/>
        <pt x="163" y="828" on="1"/>
        <pt x="211" y="828" on="0"/>
        <pt x="263" y="777" on="0"/>
      </contour>
      <contour>
        <pt x="534" y="728" on="1"/>
        <pt x="534" y="684" on="0"/>
        <pt x="480" y="628" on="0"/>
        <pt x="434" y="628" on="1"/>
        <pt x="386" y="628" on="0"/>
        <pt x="334" y="680" on="0"/>
        <pt x="334" y="728" on="1"/>
        <pt x="334" y="772" on="0"/>
        <pt x="388" y="828" on="0"/>
        <pt x="434" y="828" on="1"/>
        <pt x="482" y="828" on="0"/>
        <pt x="534" y="777" on="0"/>
      </contour>
    </TTGlyph>
</ttFont>
